<svg xmlns="http://www.w3.org/2000/svg" xmlns:xlink="http://www.w3.org/1999/xlink" viewBox="0 0 400 400"><defs><style>.cls-1{fill:#231f20;}.cls-2{fill:url(#linear-gradient);}.cls-3{fill:url(#linear-gradient-2);}.cls-4{fill:url(#linear-gradient-3);}</style><linearGradient id="linear-gradient" y1="269.54" x2="400" y2="269.54" gradientUnits="userSpaceOnUse"><stop offset="0" stop-color="#69f"/><stop offset="1" stop-color="#c3f"/></linearGradient><linearGradient id="linear-gradient-2" x1="371.11" y1="27.95" y2="27.95" xlink:href="#linear-gradient"/><linearGradient id="linear-gradient-3" y1="61.96" x2="156.63" y2="61.96" xlink:href="#linear-gradient"/></defs><g id="Layer_2" data-name="Layer 2"><g id="Layer_1-2" data-name="Layer 1"><path class="cls-1" d="M371.11,0H156.63L88.86,123.92H0v56.49H40.68c90,80.25,208.65,129.1,338.51,129.1q10.46,0,20.81-.43V55.91Z"/><polygon class="cls-1" points="100.59 0 0 0 0 74.75 59.71 74.75 100.59 0"/><path class="cls-1" d="M0,209.86V400H400V358.29q-10.37.38-20.81.39C232.94,358.68,99.64,302.17,0,209.86Z"/><path class="cls-2" d="M379.19,309.51c-129.86,0-248.47-48.85-338.51-129.1H0v29.45c99.64,92.31,232.94,148.82,379.19,148.82q10.46,0,20.81-.39V309.08Q389.65,309.5,379.19,309.51Z"/><polygon class="cls-3" points="371.11 0 400 55.91 400 0 371.11 0"/><polygon class="cls-4" points="59.71 74.75 0 74.75 0 123.92 88.86 123.92 156.63 0 100.59 0 59.71 74.75"/></g></g></svg>