<svg xmlns="http://www.w3.org/2000/svg" xmlns:xlink="http://www.w3.org/1999/xlink" viewBox="0 0 400 400"><defs><style>.cls-1{fill:#231f20;}.cls-2{fill:url(#linear-gradient);}.cls-3{fill:url(#linear-gradient-2);}</style><linearGradient id="linear-gradient" y1="216.69" x2="400" y2="216.69" gradientUnits="userSpaceOnUse"><stop offset="0" stop-color="#69f"/><stop offset="1" stop-color="#c3f"/></linearGradient><linearGradient id="linear-gradient-2" y1="59.14" x2="266.28" y2="59.14" xlink:href="#linear-gradient"/></defs><g id="Layer_2" data-name="Layer 2"><g id="Layer_1-2" data-name="Layer 1"><path class="cls-1" d="M0,358v42H400V158.11C303.13,273.83,160.37,349.88,0,358Z"/><path class="cls-1" d="M199.9,0l66.38,118.28H24.62L0,70.64V308.71c167.72-9.27,314.07-100,400-233.3V0Z"/><polygon class="cls-1" points="182.31 69.11 143.52 0 18.85 0 54.57 69.11 182.31 69.11"/><path class="cls-2" d="M0,308.71V358c160.37-8.08,303.13-84.13,400-199.85V75.41C314.07,208.66,167.72,299.44,0,308.71Z"/><polygon class="cls-3" points="182.31 69.11 54.57 69.11 18.85 0 0 0 0 70.64 24.62 118.28 266.28 118.28 199.9 0 143.52 0 182.31 69.11"/></g></g></svg>