<svg xmlns="http://www.w3.org/2000/svg" xmlns:xlink="http://www.w3.org/1999/xlink" viewBox="0 0 400 400"><defs><style>.cls-1{fill:#231f20;}.cls-2{fill:url(#linear-gradient);}.cls-3{fill:url(#linear-gradient-2);}</style><linearGradient id="linear-gradient" x1="47.92" y1="101.48" x2="400" y2="101.48" gradientUnits="userSpaceOnUse"><stop offset="0" stop-color="#69f"/><stop offset="1" stop-color="#c3f"/></linearGradient><linearGradient id="linear-gradient-2" x1="0" y1="4.6" x2="33.19" y2="4.6" xlink:href="#linear-gradient"/></defs><g id="Layer_2" data-name="Layer 2"><g id="Layer_1-2" data-name="Layer 1"><path class="cls-1" d="M390.61,151.88a800.44,800.44,0,0,0-259.79,45.81L115.89,203l-68-68L185,0H33.19Q16.54,4.4,0,9.21V400H400V151.85C396.87,151.85,393.74,151.85,390.61,151.88Z"/><path class="cls-1" d="M256.63,0,119.23,135.27l9.9,9.91a849.51,849.51,0,0,1,261-43.52c3.28,0,6.57,0,9.85,0V0Z"/><path class="cls-2" d="M390.15,101.66a849.51,849.51,0,0,0-261,43.52l-9.9-9.91L256.63,0H185L47.92,135l68,68,14.93-5.28a800.44,800.44,0,0,1,259.79-45.81c3.13,0,6.26,0,9.39,0V101.63C396.72,101.62,393.43,101.63,390.15,101.66Z"/><path class="cls-3" d="M0,0V9.21Q16.54,4.41,33.19,0Z"/></g></g></svg>