<?xml version="1.0" encoding="UTF-8"?>
<!DOCTYPE svg PUBLIC "-//W3C//DTD SVG 1.1//EN" "http://www.w3.org/Graphics/SVG/1.1/DTD/svg11.dtd">
<!-- Creator: CorelDRAW 2018 (64-Bit) -->
<svg xmlns="http://www.w3.org/2000/svg" xml:space="preserve" width="792.729mm" height="124.142mm" version="1.1" style="shape-rendering:geometricPrecision; text-rendering:geometricPrecision; image-rendering:optimizeQuality; fill-rule:evenodd; clip-rule:evenodd"
viewBox="0 0 87352.58 13679.52"
 xmlns:xlink="http://www.w3.org/1999/xlink">
 <defs>
  <style type="text/css">
   <![CDATA[
    .fil0 {fill:#FEFEFE;fill-rule:nonzero}
    .fil1 {fill:#E4292F;fill-rule:nonzero}
   ]]>
  </style>
 </defs>
 <g id="Layer_x0020_1">
  <metadata id="CorelCorpID_0Corel-Layer"/>
  <g id="_2196725175440">
   <polygon class="fil0" points="3181.28,5583.16 7841.88,13679.52 15620.12,0 13806.78,668.06 7810.07,11150.4 4771.93,5599.06 "/>
   <polygon class="fil0" points="5280.94,5567.24 6744.33,5567.24 7857.78,7571.46 10307.38,3324.44 6982.93,3324.44 13122.81,954.39 7841.88,10211.93 "/>
   <polygon class="fil1" points="-0,9750.64 1781.52,9750.64 3881.17,6823.86 3181.28,5583.16 "/>
   <polygon class="fil1" points="2338.25,9766.54 3722.11,9766.54 4740.12,8319.05 4135.67,7253.33 "/>
  </g>
 </g>
 <g id="__x0023_Layer_x0020_1">
  <metadata id="CorelCorpID_1Corel-Layer"/>
  <g id="_2196725146832">
   <path class="fil0" d="M18381.66 3333.56c66.69,0 115.23,10.07 145.27,30.16 30.03,19.92 58.37,53.47 85.17,100.16l2935.14 5389.43c20.05,46.82 60.1,70.14 120.22,70.14l50.08 0c46.63,0 83.48,-23.32 110.21,-70.14l2895.07 -5389.43c40.1,-86.71 116.77,-130.32 230.42,-130.32l1312.3 0c80.18,0 128.51,21.75 145.26,65.15 16.61,43.53 8.29,98.6 -25.04,165.34l-3285.79 6020.51c-167.01,307.32 -330.54,510.97 -490.84,611.15 -160.29,100.16 -347.33,150.25 -561,150.25l-581.02 0c-260.46,0 -475.83,-50.08 -646.13,-150.25 -170.34,-100.18 -339.07,-303.83 -505.86,-611.15l-3325.9 -6020.51c-33.48,-66.74 -41.76,-121.82 -25.04,-165.34 16.59,-43.39 68.44,-65.15 155.27,-65.15l1262.21 0z"/>
   <path class="fil0" d="M33858.86 3333.56c507.5,0 939.96,48.61 1297.33,145.3 357.19,96.87 647.68,250.41 871.52,460.86 223.66,210.31 385.71,482.49 485.87,816.45 100.16,333.95 150.26,741.22 150.26,1222.13l0 1723.01c0,480.82 -50.09,890 -150.26,1227.13 -100.16,337.34 -262.21,611.15 -485.87,821.46 -223.84,210.41 -514.33,362.39 -871.52,455.78 -357.36,93.58 -789.83,140.27 -1297.33,140.27l-3095.43 0c-507.59,0 -938.39,-46.7 -1292.27,-140.27 -354.07,-93.39 -642.84,-245.37 -866.5,-455.78 -223.84,-210.31 -387.44,-484.12 -490.9,-821.46 -103.62,-337.13 -155.25,-746.31 -155.25,-1227.13l0 -1723.01c0,-480.91 51.63,-888.18 155.25,-1222.13 103.46,-333.96 267.05,-606.13 490.9,-816.45 223.66,-210.45 512.43,-363.99 866.5,-460.86 353.88,-96.69 784.68,-145.3 1292.27,-145.3l3095.43 0zm-4367.66 4257.51l0 0c0,260.53 21.6,479.31 65.12,656.21 43.34,177.02 115.16,317.3 215.34,420.76 100.2,103.59 235.41,177.02 405.75,220.3 170.25,43.61 385.67,65.15 646.15,65.15l2975.24 0c260.47,0 475.83,-21.53 646.08,-65.15 170.34,-43.27 305.56,-116.7 405.76,-220.3 100.16,-103.46 171.84,-243.73 215.34,-420.76 43.39,-176.89 65.18,-395.68 65.18,-656.21l0 -1502.63c0,-260.4 -21.79,-479.09 -65.18,-656.12 -43.49,-176.89 -115.17,-317.17 -215.34,-420.76 -100.2,-103.46 -235.43,-176.89 -405.76,-220.38 -170.25,-43.4 -385.61,-65.15 -646.08,-65.15l-2975.24 0c-260.47,0 -475.9,21.74 -646.15,65.15 -170.34,43.49 -305.55,116.93 -405.75,220.38 -100.18,103.59 -172,243.87 -215.34,420.76 -43.53,177.02 -65.12,395.72 -65.12,656.12l0 1502.63z"/>
   <path class="fil0" d="M45178.67 3333.56c687.74,0 1177.04,137.01 1467.53,410.77 290.57,273.89 435.77,687.97 435.77,1242.2l0 480.82c0,561.02 -213.77,985.17 -641.09,1272.21 460.8,267.22 691.17,697.95 691.17,1292.31l0 580.99c0,267.17 -30.04,507.64 -90.13,721.26 -60.13,213.83 -158.7,395.71 -295.55,545.97 -136.95,150.25 -319,265.51 -545.91,345.63 -227.13,80.12 -507.61,120.22 -841.52,120.22l-5950.45 0c-200.37,0 -300.54,-100.16 -300.54,-300.54l0 -6411.23c0,-200.46 100.16,-300.63 300.54,-300.63l5770.18 0zm-4538.03 2915.25l0 0 4107.25 0c333.84,0 560.97,-50.21 681.22,-150.38 120.16,-100.16 180.29,-246.94 180.29,-440.69l0 -340.64c0,-206.93 -58.52,-358.87 -175.33,-455.78 -116.93,-96.78 -305.5,-145.27 -565.96,-145.27l-4097.21 0c-86.89,0 -130.26,43.49 -130.26,130.2l0 1402.55zm0 1091.81l0 0 0 1492.64c0,86.93 43.37,130.2 130.26,130.2l4107.2 0c267.02,0 457.41,-48.26 571.01,-145.17 113.48,-96.78 170.31,-252.02 170.31,-465.86l0 -380.62c0,-206.93 -61.8,-363.99 -185.34,-470.84 -123.67,-106.77 -352.34,-160.36 -686.18,-160.36l-4107.25 0z"/>
   <path class="fil0" d="M50808.47 3333.56c146.81,0 220.4,73.65 220.4,220.42l0 3997.08c0,267.21 21.59,489.29 65.11,666.19 43.34,177.01 115.17,317.2 215.37,420.66 100.16,103.68 235.41,177.11 405.73,220.4 170.27,43.53 385.67,65.15 646.13,65.15l4057.1 0c146.81,0 220.4,73.55 220.4,220.42l0 981.7c0,146.95 -73.59,220.38 -220.4,220.38l-4117.24 0c-507.59,0 -938.35,-46.7 -1292.27,-140.27 -354.05,-93.39 -642.84,-245.37 -866.56,-455.78 -223.78,-210.31 -387.37,-484.12 -490.83,-821.46 -103.61,-337.13 -155.31,-746.31 -155.31,-1227.13l0 -4147.33c0,-146.77 76.73,-220.42 230.43,-220.42l1081.92 0z"/>
   <path class="fil0" d="M63190.19 3333.56c253.72,0 467.39,51.9 641.18,155.37 173.54,103.55 343.84,305.5 510.88,606.02l3315.82 6020.63c33.33,66.84 41.65,121.92 25.05,165.22 -16.76,43.49 -65.11,65.15 -145.27,65.15l-1272.25 0c-113.63,0 -190.32,-43.4 -230.37,-130.2l-711.26 -1292.3 -4708.26 0 -691.27 1292.3c-46.79,86.8 -123.67,130.2 -230.37,130.2l-1302.32 0c-86.85,0 -138.7,-21.65 -155.31,-65.15 -16.69,-43.31 -8.44,-98.38 25.05,-165.22l3285.79 -6020.63c166.89,-300.53 330.6,-502.48 490.9,-606.02 160.3,-103.47 347.17,-155.37 561,-155.37l591.01 0zm-1943.41 4427.81l0 0 3446.09 0 -1592.81 -2935.17c-26.78,-46.6 -63.58,-70.04 -110.21,-70.04l-60.12 0c-46.8,0 -83.57,23.44 -110.18,70.04l-1572.76 2935.17z"/>
   <path class="fil0" d="M76673.84 3333.56c146.8,0 220.38,73.65 220.38,220.42l0 951.76c0,146.95 -73.59,220.3 -220.38,220.3l-5018.85 0c-193.77,0 -330.53,50.08 -410.72,150.25 -80.11,100.18 -120.19,237.18 -120.19,410.79l0 340.64c0,374.06 173.57,560.91 520.87,560.91l3756.63 0c581.05,0 1018.35,148.68 1312.29,445.79 293.86,297.24 440.81,722.99 440.81,1277.22l0 801.41c0,487.6 -143.69,881.63 -430.76,1182.13 -287.21,300.54 -734.7,450.79 -1342.4,450.79l-5549.72 0c-153.7,0 -230.42,-73.43 -230.42,-220.38l0 -951.66c0,-146.86 76.73,-220.43 230.42,-220.43l5259.24 0c193.62,0 330.6,-50.08 410.71,-150.25 80.15,-100.18 120.25,-236.96 120.25,-410.65l0 -410.79c0,-373.96 -173.78,-560.93 -520.92,-560.93l-3756.63 0c-581,0 -1018.51,-148.56 -1312.3,-445.8 -293.94,-297.11 -440.81,-722.86 -440.81,-1277.33l0 -731.25c0,-487.38 143.6,-881.49 430.81,-1182.03 287.04,-300.63 734.56,-450.88 1342.35,-450.88l5309.35 0z"/>
   <path class="fil0" d="M87122.15 3333.56c153.55,0 230.43,73.65 230.43,220.42l0 981.79c0,153.64 -76.88,230.37 -230.43,230.37l-3145.48 0 0 5359.43c0,146.95 -73.62,220.38 -220.43,220.38l-1091.94 0c-146.95,0 -220.35,-73.43 -220.35,-220.38l0 -5359.43 -3145.55 0c-153.71,0 -230.37,-76.73 -230.37,-230.37l0 -981.79c0,-146.77 76.66,-220.42 230.37,-220.42l7823.75 0z"/>
  </g>
 </g>
</svg>
