<?xml version="1.0" encoding="iso-8859-1"?>
<!-- Generator: Adobe Illustrator 19.0.0, SVG Export Plug-In . SVG Version: 6.00 Build 0)  -->
<svg version="1.1" id="Layer_1" xmlns="http://www.w3.org/2000/svg" xmlns:xlink="http://www.w3.org/1999/xlink" x="0px" y="0px"
	 viewBox="0 0 512 512" style="enable-background:new 0 0 512 512;" xml:space="preserve">
<g>
	
		<rect x="140.058" y="275.807" transform="matrix(0.7071 -0.7071 0.7071 0.7071 -161.6364 195.9641)" style="fill:#424242;" width="31.346" height="34.575"/>
	<path style="fill:#424242;" d="M179.983,425.943l44.101,11.817c9.029-33.821,0.279-71.401-26.254-97.934l-32.269,32.269
		C180.15,386.685,184.947,407.345,179.983,425.943z"/>
	<polygon style="fill:#424242;" points="467.702,0 441.055,26.647 419.399,4.989 397.233,27.156 418.89,48.812 331.964,135.738 
		403.744,207.596 376.7,234.64 398.865,256.806 425.909,229.761 480.682,284.534 502.847,262.369 376.256,135.778 489.868,22.165 	
		"/>
	<polygon style="fill:#424242;" points="81.528,399.14 9.153,471.515 62.563,512 114.155,460.408 105.014,422.626 151.143,376.497 
		127.656,353.011 	"/>
</g>
<polygon style="fill:#707070;" points="151.13,376.486 127.656,353.011 81.528,399.14 9.153,471.515 35.857,491.757 "/>
<rect x="268.292" y="260.63" transform="matrix(-0.7071 0.7071 -0.7071 -0.7071 731.6346 342.9554)" style="fill:#8F8F8F;" width="52.994" height="124.748"/>
<rect x="246.24" y="269.769" transform="matrix(-0.7071 0.7071 -0.7071 -0.7071 678.3995 320.9102)" style="fill:#C2C2C2;" width="52.994" height="62.375"/>
<rect x="231.58" y="164.366" transform="matrix(-0.7071 0.7071 -0.7071 -0.7071 668.1497 100.1858)" style="fill:#8F8F8F;" width="163.492" height="48.211"/>
<rect x="223.055" y="167.881" transform="matrix(-0.7071 0.7071 -0.7071 -0.7071 647.5606 91.6394)" style="fill:#C2C2C2;" width="163.492" height="24.105"/>
<rect x="54.746" y="283.745" transform="matrix(-0.7071 0.7071 -0.7071 -0.7071 537.0005 416.6928)" style="fill:#048F46;" width="254.908" height="71.637"/>
<rect x="42.082" y="288.99" transform="matrix(-0.7071 0.7071 -0.7071 -0.7071 506.4266 404.0288)" style="fill:#3DDB86;" width="254.908" height="35.818"/>
<g>
</g>
<g>
</g>
<g>
</g>
<g>
</g>
<g>
</g>
<g>
</g>
<g>
</g>
<g>
</g>
<g>
</g>
<g>
</g>
<g>
</g>
<g>
</g>
<g>
</g>
<g>
</g>
<g>
</g>
</svg>
