<?xml version="1.0" encoding="iso-8859-1"?>
<!-- Generator: Adobe Illustrator 19.0.0, SVG Export Plug-In . SVG Version: 6.00 Build 0)  -->
<svg version="1.1" id="Layer_1" xmlns="http://www.w3.org/2000/svg" xmlns:xlink="http://www.w3.org/1999/xlink" x="0px" y="0px"
	 viewBox="0 0 512.002 512.002" style="enable-background:new 0 0 512.002 512.002;" xml:space="preserve">
<polygon style="fill:#048F46;" points="160.155,283.628 93.869,349.912 213.046,469.088 279.331,402.804 253.92,377.392 
	320.205,311.107 226.44,217.342 "/>
<polygon style="fill:#3DDB86;" points="273.322,264.225 226.44,217.342 160.155,283.628 93.869,349.912 140.752,396.795 "/>
<path style="fill:#707070;" d="M55.618,328.322L4.023,314.497c-10.562,39.568-0.327,83.533,30.715,114.575l37.753-37.753
	C55.422,374.251,49.81,350.079,55.618,328.322z"/>
<g>
	
		<rect x="11.394" y="384.073" transform="matrix(-0.7071 0.7071 -0.7071 -0.7071 395.7978 635.7354)" style="fill:#424242;" width="109.679" height="31.535"/>
	
		<rect x="87.168" y="381.692" transform="matrix(0.7071 0.7071 -0.7071 0.7071 338.8232 55.0705)" style="fill:#424242;" width="31.535" height="109.679"/>
</g>
<rect x="231.468" y="111.449" transform="matrix(-0.7071 0.7071 -0.7071 -0.7071 754.4801 13.8376)" style="fill:#C2C2C2;" width="285.813" height="103.456"/>
<rect x="213.172" y="119.018" transform="matrix(-0.7071 0.7071 -0.7071 -0.7071 710.312 -4.4559)" style="fill:#EAEAEA;" width="285.813" height="51.728"/>
<rect x="193.309" y="231.066" transform="matrix(0.7071 -0.7071 0.7071 0.7071 -139.9237 256.9305)" style="fill:#FFAC00;" width="93.743" height="132.605"/>
<rect x="169.864" y="240.778" transform="matrix(0.7071 -0.7071 0.7071 0.7071 -130.215 233.4866)" style="fill:#FFD68B;" width="93.743" height="66.297"/>
<g>
	<polygon style="fill:#424242;" points="499.026,60.82 476.728,38.521 425.89,89.358 388.006,51.475 365.707,73.773 
		403.591,111.657 364.175,151.073 326.29,113.19 303.992,135.488 341.876,173.372 273.322,241.926 202.763,171.366 59.044,315.086 
		81.342,337.385 202.763,215.963 325.394,338.595 347.692,316.296 295.621,264.225 364.175,195.67 402.058,233.555 424.357,211.256 
		386.474,173.372 425.89,133.956 463.774,171.84 486.073,149.541 448.188,111.657 	"/>
	
		<rect x="224.416" y="283.17" transform="matrix(0.7071 0.7071 -0.7071 0.7071 280.6212 -82.7371)" style="fill:#424242;" width="31.535" height="28.403"/>
</g>
<g>
</g>
<g>
</g>
<g>
</g>
<g>
</g>
<g>
</g>
<g>
</g>
<g>
</g>
<g>
</g>
<g>
</g>
<g>
</g>
<g>
</g>
<g>
</g>
<g>
</g>
<g>
</g>
<g>
</g>
</svg>
