<svg xmlns="http://www.w3.org/2000/svg" viewBox="0 0 1069.98 1069.94"><defs><style>.cls-1{fill:#f4a11c;}.cls-2{fill:#ffc708;}.cls-3{fill:#fcee3b;}</style></defs><g id="Layer_2" data-name="Layer 2"><g id="Layer_1-2" data-name="Layer 1"><path class="cls-1" d="M1070,535c0,295.41-239.55,535-535,535S0,830.39,0,535C0,239,240,0,535,0S1070,239.07,1070,535Z"/><path class="cls-2" d="M974.43,535c0,242.7-196.75,439.38-439.43,439.38S95.55,777.71,95.55,535,292.31,95.55,535,95.55,974.43,292.25,974.43,535Z"/><path class="cls-3" d="M539,235.85,178.48,590.77l55.68,55.69,7-2.47a879.94,879.94,0,0,1,91.18-26.82l-73,71.89L305,734.74l7-2.47a669.2,669.2,0,0,1,140.79-33.22l-81.64,80.37L403,811.27l7-2.47a375.46,375.46,0,0,1,250.38,0l7.18,2.54,31.27-32.81-79.14-79.24a669.84,669.84,0,0,1,138.79,33l7.18,2.54,45-47.22L741,617.83A880.46,880.46,0,0,1,829.38,644l7.19,2.53,54.93-57.64ZM666,778.91l-5,5.22a399.07,399.07,0,0,0-251.78.06l-4.63-4.64,85.37-84.06,25.17-24.77,21.57-21.25L558,670.8l24.81,24.85ZM777.78,688l-18.68,19.6a691.79,691.79,0,0,0-165.81-34.72l-56.47-56.54-57.23,56.35a691.8,691.8,0,0,0-168.41,35l-18.45-18.45,82.28-81,29.12-28.67L537.92,447.78,670,580l28.69,28.73ZM830,619.28A906.38,906.38,0,0,0,710.22,587L538.06,414.61,363.61,586.38a906.91,906.91,0,0,0-123.27,33L211.89,590.9,538.81,269,858.62,589.27Z"/></g></g></svg>