<svg id="Layer_1" data-name="Layer 1" xmlns="http://www.w3.org/2000/svg" xmlns:xlink="http://www.w3.org/1999/xlink" viewBox="0 0 237.4 271.01"><defs><style>.cls-1{fill:url(#Orange_Yellow);}.cls-2{fill:#fff;}.cls-3{fill:url(#linear-gradient);}</style><linearGradient id="Orange_Yellow" x1="314.93" y1="215.32" x2="164.22" y2="133.77" gradientUnits="userSpaceOnUse"><stop offset="0" stop-color="#fff33b"/><stop offset="0.04" stop-color="#fee72e"/><stop offset="0.12" stop-color="#fed51b"/><stop offset="0.2" stop-color="#fdca10"/><stop offset="0.28" stop-color="#fdc70c"/><stop offset="0.67" stop-color="#f3903f"/><stop offset="0.89" stop-color="#ed683c"/><stop offset="1" stop-color="#e93e3a"/></linearGradient><linearGradient id="linear-gradient" x1="81.3" y1="297.31" x2="318.7" y2="297.31" gradientUnits="userSpaceOnUse"><stop offset="0" stop-color="#0f0094"/><stop offset="0.29" stop-color="#0e079b"/><stop offset="0.66" stop-color="#0050e9"/><stop offset="0.96" stop-color="#c915ff"/></linearGradient></defs><title>logo</title><path d="M276.61,51.71l-38.56-.19h0c-11.47-.18-23.59.06-26.82,2.69a23.7,23.7,0,0,0-3.46,2.19,24.62,24.62,0,0,0-2.52-3.28c-2-2.87-43.93-.86-47.62-1.41L146.28,82.84c-1.61-13.39-3.83-29-8.29-31.13-.91.2-17.45-.6-17.53.71-2.61.54-36.18,45.38-39,48.42v.28a2.47,2.47,0,0,0-.19.67h40c3.08-2.28,7-7.41,9-10.68l2,10.68h25.3l6.23-17.2,1-.76,19.47,18h20.22L186,82.79a29.39,29.39,0,0,0,10.18-1.41,18.77,18.77,0,0,0,9.68,15.73c9.86,6,24.33,4.47,35.53,4.68l11.81-31.18H230.49a58.42,58.42,0,0,0-9.92,12.28h10.68L229.08,89C212.22,92.2,208,68.57,223.5,64.46h33.22c-1.45,4.7-1,9.8,2.41,13.66,4.2,7.74,21,4.06,27.92,4.86,1.32,0,1.33,2,1.32,2.93-.06,1.43.24,3.31-1.89,3.22H254.36c-3.23,2.86-7.55,8.94-9.83,12.67h48.19c9.3-.86,15.3-12.6,12.71-21.17-1.82-13.52-19.53-9.38-28.77-9.92a6.15,6.15,0,0,1-2.84-2c-.16-1.19,1-4.21,2.55-4.16h31.18A78.14,78.14,0,0,0,318.7,51.71ZM111.06,89.13v-.95l15.87-21.26,3.31,22.21ZM189.18,70.7H174.06l-8.31,8.41,5.38-14.74h19c1.41,0,1.66.65,1.7,1.79C191.94,67.79,191.45,70.76,189.18,70.7Z" transform="translate(-81.3 -51.47)"/><path class="cls-1" d="M276.61,128.09l-38.56-.18h0c-11.47-.18-23.59,0-26.82,2.69a23.7,23.7,0,0,0-3.46,2.19,24.62,24.62,0,0,0-2.52-3.28c-2-2.87-43.93-.86-47.62-1.42l-11.34,31.14c-1.61-13.4-3.83-29-8.29-31.14-.91.21-17.45-.59-17.53.71-2.61.54-36.18,45.38-39,48.43v.28a2.44,2.44,0,0,0-.19.66h40c3.08-2.28,7-7.4,9-10.67l2,10.67h25.3L163.76,161l1-.76,19.47,17.95h20.22l-18.52-19a29.39,29.39,0,0,0,10.18-1.41,18.77,18.77,0,0,0,9.68,15.73c9.86,6,24.33,4.46,35.53,4.67L253.17,147H230.49a58.73,58.73,0,0,0-9.92,12.29h10.68l-2.17,6.14C212.22,168.59,208,145,223.5,140.85h33.22c-1.45,4.7-1,9.8,2.41,13.65,4.2,7.75,21,4.07,27.92,4.87,1.32,0,1.33,2,1.32,2.93-.06,1.43.24,3.31-1.89,3.21H254.36c-3.23,2.86-7.55,8.94-9.83,12.66h48.19c9.3-.85,15.3-12.6,12.71-21.16-1.82-13.52-19.53-9.38-28.77-9.92a6.17,6.17,0,0,1-2.84-2c-.16-1.18,1-4.2,2.55-4.15h31.18a78.21,78.21,0,0,0,11.15-12.86ZM111.06,165.51v-.94l15.87-21.26,3.31,22.2Zm78.12-18.42H174.06l-8.31,8.41,5.38-14.74h19c1.41,0,1.66.65,1.7,1.79C191.94,144.18,191.45,147.14,189.18,147.09Z" transform="translate(-81.3 -51.47)"/><path class="cls-2" d="M276.61,200.23l-38.56-.18h0c-11.47-.18-23.59,0-26.82,2.69a23.7,23.7,0,0,0-3.46,2.19,24.62,24.62,0,0,0-2.52-3.28c-2-2.87-43.93-.86-47.62-1.42l-11.34,31.14c-1.61-13.4-3.83-29-8.29-31.14-.91.21-17.45-.59-17.53.71-2.61.54-36.18,45.38-39,48.43v.28a2.44,2.44,0,0,0-.19.66h40c3.08-2.28,7-7.4,9-10.67l2,10.67h25.3l6.23-17.19,1-.76,19.47,17.95h20.22l-18.52-19a29.39,29.39,0,0,0,10.18-1.41,18.77,18.77,0,0,0,9.68,15.73c9.86,6,24.33,4.46,35.53,4.67l11.81-31.18H230.49a58.73,58.73,0,0,0-9.92,12.29h10.68l-2.17,6.14C212.22,240.73,208,217.1,223.5,213h33.22c-1.45,4.7-1,9.8,2.41,13.65,4.2,7.75,21,4.07,27.92,4.87,1.32,0,1.33,2,1.32,2.93-.06,1.43.24,3.31-1.89,3.21H254.36c-3.23,2.86-7.55,8.94-9.83,12.66h48.19c9.3-.85,15.3-12.6,12.71-21.16-1.82-13.52-19.53-9.38-28.77-9.92a6.17,6.17,0,0,1-2.84-2c-.16-1.18,1-4.2,2.55-4.16h31.18a77.74,77.74,0,0,0,11.15-12.85ZM111.06,237.65v-.94l15.87-21.26,3.31,22.2Zm78.12-18.42H174.06l-8.31,8.41,5.38-14.74h19c1.41,0,1.66.64,1.7,1.79C191.94,216.32,191.45,219.28,189.18,219.23Z" transform="translate(-81.3 -51.47)"/><path class="cls-3" d="M276.61,272.37l-38.56-.19h0c-11.47-.18-23.59.05-26.82,2.69a24.51,24.51,0,0,0-3.46,2.18,25.21,25.21,0,0,0-2.52-3.27c-2-2.88-43.93-.86-47.62-1.42l-11.34,31.14c-1.61-13.4-3.83-29-8.29-31.14-.91.21-17.45-.6-17.53.71-2.61.54-36.18,45.38-39,48.43v.28a2.44,2.44,0,0,0-.19.66h40c3.08-2.28,7-7.4,9-10.68l2,10.68h25.3l6.23-17.19,1-.76,19.47,17.95h20.22l-18.52-19a29.39,29.39,0,0,0,10.18-1.41,18.74,18.74,0,0,0,9.68,15.72c9.86,6,24.33,4.47,35.53,4.68l11.81-31.18H230.49a58.68,58.68,0,0,0-9.92,12.28h10.68l-2.17,6.15c-16.86,3.17-21.09-20.47-5.58-24.57h33.22c-1.45,4.7-1,9.8,2.41,13.65,4.2,7.75,21,4.07,27.92,4.87,1.32,0,1.33,2,1.32,2.93-.06,1.43.24,3.31-1.89,3.21H254.36c-3.23,2.86-7.55,8.93-9.83,12.66h48.19c9.3-.85,15.3-12.6,12.71-21.16-1.82-13.52-19.53-9.39-28.77-9.92a6.17,6.17,0,0,1-2.84-2c-.16-1.18,1-4.2,2.55-4.16h31.18a77.74,77.74,0,0,0,11.15-12.85ZM111.06,309.79v-.94l15.87-21.26,3.31,22.2Zm78.12-18.42H174.06l-8.31,8.41L171.13,285h19c1.41,0,1.66.65,1.7,1.8C191.94,288.46,191.45,291.42,189.18,291.37Z" transform="translate(-81.3 -51.47)"/></svg>