<svg xmlns="http://www.w3.org/2000/svg" xmlns:xlink="http://www.w3.org/1999/xlink" viewBox="0 0 237.4 50.34"><defs><style>.cls-1{fill:url(#linear-gradient);}</style><linearGradient id="linear-gradient" y1="25.17" x2="237.4" y2="25.17" gradientUnits="userSpaceOnUse"><stop offset="0" stop-color="#0f0094"/><stop offset="0.29" stop-color="#0e079b"/><stop offset="0.66" stop-color="#0050e9"/><stop offset="0.96" stop-color="#c915ff"/></linearGradient></defs><title>logo</title><g id="Layer_2" data-name="Layer 2"><g id="Layer_1-2" data-name="Layer 1"><path class="cls-1" d="M195.31.23,156.75.05h0c-11.47-.18-23.59.05-26.83,2.69a23.08,23.08,0,0,0-3.45,2.19A26.42,26.42,0,0,0,124,1.65C121.94-1.22,80,.79,76.33.23L65,31.37C63.38,18,61.16,2.41,56.69.23c-.9.21-17.45-.59-17.53.71C36.55,1.48,3,46.32.19,49.37v.28a3.19,3.19,0,0,0-.19.66H40c3.08-2.28,7-7.4,9-10.67l2,10.67h25.3l6.24-17.19,1-.76,19.46,18h20.22l-18.52-19a29.39,29.39,0,0,0,10.18-1.41,18.79,18.79,0,0,0,9.68,15.73c9.86,6,24.34,4.46,35.53,4.67l11.81-31.18H149.2a58.1,58.1,0,0,0-9.92,12.29H150l-2.17,6.14C130.93,40.73,126.69,17.1,142.2,13h33.22c-1.44,4.7-1,9.8,2.41,13.65,4.21,7.75,21,4.07,27.92,4.87,1.33,0,1.33,2,1.32,2.93-.06,1.43.24,3.31-1.89,3.21H173.06c-3.22,2.86-7.55,8.94-9.83,12.66h48.19c9.3-.85,15.3-12.6,12.71-21.16-1.82-13.52-19.53-9.38-28.77-9.92a6.28,6.28,0,0,1-2.84-2c-.16-1.18,1-4.2,2.55-4.16h31.18A77.74,77.74,0,0,0,237.4.23ZM29.76,37.65v-.94L45.64,15.45l3.3,22.2Zm78.12-18.42H92.77l-8.32,8.41L89.84,12.9h19c1.42,0,1.66.64,1.7,1.79C110.65,16.32,110.16,19.28,107.88,19.23Z"/></g></g></svg>