<svg xmlns="http://www.w3.org/2000/svg" xmlns:xlink="http://www.w3.org/1999/xlink" viewBox="0 0 566.87 82.97"><defs><style>.cls-1,.cls-26{fill:none;}.cls-2{clip-path:url(#clip-path);}.cls-3{fill:url(#linear-gradient);}.cls-4{clip-path:url(#clip-path-2);}.cls-5{fill:url(#linear-gradient-2);}.cls-6{clip-path:url(#clip-path-3);}.cls-7{fill:url(#linear-gradient-3);}.cls-8{clip-path:url(#clip-path-4);}.cls-9{fill:url(#linear-gradient-4);}.cls-10{clip-path:url(#clip-path-5);}.cls-11{fill:url(#linear-gradient-5);}.cls-12{clip-path:url(#clip-path-6);}.cls-13{fill:url(#linear-gradient-6);}.cls-14{clip-path:url(#clip-path-7);}.cls-15{fill:url(#linear-gradient-7);}.cls-16{clip-path:url(#clip-path-8);}.cls-17{fill:url(#linear-gradient-8);}.cls-18{clip-path:url(#clip-path-9);}.cls-19{fill:url(#linear-gradient-9);}.cls-20{clip-path:url(#clip-path-10);}.cls-21{fill:url(#linear-gradient-10);}.cls-22{clip-path:url(#clip-path-11);}.cls-23{fill:url(#linear-gradient-11);}.cls-24{clip-path:url(#clip-path-12);}.cls-25{fill:url(#linear-gradient-12);}.cls-26{stroke:#272525;stroke-miterlimit:10;stroke-width:0.25px;}.cls-27{clip-path:url(#clip-path-13);}.cls-28{fill:url(#linear-gradient-13);}.cls-29{clip-path:url(#clip-path-14);}.cls-30{fill:url(#linear-gradient-14);}.cls-31{clip-path:url(#clip-path-15);}.cls-32{fill:url(#linear-gradient-15);}.cls-33{clip-path:url(#clip-path-16);}.cls-34{fill:url(#linear-gradient-16);}.cls-35{clip-path:url(#clip-path-17);}.cls-36{fill:url(#linear-gradient-17);}.cls-37{opacity:0.2;}.cls-38{clip-path:url(#clip-path-18);}.cls-39{fill:#272525;}.cls-40{opacity:0.62;}.cls-41{clip-path:url(#clip-path-19);}.cls-42{clip-path:url(#clip-path-20);}.cls-43{fill:url(#linear-gradient-18);}</style><clipPath id="clip-path"><path class="cls-1" d="M91.58,26.75A11.84,11.84,0,0,0,83,29.89a10.06,10.06,0,0,0-3.17,7.43V47.94A10.11,10.11,0,0,0,83,55.32a11.77,11.77,0,0,0,8.59,3.19h20.86a10.79,10.79,0,0,0,7.25-2.74,8.25,8.25,0,0,0,3-6.42v-10H105.32l-2.09,6.34H114v2.24a3.59,3.59,0,0,1-.79,2.62,4,4,0,0,1-2.81.78H93.79A5.85,5.85,0,0,1,90,50a4.38,4.38,0,0,1-1.49-3.45V38.5A4.44,4.44,0,0,1,90,35a5.34,5.34,0,0,1,3.65-1.34h25.2l2.34-6.94Z"/></clipPath><linearGradient id="linear-gradient" x1="-1152.72" y1="1694.48" x2="-1151.72" y2="1694.48" gradientTransform="matrix(-81.87, 0, 0, 81.87, -94228.08, -138689.8)" gradientUnits="userSpaceOnUse"><stop offset="0" stop-color="#00f7ff"/><stop offset="0.11" stop-color="#00f7ff"/><stop offset="0.14" stop-color="#06ecf7"/><stop offset="0.23" stop-color="#12d1e3"/><stop offset="0.32" stop-color="#1cbed5"/><stop offset="0.41" stop-color="#21b3cd"/><stop offset="0.5" stop-color="#23afca"/><stop offset="1" stop-color="#0360c3"/></linearGradient><clipPath id="clip-path-2"><path class="cls-1" d="M148.87,35l7.67,13H141.21Zm-4.68-8.25-19,31.76H135l2.72-4.68H160l2.74,4.68h10l-19-31.76Z"/></clipPath><linearGradient id="linear-gradient-2" x1="-1152.72" y1="1694.46" x2="-1151.72" y2="1694.46" gradientTransform="matrix(-81.87, 0, 0, 81.87, -94185.11, -138688.3)" xlink:href="#linear-gradient"/><clipPath id="clip-path-3"><polygon class="cls-1" points="214.31 26.75 199.89 50.18 185.5 26.75 176.59 26.75 176.59 58.51 185.02 58.51 185.02 40.06 195.94 58.03 203.41 58.03 214.31 40.06 214.31 58.51 222.97 58.51 222.97 26.75 214.31 26.75"/></clipPath><linearGradient id="linear-gradient-3" x1="-1152.72" y1="1694.48" x2="-1151.72" y2="1694.48" gradientTransform="matrix(-81.87, 0, 0, 81.87, -94139.39, -138689.96)" xlink:href="#linear-gradient"/><clipPath id="clip-path-4"><polygon class="cls-1" points="230.53 26.75 230.53 58.51 264.36 58.51 266.72 51.44 239.19 51.44 239.19 45.75 262.55 45.75 264.71 39.28 239.19 39.28 239.19 33.82 264.36 33.82 266.72 26.75 230.53 26.75"/></clipPath><linearGradient id="linear-gradient-4" x1="-1152.72" y1="1694.48" x2="-1151.72" y2="1694.48" gradientTransform="matrix(-81.87, 0, 0, 81.87, -94095.64, -138690.22)" xlink:href="#linear-gradient"/><clipPath id="clip-path-5"><path class="cls-1" d="M291.68,25.55a10,10,0,0,0-7.45,2.74,9.13,9.13,0,0,0-2.87,6.77A9.52,9.52,0,0,0,284.23,42a10,10,0,0,0,7.45,2.89H310a2.57,2.57,0,0,1,1.94.83,2.74,2.74,0,0,1,0,3.9,2.74,2.74,0,0,1-2,.83H284.15l-2.39,6.87H310.2a10.25,10.25,0,0,0,7.65-3,9.8,9.8,0,0,0,2.95-7.14,9.59,9.59,0,0,0-2.95-7,10.26,10.26,0,0,0-7.65-2.89H292.73a2.71,2.71,0,0,1-1.86-.73,2.66,2.66,0,0,1-.73-1.66,2.53,2.53,0,0,1,.73-1.76,2.38,2.38,0,0,1,1.74-.73h23.58l2.39-6.85Z"/></clipPath><linearGradient id="linear-gradient-5" x1="-1152.71" y1="1694.3" x2="-1151.71" y2="1694.3" gradientTransform="matrix(-81.87, 0, 0, 81.87, -94049.66, -138676.25)" xlink:href="#linear-gradient"/><clipPath id="clip-path-6"><polygon class="cls-1" points="327.42 25.55 325.08 32.45 340.64 32.45 340.64 57.31 349.32 57.31 349.32 32.45 363.29 32.45 365.63 25.55 327.42 25.55"/></clipPath><linearGradient id="linear-gradient-6" x1="-1152.71" y1="1694.31" x2="-1151.71" y2="1694.31" gradientTransform="matrix(-81.87, 0, 0, 81.87, -94009.9, -138677.46)" xlink:href="#linear-gradient"/><clipPath id="clip-path-7"><path class="cls-1" d="M391.34,33.81l7.67,13H383.68Zm-4.69-8.26-19,31.76h9.82l2.71-4.68h22.31l2.74,4.68h10l-19-31.76Z"/></clipPath><linearGradient id="linear-gradient-7" x1="-1152.71" y1="1694.28" x2="-1151.71" y2="1694.28" gradientTransform="matrix(-81.87, 0, 0, 81.87, -93968.27, -138674.73)" xlink:href="#linear-gradient"/><clipPath id="clip-path-8"><polygon class="cls-1" points="414.85 25.55 412.51 32.45 428.06 32.45 428.06 57.31 436.75 57.31 436.75 32.45 450.71 32.45 453.06 25.55 414.85 25.55"/></clipPath><linearGradient id="linear-gradient-8" x1="-1152.71" y1="1694.31" x2="-1151.71" y2="1694.31" gradientTransform="matrix(-81.87, 0, 0, 81.87, -93931.16, -138677.58)" xlink:href="#linear-gradient"/><clipPath id="clip-path-9"><rect class="cls-1" x="458.85" y="25.55" width="8.66" height="31.76"/></clipPath><linearGradient id="linear-gradient-9" x1="-1152.71" y1="1694.3" x2="-1151.71" y2="1694.3" gradientTransform="matrix(-81.87, 0, 0, 81.87, -93904.06, -138676.17)" xlink:href="#linear-gradient"/><clipPath id="clip-path-10"><path class="cls-1" d="M484.27,48.83a4.2,4.2,0,0,1-1.48-3.37V37.28a4.71,4.71,0,0,1,1.48-3.47,5.42,5.42,0,0,1,3.8-1.31H503a5.43,5.43,0,0,1,3.83,1.31,4.42,4.42,0,0,1,1.48,3.47v8.1a4.3,4.3,0,0,1-1.48,3.45A5.68,5.68,0,0,1,503,50.14h-14.9a5.65,5.65,0,0,1-3.8-1.31m1.56-23.28a11.79,11.79,0,0,0-8.6,3.15,10.05,10.05,0,0,0-3.18,7.42V46.74a10.1,10.1,0,0,0,3.2,7.38,11.71,11.71,0,0,0,8.58,3.19h19.36a11.55,11.55,0,0,0,8.58-3.19,10,10,0,0,0,3.2-7.3V36.05a9.91,9.91,0,0,0-3.17-7.35c-2.09-2.09-5-3.15-8.61-3.15Z"/></clipPath><linearGradient id="linear-gradient-10" x1="-1152.71" y1="1694.3" x2="-1151.71" y2="1694.3" gradientTransform="matrix(-81.87, 0, 0, 81.87, -93874.94, -138676.22)" xlink:href="#linear-gradient"/><clipPath id="clip-path-11"><polygon class="cls-1" points="554.9 25.55 554.9 46.34 532.25 25.55 523.52 25.55 523.52 57.31 532.25 57.31 532.25 36.6 554.9 57.31 563.66 57.31 563.66 25.55 554.9 25.55"/></clipPath><linearGradient id="linear-gradient-11" x1="-1152.71" y1="1694.3" x2="-1151.71" y2="1694.3" gradientTransform="matrix(-81.87, 0, 0, 81.87, -93831.57, -138676.33)" xlink:href="#linear-gradient"/><clipPath id="clip-path-12"><path class="cls-1" d="M0,30.28A30.14,30.14,0,0,0,8.69,51.5l.06.06.12.12L26.08,69.45s4,4.74,8.7,0l10.47-11h0v0l.15-.52q.21-.79.36-1.56c.75-3.67.4-6.59-1-8.83a8.85,8.85,0,0,0-2.26-2.4l-.05,0A18.63,18.63,0,0,1,38,47a19,19,0,0,1-5.25.73A19.4,19.4,0,0,1,22.28,11.92,20.34,20.34,0,0,1,55.7,24.09a4,4,0,0,0,2.89-3.8,4,4,0,0,0-.24-1.36l-.07-.18A30.28,30.28,0,0,0,0,30.28"/></clipPath><linearGradient id="linear-gradient-12" x1="-1144.53" y1="1689.52" x2="-1143.88" y2="1689.52" gradientTransform="matrix(0, 125.77, 125.77, 0, -212464.85, 143942.93)" gradientUnits="userSpaceOnUse"><stop offset="0" stop-color="#00f7ff"/><stop offset="0.11" stop-color="#00f7ff"/><stop offset="0.14" stop-color="#06ecf7"/><stop offset="0.23" stop-color="#12d1e3"/><stop offset="0.32" stop-color="#1cbed5"/><stop offset="0.41" stop-color="#21b3cd"/><stop offset="0.5" stop-color="#23afca"/><stop offset="1" stop-color="#23afca"/></linearGradient><clipPath id="clip-path-13"><path class="cls-1" d="M26.75,19c-.46.15-5.9,2.05-6.28,10C20,38.55,30.68,41.25,35.6,42.3A20,20,0,0,1,41,44.17a11.64,11.64,0,0,1,1.43.9h0l0,0a8.84,8.84,0,0,1,2.5,2.8c1.23,2.19,1.49,5,.79,8.42-.11.51-.23,1-.37,1.58l-.15.52v0h0l3.07-3.23L51.43,52l0,0c.47-.46.92-.93,1.35-1.42a27.5,27.5,0,0,0,1.92-2.39c.21-.28.41-.56.61-.86s.22-.32.32-.49a31.28,31.28,0,0,0,2.25-4.15s1.54-8.48-5.9-12.2l-.06,0a13.18,13.18,0,0,0-1.51-.63c-3.52-1.24-10.28-1.65-14.54-2.54-9.5-2-9.11-8.25-9.11-8.25s0,0,0,0"/></clipPath><linearGradient id="linear-gradient-13" x1="-1121.36" y1="1705.89" x2="-1120.71" y2="1705.89" gradientTransform="matrix(57.78, 0, 0, -57.78, 64809.64, 98600.05)" xlink:href="#linear-gradient-12"/><clipPath id="clip-path-14"><path class="cls-1" d="M22.29,11.9A19.17,19.17,0,0,1,29.2,9.19l.69-.12L30.6,9c.23,0,.47-.05.71-.06l.72,0,.69,0h0c.51,0,1,0,1.52.07A19.4,19.4,0,0,1,50.93,21.54l.06.17a3.91,3.91,0,0,0,3.39,2.49l.31,0h.2l.18,0,.19,0,.2,0,.26-.06A20.35,20.35,0,0,0,22.29,11.9"/></clipPath><linearGradient id="linear-gradient-14" x1="-1119.76" y1="1708.42" x2="-1119.11" y2="1708.42" gradientTransform="matrix(51.39, 0, 0, -51.39, 57571.18, 87818.39)" xlink:href="#linear-gradient-12"/><clipPath id="clip-path-15"><path class="cls-1" d="M26.75,19A11.2,11.2,0,0,0,26,20a11.43,11.43,0,0,0-1.88,3.57,7.86,7.86,0,0,0,.26,5.55c1.23,2.64,4.09,4.16,6.94,4.76s5.8.44,8.7.73c4.38.43,9,2.2,11.1,6.09,1.4,2.65,1.34,5.84.82,8.8-.15.83-.34,1.66-.53,2.48l0,0c.47-.46.92-.93,1.35-1.42a27.5,27.5,0,0,0,1.92-2.39c.21-.28.41-.56.61-.86s.22-.32.32-.49a31.28,31.28,0,0,0,2.25-4.15s1.54-8.48-5.9-12.2l-.06,0a13.18,13.18,0,0,0-1.51-.63c-3.52-1.24-10.28-1.65-14.54-2.54-9.5-2-9.11-8.25-9.11-8.25s0,0,0,0"/></clipPath><linearGradient id="linear-gradient-15" x1="-1120.13" y1="1708.01" x2="-1119.48" y2="1708.01" gradientTransform="matrix(52.7, 0, 0, -52.7, 59049.43, 90039.37)" gradientUnits="userSpaceOnUse"><stop offset="0" stop-color="#23afca"/><stop offset="0.5" stop-color="#23afca"/><stop offset="0.59" stop-color="#21b3cd"/><stop offset="0.68" stop-color="#1cbed5"/><stop offset="0.77" stop-color="#12d1e3"/><stop offset="0.86" stop-color="#06ecf7"/><stop offset="0.89" stop-color="#00f7ff"/><stop offset="1" stop-color="#00f7ff"/></linearGradient><clipPath id="clip-path-16"><path class="cls-1" d="M11.07,25.44a20.06,20.06,0,0,0,5.35,13.37A19.39,19.39,0,0,1,22.28,11.9,20.34,20.34,0,0,1,55.7,24.08a4,4,0,0,0,2.89-3.81,4,4,0,0,0-.24-1.35l-.07-.18A30.44,30.44,0,0,0,43,2.78a25,25,0,0,0-7.39-1.1c-13.55,0-24.53,10.64-24.53,23.76"/></clipPath><linearGradient id="linear-gradient-16" x1="-1124.03" y1="1701.08" x2="-1123.38" y2="1701.08" gradientTransform="matrix(73.06, 0, 0, -73.06, 82132.9, 124300.75)" xlink:href="#linear-gradient-15"/><clipPath id="clip-path-17"><path class="cls-1" d="M0,30.26A30.15,30.15,0,0,0,8.71,51.49l.06.06.12.12,1.92,2a14,14,0,0,0,.2-6.24,8.57,8.57,0,0,0-.58-2.17C7.77,40,5.09,34.56,5.09,28.24A29.78,29.78,0,0,1,23.26.81,30.28,30.28,0,0,0,0,30.26"/></clipPath><linearGradient id="linear-gradient-17" x1="-1152.9" y1="1694.5" x2="-1152.25" y2="1694.5" gradientTransform="matrix(0, 69.47, 69.47, 0, -117712.92, 80117.21)" xlink:href="#linear-gradient-12"/><clipPath id="clip-path-18"><rect class="cls-1" x="38.05" y="45.09" width="8.18" height="13.36"/></clipPath><clipPath id="clip-path-19"><rect class="cls-1" x="17.41" y="75" width="23.77" height="5.57"/></clipPath><clipPath id="clip-path-20"><path class="cls-1" d="M41.18,77.79c0,1.54-5.32,2.78-11.89,2.78s-11.88-1.24-11.88-2.78S22.73,75,29.29,75s11.89,1.25,11.89,2.79"/></clipPath><linearGradient id="linear-gradient-18" x1="-1282.6" y1="1749.54" x2="-1281.95" y2="1749.54" gradientTransform="matrix(-9.32, 0, 0, 9.32, -11918.04, -16223.23)" xlink:href="#linear-gradient"/></defs><title>Asset 12</title><g id="Layer_2" data-name="Layer 2"><g id="Layer_1-2" data-name="Layer 1"><g class="cls-2"><rect class="cls-3" x="83.25" y="19.7" width="35.95" height="45.86" transform="translate(48.55 139.01) rotate(-84.18)"/></g><g class="cls-4"><rect class="cls-5" x="130.78" y="17.33" width="36.43" height="50.59" transform="translate(91.48 186.53) rotate(-84.18)"/></g><g class="cls-6"><rect class="cls-7" x="181.63" y="17.95" width="36.3" height="49.37" transform="translate(137.11 237.06) rotate(-84.18)"/></g><g class="cls-8"><rect class="cls-9" x="230.99" y="23.02" width="35.27" height="39.23" transform="translate(181.01 285.65) rotate(-84.18)"/></g><g class="cls-10"><rect class="cls-11" x="283.28" y="20.2" width="35.6" height="42.46" transform="translate(229.33 336.76) rotate(-84.18)"/></g><g class="cls-12"><rect class="cls-13" x="327.5" y="19.65" width="35.71" height="43.56" transform="translate(269.12 380.81) rotate(-84.18)"/></g><g class="cls-14"><rect class="cls-15" x="373.25" y="16.13" width="36.43" height="50.6" transform="translate(310.55 426.67) rotate(-84.18)"/></g><g class="cls-16"><rect class="cls-17" x="414.93" y="19.65" width="35.71" height="43.56" transform="translate(347.69 467.78) rotate(-84.18)"/></g><g class="cls-18"><rect class="cls-19" x="446.94" y="35.52" width="32.48" height="11.83" transform="translate(375 498.02) rotate(-84.18)"/></g><g class="cls-20"><rect class="cls-21" x="477.54" y="18.48" width="35.95" height="45.91" transform="translate(404.06 530.19) rotate(-84.18)"/></g><g class="cls-22"><rect class="cls-23" x="525.76" y="19.85" width="35.67" height="43.16" transform="translate(447.26 578.02) rotate(-84.18)"/></g><g class="cls-24"><rect class="cls-25" width="58.59" height="74.19"/></g><polygon class="cls-26" points="45.24 58.45 45.25 58.45 45.24 58.45 45.24 58.45"/><g class="cls-27"><rect class="cls-28" x="20.01" y="18.97" width="39.43" height="39.48"/></g><g class="cls-29"><rect class="cls-30" x="22.29" y="6.92" width="33.43" height="17.29"/></g><g class="cls-31"><rect class="cls-32" x="23.59" y="18.97" width="35.85" height="32.98"/></g><g class="cls-33"><rect class="cls-34" x="11.07" y="1.68" width="47.52" height="37.13"/></g><g class="cls-35"><rect class="cls-36" x="0.02" y="0.81" width="23.24" height="52.85"/></g><g class="cls-37"><g class="cls-38"><path class="cls-39" d="M45.84,56.36c-.1.51-.22,1-.36,1.56,0,.16-.09.33-.14.51,0,0,0,0,0,0A20.19,20.19,0,0,0,38.05,47a18.83,18.83,0,0,0,4.45-1.88l0,0a9,9,0,0,1,2.27,2.39c1.44,2.24,1.78,5.16,1,8.84"/></g></g><g class="cls-40"><g class="cls-41"><g class="cls-42"><rect class="cls-43" x="25.32" y="65.68" width="7.95" height="24.22" transform="translate(-51.06 99.04) rotate(-84.18)"/></g></g></g></g></g></svg>