<svg xmlns="http://www.w3.org/2000/svg" xmlns:xlink="http://www.w3.org/1999/xlink" viewBox="0 0 400 400"><defs><style>.cls-1{fill:#231f20;}.cls-2{fill:url(#linear-gradient);}.cls-3{fill:url(#linear-gradient-2);}</style><linearGradient id="linear-gradient" y1="165.54" x2="400" y2="165.54" gradientUnits="userSpaceOnUse"><stop offset="0" stop-color="#69f"/><stop offset="1" stop-color="#c3f"/></linearGradient><linearGradient id="linear-gradient-2" x1="151.73" y1="349.32" x2="376.01" y2="349.32" xlink:href="#linear-gradient"/></defs><g id="Layer_2" data-name="Layer 2"><g id="Layer_1-2" data-name="Layer 1"><path class="cls-1" d="M151.73,400l59.12-101.36H320.12L376,400h24V105.76q-10.35-.42-20.81-.43C228.73,105.33,93.33,170.88,0,274.91V400Z"/><path class="cls-1" d="M400,56.55V0H0V204.93C99.67,112.64,233,56.16,379.19,56.16Q389.65,56.16,400,56.55Z"/><polygon class="cls-1" points="291.08 347.81 239.09 347.81 208.65 400 319.86 400 291.08 347.81"/><path class="cls-2" d="M379.19,105.33q10.46,0,20.81.43V56.55q-10.37-.37-20.81-.39C233,56.16,99.67,112.64,0,204.93v70C93.33,170.88,228.73,105.33,379.19,105.33Z"/><polygon class="cls-3" points="210.84 298.64 151.73 400 208.65 400 239.09 347.81 291.08 347.81 319.86 400 376.01 400 320.12 298.64 210.84 298.64"/></g></g></svg>