<svg xmlns="http://www.w3.org/2000/svg" xmlns:xlink="http://www.w3.org/1999/xlink" viewBox="0 0 400 400"><defs><style>.cls-1{fill:#231f20;}.cls-2{fill:url(#linear-gradient);}.cls-3{fill:url(#linear-gradient-2);}.cls-4{fill:url(#linear-gradient-3);}</style><linearGradient id="linear-gradient" y1="149.35" x2="387.07" y2="149.35" gradientUnits="userSpaceOnUse"><stop offset="0" stop-color="#69f"/><stop offset="1" stop-color="#c3f"/></linearGradient><linearGradient id="linear-gradient-2" x1="11.75" y1="323.23" x2="400" y2="323.23" xlink:href="#linear-gradient"/><linearGradient id="linear-gradient-3" x1="379.07" y1="381.44" x2="400" y2="381.44" xlink:href="#linear-gradient"/></defs><g id="Layer_2" data-name="Layer 2"><g id="Layer_1-2" data-name="Layer 1"><path class="cls-1" d="M387.07,241.81H318.18A507.16,507.16,0,0,0,0,106.12V400H379.07L400,362.89V347.81H11.75V298.64H400V0H0V56.89C153.37,64.61,290.66,134.48,387.07,241.81Z"/><path class="cls-2" d="M318.18,241.81h68.89C290.66,134.48,153.37,64.61,0,56.89v49.23A507.16,507.16,0,0,1,318.18,241.81Z"/><rect class="cls-3" x="11.75" y="298.64" width="388.25" height="49.17"/><polygon class="cls-4" points="400 400 400 362.89 379.07 400 400 400"/></g></g></svg>