<svg xmlns="http://www.w3.org/2000/svg" xmlns:xlink="http://www.w3.org/1999/xlink" viewBox="0 0 400 400"><defs><style>.cls-1{fill:#231f20;}.cls-2{fill:url(#linear-gradient);}.cls-3{fill:url(#linear-gradient-2);}.cls-4{fill:url(#linear-gradient-3);}.cls-5{fill:url(#linear-gradient-4);}</style><linearGradient id="linear-gradient" x1="104.59" y1="305.69" x2="400" y2="305.69" gradientUnits="userSpaceOnUse"><stop offset="0" stop-color="#69f"/><stop offset="1" stop-color="#c3f"/></linearGradient><linearGradient id="linear-gradient-2" x1="0" y1="175.21" x2="204.38" y2="175.21" xlink:href="#linear-gradient"/><linearGradient id="linear-gradient-3" x1="346.67" y1="368.73" y2="368.73" xlink:href="#linear-gradient"/><linearGradient id="linear-gradient-4" x1="323.9" y1="69.01" y2="69.01" xlink:href="#linear-gradient"/></defs><g id="Layer_2" data-name="Layer 2"><g id="Layer_1-2" data-name="Layer 1"><polygon class="cls-1" points="160.64 400 367.32 400 346.67 360.04 390.36 337.46 400 356.12 400 260.54 236.9 260.54 160.64 400"/><polygon class="cls-1" points="0 0 0 252.83 147.46 0 0 0"/><polygon class="cls-1" points="400 211.37 400 138.02 323.9 0 204.38 0 0 350.42 0 400 104.59 400 207.75 211.37 400 211.37"/><polygon class="cls-1" points="400 0 380.05 0 400 36.19 400 0"/><polygon class="cls-2" points="236.9 260.54 400 260.54 400 211.37 207.75 211.37 104.59 400 160.64 400 236.9 260.54"/><polygon class="cls-3" points="147.46 0 0 252.83 0 350.42 204.38 0 147.46 0"/><polygon class="cls-4" points="346.67 360.04 367.32 400 400 400 400 356.12 390.36 337.46 346.67 360.04"/><polygon class="cls-5" points="400 138.02 400 36.19 380.05 0 323.9 0 400 138.02"/></g></g></svg>