<svg xmlns="http://www.w3.org/2000/svg" xmlns:xlink="http://www.w3.org/1999/xlink" viewBox="0 0 400 400"><defs><style>.cls-1{fill:#231f20;}.cls-2{fill:url(#linear-gradient);}.cls-3{fill:url(#linear-gradient-2);}</style><linearGradient id="linear-gradient" y1="200" x2="400" y2="200" gradientUnits="userSpaceOnUse"><stop offset="0" stop-color="#69f"/><stop offset="1" stop-color="#c3f"/></linearGradient><linearGradient id="linear-gradient-2" y1="92.26" x2="35.74" y2="92.26" xlink:href="#linear-gradient"/></defs><g id="Layer_2" data-name="Layer 2"><g id="Layer_1-2" data-name="Layer 1"><polygon class="cls-1" points="0 50 35.74 114.82 0 134.53 0 211.37 255.75 211.37 374.94 0 0 0 0 50"/><polygon class="cls-1" points="15.06 400 139.41 400 61.14 260.54 0 260.54 0 370.85 15.06 400"/><polygon class="cls-1" points="117.53 260.54 195.79 400 400 400 400 55.67 284.48 260.54 117.53 260.54"/><polygon class="cls-2" points="0 211.37 0 260.54 61.14 260.54 139.41 400 195.79 400 117.53 260.54 284.48 260.54 400 55.67 400 0 374.94 0 255.75 211.37 0 211.37"/><polygon class="cls-3" points="35.74 114.82 0 50 0 134.53 35.74 114.82"/></g></g></svg>