<svg xmlns="http://www.w3.org/2000/svg" xmlns:xlink="http://www.w3.org/1999/xlink" viewBox="0 0 400 400"><defs><style>.cls-1{fill:#231f20;}.cls-2{fill:url(#linear-gradient);}.cls-3{fill:url(#linear-gradient-2);}</style><linearGradient id="linear-gradient" x1="37.12" y1="204.66" x2="124.1" y2="204.66" gradientUnits="userSpaceOnUse"><stop offset="0" stop-color="#69f"/><stop offset="1" stop-color="#c3f"/></linearGradient><linearGradient id="linear-gradient-2" x1="0" y1="22.46" x2="25.32" y2="22.46" xlink:href="#linear-gradient"/></defs><g id="Layer_2" data-name="Layer 2"><g id="Layer_1-2" data-name="Layer 1"><path class="cls-1" d="M0,400H37.12A506.53,506.53,0,0,0,74.93,207.42,508.67,508.67,0,0,0,54.77,65.32l33-56a554.75,554.75,0,0,1,36.33,198.1A556,556,0,0,1,89.87,400H400V0H25.32L0,44.91Z"/><path class="cls-2" d="M87.77,9.32l-33,56a508.67,508.67,0,0,1,20.16,142.1A506.53,506.53,0,0,1,37.12,400H89.87A556,556,0,0,0,124.1,207.42,554.75,554.75,0,0,0,87.77,9.32Z"/><polygon class="cls-3" points="0 44.91 25.32 0 0 0 0 44.91"/></g></g></svg>