<svg xmlns="http://www.w3.org/2000/svg" xmlns:xlink="http://www.w3.org/1999/xlink" viewBox="0 0 400 400"><defs><style>.cls-1{fill:#231f20;}.cls-2{fill:url(#linear-gradient);}.cls-3{fill:url(#linear-gradient-2);}</style><linearGradient id="linear-gradient" x1="376.54" y1="192.28" x2="400" y2="192.28" gradientUnits="userSpaceOnUse"><stop offset="0" stop-color="#69f"/><stop offset="1" stop-color="#c3f"/></linearGradient><linearGradient id="linear-gradient-2" x1="241.17" y1="61.96" y2="61.96" xlink:href="#linear-gradient"/></defs><g id="Layer_2" data-name="Layer 2"><g id="Layer_1-2" data-name="Layer 1"><polygon class="cls-1" points="372.88 0 342.97 51.27 342.93 51.25 328.63 74.75 400 74.75 400 0 372.88 0"/><path class="cls-1" d="M376.54,180.41H400V123.92H241.17L302.29,23.43,316,0H0V400H400V204.15Q387.92,192.63,376.54,180.41Z"/><path class="cls-2" d="M376.54,180.41q11.37,12.21,23.46,23.74V180.41Z"/><polygon class="cls-3" points="241.17 123.92 400 123.92 400 74.75 328.63 74.75 342.93 51.25 342.97 51.27 372.88 0 315.96 0 302.29 23.43 241.17 123.92"/></g></g></svg>