<svg xmlns="http://www.w3.org/2000/svg" viewBox="0 0 393.59 393.58"><defs><style>.cls-1{fill:#f4a11c;}.cls-2{fill:#ffc708;}.cls-3,.cls-4{fill:#fcee3b;}.cls-4{font-size:45px;font-family:Poppins-Bold, Poppins;font-weight:700;letter-spacing:0.1em;}</style></defs><g id="Layer_2" data-name="Layer 2"><g id="Layer_1-2" data-name="Layer 1"><path class="cls-1" d="M393.59,196.79c0,108.67-88.11,196.79-196.8,196.79S0,305.46,0,196.79C0,87.93,88.29,0,196.79,0S393.59,87.94,393.59,196.79Z"/><path class="cls-2" d="M355.55,196.8A158.76,158.76,0,1,1,196.8,38,158.74,158.74,0,0,1,355.55,196.8Z"/><path class="cls-3" d="M80.73,225.73l.15.6-7.82,14a129.7,129.7,0,0,1-4.2-14.58Z"/><path class="cls-3" d="M294.36,109.22H278.18A119.54,119.54,0,0,0,80.42,169.1H68.58C81.32,110,134,65.63,196.8,65.63A130.85,130.85,0,0,1,294.36,109.22Z"/><path class="cls-3" d="M312.86,225.73h11.87C311.52,284.17,259.17,328,196.8,328a130.81,130.81,0,0,1-96-41.86h16.48a119.54,119.54,0,0,0,195.55-60.36Z"/><path class="cls-3" d="M313.18,169.1q-.68-2.86-1.5-5.68l7.74-13.15A128.44,128.44,0,0,1,325,169.1Z"/><polygon class="cls-3" points="208.58 169.1 195.4 169.1 176.11 134.11 163.9 134.11 143.49 169.1 130.13 169.1 157.27 122.56 182.92 122.56 208.58 169.1"/><polygon class="cls-3" points="141.22 225.73 154.37 225.73 128.62 272.82 69.04 272.82 83.39 249.23 97.1 225.73 110.46 225.73 92.94 255.77 92.93 255.76 89.58 261.28 121.78 261.28 141.22 225.73"/><polygon class="cls-3" points="240.3 225.73 265.99 271.5 209.25 271.5 189.16 232.62 199.42 227.32 216.28 259.95 246.28 259.95 227.07 225.73 240.3 225.73"/><polygon class="cls-3" points="319.15 122.56 292.91 169.1 279.66 169.1 299.39 134.11 206.23 134.11 206.23 122.56 319.15 122.56"/><text class="cls-4" transform="translate(57.45 213.54)">0.04 GAST</text></g></g></svg>