<svg xmlns="http://www.w3.org/2000/svg" viewBox="0 0 1069.98 1069.94"><defs><style>.cls-1{fill:#f4a11c;}.cls-2{fill:#ffc708;}.cls-3{fill:#fcee3b;}</style></defs><g id="Layer_2" data-name="Layer 2"><g id="Layer_1-2" data-name="Layer 1"><path class="cls-1" d="M1070,535c0,295.41-239.55,535-535,535S0,830.39,0,535C0,239,240,0,535,0S1070,239.07,1070,535Z"/><path class="cls-2" d="M974.43,535c0,242.7-196.75,439.38-439.43,439.38S95.55,777.71,95.55,535,292.31,95.55,535,95.55,974.43,292.25,974.43,535Z"/><path class="cls-3" d="M536,367.53a174.42,174.42,0,0,1,150.91,86.63l3.65,6.56h42.87l-12.3-22.05h0A212.13,212.13,0,0,0,323.87,542.24v18.7H496.6v-37.4H362.26C371.62,436,446,367.53,536,367.53Z"/><path class="cls-3" d="M833.84,542.85l-22.93-19.31H573.23v37.4H709.68C700.32,648.51,626,717,536,717a174.52,174.52,0,0,1-154.4-92.87H342.16c.48,1.56,1.24,4,2.29,6.9,26.18,72.9,102.71,104.3,113.72,108.64A212.85,212.85,0,0,0,536,754.34a212.1,212.1,0,0,0,211.28-193.4h50l23.27,19.59C802,721.37,681.21,830.44,535.4,830.44c-158.58,0-287.59-129-287.59-287.59s129-287.59,287.59-287.59c125.8,0,239,84,275.36,204.33h39l-3.28-11.23h0a324.67,324.67,0,1,0-11.59,221c16.95-40.08,24.73-59.29,24.73-103.15Z"/></g></g></svg>