<svg xmlns="http://www.w3.org/2000/svg" viewBox="0 0 1069.98 1069.94"><defs><style>.cls-1{fill:#f4a11c;}.cls-2{fill:#ffc708;}.cls-3{fill:#fcee3b;}</style></defs><g id="Layer_2" data-name="Layer 2"><g id="Layer_1-2" data-name="Layer 1"><path class="cls-1" d="M1070,535c0,295.41-239.55,535-535,535S0,830.39,0,535C0,239,240,0,535,0S1070,239.07,1070,535Z"/><path class="cls-2" d="M974.43,535c0,242.7-196.75,439.38-439.43,439.38S95.55,777.71,95.55,535,292.31,95.55,535,95.55,974.43,292.25,974.43,535Z"/><path class="cls-3" d="M247.76,616.06a296.05,296.05,0,0,1-9.15-73.21c0-163.45,132.93-296.38,296.38-296.38a295.06,295.06,0,0,1,201.65,79.4h40.09c-59.54-66.27-145.87-108-241.74-108-179.22,0-325,145.78-325,325A323.24,323.24,0,0,0,228.4,650.7Z"/><path class="cls-3" d="M838.84,427.59l-19.2,32.58a296,296,0,0,1,11.73,82.68c0,163.42-133,296.38-296.38,296.38A295,295,0,0,1,338,764.12H297.19A324.09,324.09,0,0,0,535,867.84c179.18,0,325-145.81,325-325A322.73,322.73,0,0,0,838.84,427.59Z"/><polygon class="cls-3" points="452.2 573.76 587.1 573.76 657.59 699.37 583.27 699.37 541.49 618.51 516.07 631.65 565.85 727.98 706.45 727.98 619.9 573.76 717.04 573.76 838.16 358.94 558.36 358.94 558.36 387.55 789.19 387.55 700.32 545.15 435.24 545.15 349.11 702.65 269.32 702.65 277.63 688.97 277.66 688.99 453.48 387.55 483.73 387.55 547.27 502.79 572.32 488.98 500.62 358.94 437.04 358.94 253.99 672.79 218.43 731.26 366.07 731.26 452.2 573.76"/></g></g></svg>