<svg xmlns="http://www.w3.org/2000/svg" xmlns:xlink="http://www.w3.org/1999/xlink" viewBox="0 0 1619.74 1214.65"><defs><style>.cls-1{fill:none;}.cls-2{fill:#231f20;}.cls-3{fill:url(#linear-gradient);}.cls-4{fill:url(#linear-gradient-2);}.cls-5{fill:url(#linear-gradient-3);}.cls-6{fill:url(#linear-gradient-4);}.cls-7{fill:url(#linear-gradient-5);}.cls-8{fill:url(#linear-gradient-6);}.cls-9{fill:url(#linear-gradient-7);}.cls-10{fill:url(#linear-gradient-8);}.cls-11{fill:url(#linear-gradient-9);}.cls-12{fill:url(#linear-gradient-10);}.cls-13{fill:url(#linear-gradient-11);}.cls-14{fill:url(#linear-gradient-12);}.cls-15{fill:url(#linear-gradient-13);}.cls-16{fill:url(#linear-gradient-14);}.cls-17{fill:url(#linear-gradient-15);}.cls-18{fill:url(#linear-gradient-16);}.cls-19{fill:url(#linear-gradient-17);}.cls-20{fill:url(#linear-gradient-18);}.cls-21{fill:url(#linear-gradient-19);}.cls-22{fill:url(#linear-gradient-20);}.cls-23{fill:url(#linear-gradient-21);}.cls-24{fill:url(#linear-gradient-22);}.cls-25{fill:url(#linear-gradient-23);}.cls-26{fill:url(#linear-gradient-24);}.cls-27{fill:url(#linear-gradient-25);}.cls-28{fill:url(#linear-gradient-26);}</style><linearGradient id="linear-gradient" x1="269.6" y1="305.31" x2="400" y2="305.31" gradientUnits="userSpaceOnUse"><stop offset="0" stop-color="#69f"/><stop offset="1" stop-color="#c3f"/></linearGradient><linearGradient id="linear-gradient-2" x1="1219.74" y1="890.02" x2="1306.85" y2="890.02" xlink:href="#linear-gradient"/><linearGradient id="linear-gradient-3" x1="376.54" y1="1006.92" y2="1006.92" xlink:href="#linear-gradient"/><linearGradient id="linear-gradient-4" x1="241.17" y1="876.61" y2="876.61" xlink:href="#linear-gradient"/><linearGradient id="linear-gradient-5" x1="406.06" y1="1084.19" x2="806.06" y2="1084.19" xlink:href="#linear-gradient"/><linearGradient id="linear-gradient-6" x1="777.17" y1="842.6" x2="806.06" y2="842.6" xlink:href="#linear-gradient"/><linearGradient id="linear-gradient-7" x1="406.06" y1="876.61" x2="562.7" y2="876.61" xlink:href="#linear-gradient"/><linearGradient id="linear-gradient-8" x1="813.68" y1="1031.33" x2="1213.68" y2="1031.33" xlink:href="#linear-gradient"/><linearGradient id="linear-gradient-9" x1="813.68" y1="873.79" x2="1079.96" y2="873.79" xlink:href="#linear-gradient"/><linearGradient id="linear-gradient-10" x1="226.68" y1="603.72" x2="320" y2="603.72" xlink:href="#linear-gradient"/><linearGradient id="linear-gradient-11" x1="320.23" y1="738.94" y2="738.94" xlink:href="#linear-gradient"/><linearGradient id="linear-gradient-12" x1="510.66" y1="713.01" x2="806.06" y2="713.01" xlink:href="#linear-gradient"/><linearGradient id="linear-gradient-13" x1="406.06" y1="582.53" x2="610.45" y2="582.53" xlink:href="#linear-gradient"/><linearGradient id="linear-gradient-14" x1="752.74" y1="776.06" x2="806.06" y2="776.06" xlink:href="#linear-gradient"/><linearGradient id="linear-gradient-15" x1="729.96" y1="476.33" x2="806.06" y2="476.33" xlink:href="#linear-gradient"/><linearGradient id="linear-gradient-16" x1="813.68" y1="607.32" x2="1213.68" y2="607.32" xlink:href="#linear-gradient"/><linearGradient id="linear-gradient-17" x1="813.68" y1="499.58" x2="849.42" y2="499.58" xlink:href="#linear-gradient"/><linearGradient id="linear-gradient-18" x1="813.68" y1="792.75" x2="828.74" y2="792.75" xlink:href="#linear-gradient"/><linearGradient id="linear-gradient-19" x1="1256.86" y1="611.98" x2="1343.84" y2="611.98" xlink:href="#linear-gradient"/><linearGradient id="linear-gradient-20" x1="1219.74" y1="429.78" x2="1245.07" y2="429.78" xlink:href="#linear-gradient"/><linearGradient id="linear-gradient-21" x1="406.06" y1="165.54" x2="806.06" y2="165.54" xlink:href="#linear-gradient"/><linearGradient id="linear-gradient-22" x1="557.79" y1="349.32" x2="782.07" y2="349.32" xlink:href="#linear-gradient"/><linearGradient id="linear-gradient-23" x1="813.68" y1="149.35" x2="1200.75" y2="149.35" xlink:href="#linear-gradient"/><linearGradient id="linear-gradient-24" x1="825.43" y1="323.23" x2="1213.68" y2="323.23" xlink:href="#linear-gradient"/><linearGradient id="linear-gradient-25" x1="1192.75" y1="381.44" x2="1213.68" y2="381.44" xlink:href="#linear-gradient"/><linearGradient id="linear-gradient-26" x1="1219.74" y1="349.32" x2="1306.35" y2="349.32" xlink:href="#linear-gradient"/></defs><g id="Layer_2" data-name="Layer 2"><g id="Layer_1-2" data-name="Layer 1"><rect class="cls-1" x="400" y="938.57" width="6.06" height="56.48"/><path class="cls-1" d="M806.06,870.55v253.18c2.55-.11,5.08-.23,7.62-.37V885.28Z"/><polygon class="cls-1" points="406.06 814.64 506.65 814.64 510.66 807.32 406.06 807.32 406.06 757.74 400 768.14 400 807.32 377.15 807.32 372.88 814.64 400 814.64 400 889.4 406.06 889.4 406.06 814.64"/><polygon class="cls-1" points="566.7 807.32 562.7 814.64 777.17 814.64 773.39 807.32 566.7 807.32"/><path class="cls-1" d="M406.06,407.32H553.52l4.27-7.32H406.06V274.91q-3.06,3.4-6.06,6.87V400H323.34q-1.69,3.64-3.34,7.32h80V670.55l6.06-10.4Z"/><polygon class="cls-1" points="729.96 407.32 725.92 400 614.72 400 610.45 407.32 729.96 407.32"/><path class="cls-2" d="M400,210.62V0H0V400H269.6A560.87,560.87,0,0,1,400,210.62Z"/><path class="cls-2" d="M400,281.78A511,511,0,0,0,323.34,400H400Z"/><path class="cls-3" d="M400,281.78V210.62A560.87,560.87,0,0,0,269.6,400h53.74A511,511,0,0,1,400,281.78Z"/><path class="cls-2" d="M1219.74,1214.65h400v-400H1306.85a558.79,558.79,0,0,1-87.11,150.74Z"/><path class="cls-2" d="M1219.74,880.42a508.71,508.71,0,0,0,34-65.77h-34Z"/><path class="cls-4" d="M1219.74,880.42v85a558.79,558.79,0,0,0,87.11-150.74h-53.06A508.71,508.71,0,0,1,1219.74,880.42Z"/><polygon class="cls-2" points="372.88 814.64 342.97 865.92 342.93 865.89 328.63 889.4 400 889.4 400 814.64 372.88 814.64"/><path class="cls-2" d="M376.54,995.05H400V938.57H241.17l61.12-100.49L316,814.65H0v400H400V1018.8Q387.92,1007.27,376.54,995.05Z"/><path class="cls-5" d="M376.54,995.05q11.37,12.23,23.46,23.75V995.05Z"/><polygon class="cls-6" points="241.17 938.57 400 938.57 400 889.4 328.63 889.4 342.93 865.89 342.97 865.92 372.88 814.64 315.96 814.64 302.29 838.08 241.17 938.57"/><path class="cls-2" d="M777.17,814.65H562.7L494.93,938.57H406.06v56.48h40.68c90,80.26,208.65,129.1,338.52,129.1q10.46,0,20.8-.42V870.55Z"/><polygon class="cls-2" points="506.65 814.64 406.06 814.64 406.06 889.4 465.77 889.4 506.65 814.64"/><path class="cls-2" d="M406.06,1024.51v190.14h400v-41.71q-10.35.38-20.8.38C639,1173.32,505.7,1116.81,406.06,1024.51Z"/><path class="cls-7" d="M785.26,1124.15c-129.87,0-248.48-48.84-338.52-129.1H406.06v29.46c99.64,92.3,233,148.81,379.2,148.81q10.44,0,20.8-.38v-49.21Q795.71,1124.15,785.26,1124.15Z"/><polygon class="cls-8" points="777.17 814.64 806.07 870.55 806.07 814.64 777.17 814.64"/><polygon class="cls-9" points="465.77 889.4 406.06 889.4 406.06 938.57 494.93 938.57 562.7 814.64 506.65 814.64 465.77 889.4"/><path class="cls-2" d="M813.68,1172.61v42h400V972.75C1116.81,1088.47,974.05,1164.53,813.68,1172.61Z"/><path class="cls-2" d="M1013.58,814.65,1080,932.93H838.3l-24.62-47.65v238.08c167.71-9.27,314.07-100,400-233.3V814.65Z"/><polygon class="cls-2" points="995.98 883.76 957.2 814.64 832.53 814.64 868.24 883.76 995.98 883.76"/><path class="cls-10" d="M813.68,1123.36v49.25c160.37-8.08,303.13-84.14,400-199.86V890.06C1127.75,1023.31,981.39,1114.09,813.68,1123.36Z"/><polygon class="cls-11" points="995.98 883.76 868.24 883.76 832.53 814.64 813.68 814.64 813.68 885.28 838.3 932.93 1079.96 932.93 1013.58 814.64 957.2 814.64 995.98 883.76"/><polygon class="cls-2" points="400 768.14 377.15 807.32 400 807.32 400 768.14"/><path class="cls-2" d="M400,407.32H320a510,510,0,0,0-28.42,333.24l-33.27,59.56a558.87,558.87,0,0,1,8.3-392.8H0v400H320.23L400,670.55Z"/><path class="cls-12" d="M258.31,800.12l33.27-59.56A510,510,0,0,1,320,407.32H266.61a558.87,558.87,0,0,0-8.3,392.8Z"/><polygon class="cls-13" points="400 768.14 400 670.55 320.23 807.32 377.15 807.32 400 768.14"/><polygon class="cls-2" points="566.7 807.32 773.39 807.32 752.74 767.36 796.42 744.79 806.07 763.44 806.07 667.87 642.97 667.87 566.7 807.32"/><polygon class="cls-2" points="406.06 407.32 406.06 660.15 553.52 407.32 406.06 407.32"/><polygon class="cls-2" points="806.07 618.69 806.07 545.34 729.96 407.32 610.45 407.32 406.06 757.74 406.06 807.32 510.66 807.32 613.82 618.69 806.07 618.69"/><polygon class="cls-2" points="806.07 407.32 786.11 407.32 806.07 443.51 806.07 407.32"/><polygon class="cls-14" points="642.97 667.87 806.07 667.87 806.07 618.69 613.82 618.69 510.66 807.32 566.7 807.32 642.97 667.87"/><polygon class="cls-15" points="553.52 407.32 406.06 660.15 406.06 757.74 610.45 407.32 553.52 407.32"/><polygon class="cls-16" points="752.74 767.36 773.39 807.32 806.07 807.32 806.07 763.44 796.42 744.79 752.74 767.36"/><polygon class="cls-17" points="806.07 545.34 806.07 443.51 786.11 407.32 729.96 407.32 806.07 545.34"/><path class="cls-1" d="M1009.47,807.32l4.11,7.33h200.1v75.41q3.08-4.78,6.06-9.64V814.65h34c1-2.44,2.07-4.88,3.07-7.33h-37.12V452.23L1213.68,463V807.32Z"/><path class="cls-1" d="M813.68,106.12c-2.54-.14-5.07-.26-7.62-.36V400h-24l4,7.32h19.95v36.19l7.62,13.81v-50h374.94l4.13-7.32H813.68Z"/><polygon class="cls-1" points="832.53 814.64 957.2 814.64 953.09 807.32 828.74 807.32 832.53 814.64"/><polygon class="cls-1" points="806.07 763.44 813.68 778.17 813.68 667.87 806.07 667.87 806.07 763.44"/><polygon class="cls-1" points="806.07 545.34 806.07 618.69 813.68 618.69 813.68 541.85 806.36 545.88 806.07 545.34"/><polygon class="cls-2" points="813.68 457.32 849.42 522.14 813.68 541.85 813.68 618.69 1069.43 618.69 1188.62 407.32 813.68 407.32 813.68 457.32"/><polygon class="cls-2" points="828.74 807.32 953.09 807.32 874.82 667.87 813.68 667.87 813.68 778.17 828.74 807.32"/><polygon class="cls-2" points="931.2 667.87 1009.47 807.32 1213.68 807.32 1213.68 462.99 1098.15 667.87 931.2 667.87"/><polygon class="cls-18" points="813.68 618.69 813.68 667.87 874.82 667.87 953.09 807.32 1009.47 807.32 931.2 667.87 1098.15 667.87 1213.68 462.99 1213.68 407.32 1188.62 407.32 1069.43 618.69 813.68 618.69"/><polygon class="cls-19" points="849.42 522.14 813.68 457.32 813.68 541.85 849.42 522.14"/><polygon class="cls-20" points="828.74 807.32 813.68 778.17 813.68 807.32 828.74 807.32"/><path class="cls-2" d="M1219.74,807.32h37.12a510,510,0,0,0,17.65-334.68l33-56a558.55,558.55,0,0,1,2.1,390.68h310.13v-400H1245.07l-25.33,44.91Z"/><path class="cls-21" d="M1307.51,416.64l-33,56a510,510,0,0,1-17.65,334.68h52.75a558.55,558.55,0,0,0-2.1-390.68Z"/><polygon class="cls-22" points="1219.74 452.24 1245.07 407.32 1219.74 407.32 1219.74 452.24"/><path class="cls-2" d="M557.79,400l59.12-101.36H726.18L782.07,400h24V105.76q-10.35-.42-20.8-.43c-150.46,0-285.87,65.55-379.2,169.58V400Z"/><path class="cls-2" d="M806.06,56.55V0h-400V204.93c99.67-92.29,233-148.77,379.2-148.77Q795.7,56.16,806.06,56.55Z"/><polygon class="cls-2" points="697.15 347.81 645.15 347.81 614.72 400 725.92 400 697.15 347.81"/><path class="cls-23" d="M785.26,105.33q10.46,0,20.8.43V56.55q-10.35-.37-20.8-.39c-146.24,0-279.53,56.48-379.2,148.77v70C499.39,170.88,634.8,105.33,785.26,105.33Z"/><polygon class="cls-24" points="616.91 298.64 557.79 400 614.72 400 645.15 347.81 697.15 347.81 725.92 400 782.07 400 726.18 298.64 616.91 298.64"/><path class="cls-2" d="M1200.75,241.81h-68.89A507.16,507.16,0,0,0,813.68,106.12V400h379.07l20.93-37.11V347.81H825.43V298.64h388.25V0h-400V56.89C967,64.61,1104.34,134.48,1200.75,241.81Z"/><path class="cls-25" d="M1131.86,241.81h68.89C1104.34,134.48,967,64.61,813.68,56.89v49.23A507.16,507.16,0,0,1,1131.86,241.81Z"/><rect class="cls-26" x="825.43" y="298.64" width="388.25" height="49.17"/><polygon class="cls-27" points="1213.68 400 1213.68 362.89 1192.75 400 1213.68 400"/><polygon class="cls-2" points="1249.19 400 1619.74 400 1619.74 0 1219.74 0 1219.74 298.64 1306.35 298.64 1249.19 400"/><polygon class="cls-2" points="1219.74 347.81 1219.74 352.13 1222.18 347.81 1219.74 347.81"/><polygon class="cls-28" points="1222.18 347.81 1219.74 352.13 1219.74 400 1249.19 400 1306.35 298.64 1219.74 298.64 1219.74 347.81 1222.18 347.81"/></g></g></svg>