<svg xmlns="http://www.w3.org/2000/svg" xmlns:xlink="http://www.w3.org/1999/xlink" viewBox="0 0 2428.73 1260.7"><defs><style>.cls-1{fill:none;}.cls-2{clip-path:url(#clip-path);}.cls-3{fill:#46d8ff;}.cls-4{fill:#24b7fa;}.cls-5{clip-path:url(#clip-path-2);}.cls-6{opacity:0.5;}.cls-10,.cls-11,.cls-12,.cls-13,.cls-14,.cls-15,.cls-16,.cls-17,.cls-18,.cls-19,.cls-20,.cls-7,.cls-8,.cls-9{opacity:0.65;}.cls-7{fill:url(#Degradado_sin_nombre_62);}.cls-8{fill:url(#Degradado_sin_nombre_63);}.cls-9{fill:url(#Degradado_sin_nombre_62-2);}.cls-10{fill:url(#Degradado_sin_nombre_63-2);}.cls-11{fill:url(#Degradado_sin_nombre_62-3);}.cls-12{fill:url(#Degradado_sin_nombre_63-3);}.cls-13{fill:url(#Degradado_sin_nombre_62-4);}.cls-14{fill:url(#Degradado_sin_nombre_63-4);}.cls-15{fill:url(#Degradado_sin_nombre_62-5);}.cls-16{fill:url(#Degradado_sin_nombre_63-5);}.cls-17{fill:url(#Degradado_sin_nombre_62-6);}.cls-18{fill:url(#Degradado_sin_nombre_63-6);}.cls-19{fill:url(#Degradado_sin_nombre_62-7);}.cls-20{fill:url(#Degradado_sin_nombre_63-7);}.cls-21{fill:url(#Nueva_muestra_de_motivo_4);}.cls-22{fill:#fc3;}.cls-23{font-size:249.53px;fill:#f6f6f6;stroke:#ea5455;stroke-miterlimit:10;stroke-width:2px;font-family:Shocked-Up, Shocked Up;letter-spacing:0.01em;}.cls-24{fill:#fff;}</style><clipPath id="clip-path"><rect class="cls-1" width="9.88" height="9.88"/></clipPath><clipPath id="clip-path-2" transform="translate(539.52 192.48)"><rect class="cls-1" width="1349.7" height="899.8"/></clipPath><linearGradient id="Degradado_sin_nombre_62" x1="1214.37" y1="1147.92" x2="1214.37" gradientUnits="userSpaceOnUse"><stop offset="0" stop-color="#46d8ff" stop-opacity="0.5"/><stop offset="0.15" stop-color="#46d8ff" stop-opacity="0.52"/><stop offset="0.34" stop-color="#46d8ff" stop-opacity="0.59"/><stop offset="0.56" stop-color="#46d8ff" stop-opacity="0.7"/><stop offset="0.81" stop-color="#46d8ff" stop-opacity="0.86"/><stop offset="1" stop-color="#46d8ff"/></linearGradient><linearGradient id="Degradado_sin_nombre_63" x1="1214.37" y1="1147.92" x2="1214.37" gradientUnits="userSpaceOnUse"><stop offset="0" stop-color="#79e2ff" stop-opacity="0.5"/><stop offset="0.15" stop-color="#79e2ff" stop-opacity="0.52"/><stop offset="0.34" stop-color="#79e2ff" stop-opacity="0.59"/><stop offset="0.56" stop-color="#79e2ff" stop-opacity="0.7"/><stop offset="0.81" stop-color="#79e2ff" stop-opacity="0.86"/><stop offset="1" stop-color="#79e2ff"/></linearGradient><linearGradient id="Degradado_sin_nombre_62-2" x1="1329.38" y1="1840.38" x2="1329.38" y2="692.46" gradientTransform="matrix(0.94, -0.34, 0.34, 0.94, -728.05, -115.58)" xlink:href="#Degradado_sin_nombre_62"/><linearGradient id="Degradado_sin_nombre_63-2" x1="1329.38" y1="1840.38" x2="1329.38" y2="692.46" gradientTransform="matrix(0.94, -0.34, 0.34, 0.94, -728.05, -115.58)" xlink:href="#Degradado_sin_nombre_63"/><linearGradient id="Degradado_sin_nombre_62-3" x1="1641.23" y1="2896.75" x2="1641.23" y2="1748.79" gradientTransform="matrix(0.77, -0.64, 0.64, 0.77, -2024.65, 27.59)" xlink:href="#Degradado_sin_nombre_62"/><linearGradient id="Degradado_sin_nombre_63-3" x1="1641.23" y1="2896.75" x2="1641.23" y2="1748.79" gradientTransform="matrix(0.77, -0.64, 0.64, 0.77, -2024.65, 27.59)" xlink:href="#Degradado_sin_nombre_63"/><linearGradient id="Degradado_sin_nombre_62-4" x1="1574" y1="3994.92" x2="1574" y2="2846.97" gradientTransform="translate(-3193.71 606.78) rotate(-60)" xlink:href="#Degradado_sin_nombre_62"/><linearGradient id="Degradado_sin_nombre_63-4" x1="1574" y1="3994.92" x2="1574" y2="2846.97" gradientTransform="translate(-3193.71 606.78) rotate(-60)" xlink:href="#Degradado_sin_nombre_63"/><linearGradient id="Degradado_sin_nombre_62-5" x1="-3233.68" y1="179.68" x2="-3233.68" y2="-968.25" gradientTransform="matrix(-0.94, -0.34, -0.34, 0.94, -1699.09, -115.58)" xlink:href="#Degradado_sin_nombre_62"/><linearGradient id="Degradado_sin_nombre_63-5" x1="-3233.68" y1="179.68" x2="-3233.68" y2="-968.25" gradientTransform="matrix(-0.94, -0.34, -0.34, 0.94, -1699.09, -115.58)" xlink:href="#Degradado_sin_nombre_63"/><linearGradient id="Degradado_sin_nombre_62-6" x1="-2078.56" y1="-224.77" x2="-2078.56" y2="-1372.73" gradientTransform="matrix(-0.77, -0.64, -0.64, 0.77, -402.49, 27.59)" xlink:href="#Degradado_sin_nombre_62"/><linearGradient id="Degradado_sin_nombre_63-6" x1="-2078.56" y1="-224.77" x2="-2078.56" y2="-1372.73" gradientTransform="matrix(-0.77, -0.64, -0.64, 0.77, -402.49, 27.59)" xlink:href="#Degradado_sin_nombre_63"/><linearGradient id="Degradado_sin_nombre_62-7" x1="-854.04" y1="-210.45" x2="-854.04" y2="-1358.4" gradientTransform="matrix(-0.5, -0.87, -0.87, 0.5, 766.56, 606.78)" xlink:href="#Degradado_sin_nombre_62"/><linearGradient id="Degradado_sin_nombre_63-7" x1="-854.04" y1="-210.45" x2="-854.04" y2="-1358.4" gradientTransform="matrix(-0.5, -0.87, -0.87, 0.5, 766.56, 606.78)" xlink:href="#Degradado_sin_nombre_63"/><pattern id="Nueva_muestra_de_motivo_4" data-name="Nueva muestra de motivo 4" width="9.88" height="9.88" patternTransform="translate(549.44 202.3)" patternUnits="userSpaceOnUse" viewBox="0 0 9.88 9.88"><rect class="cls-1" width="9.88" height="9.88"/><g class="cls-2"><path class="cls-3" d="M.81,0A.81.81,0,0,1,0,.81.81.81,0,0,1-.81,0,.81.81,0,0,1,0-.81.81.81,0,0,1,.81,0Z"/><path class="cls-3" d="M10.7,0a.82.82,0,0,1-.82.81A.81.81,0,0,1,9.07,0a.81.81,0,0,1,.81-.81A.82.82,0,0,1,10.7,0Z"/><circle class="cls-3" cx="4.94" cy="4.94" r="0.81"/><circle class="cls-3" cy="9.88" r="0.81"/><path class="cls-3" d="M10.7,9.88a.82.82,0,0,1-.82.82.82.82,0,0,1-.81-.82.81.81,0,0,1,.81-.81A.82.82,0,0,1,10.7,9.88Z"/></g></pattern></defs><g id="Layer_2" data-name="Layer 2"><g id="Layer_1-2" data-name="Layer 1"><rect class="cls-4" x="539.52" y="192.48" width="1349.7" height="899.8"/><g class="cls-5"><g class="cls-6"><polygon class="cls-7" points="1236.94 1147.92 1191.79 1147.92 1096.82 0 1331.91 0 1236.94 1147.92"/><polygon class="cls-8" points="1224.35 1147.92 1204.39 1147.92 1168.81 0 1259.92 0 1224.35 1147.92"/><polygon class="cls-9" points="1171.82 1151.45 1129.38 1166.89 647.53 120.67 868.44 40.27 1171.82 1151.45"/><polygon class="cls-10" points="1159.98 1155.76 1141.22 1162.58 715.18 96.05 800.8 64.89 1159.98 1155.76"/><polygon class="cls-11" points="1111.82 1177.03 1077.23 1206.06 266.61 387.74 446.7 236.63 1111.82 1177.03"/><polygon class="cls-12" points="1102.17 1185.13 1086.88 1197.96 321.75 341.46 391.55 282.9 1102.17 1185.13"/><polygon class="cls-13" points="1064.19 1221.59 1041.62 1260.7 0 768.98 117.55 565.38 1064.19 1221.59"/><polygon class="cls-14" points="1057.89 1232.5 1047.91 1249.79 35.99 706.63 81.55 627.73 1057.89 1232.5"/><polygon class="cls-15" points="1256.92 1151.45 1299.35 1166.89 1781.2 120.67 1560.29 40.27 1256.92 1151.45"/><polygon class="cls-16" points="1268.75 1155.76 1287.51 1162.58 1713.55 96.05 1627.93 64.89 1268.75 1155.76"/><polygon class="cls-17" points="1316.91 1177.03 1351.5 1206.06 2162.12 387.74 1982.03 236.63 1316.91 1177.03"/><polygon class="cls-18" points="1326.56 1185.13 1341.85 1197.96 2106.98 341.46 2037.18 282.9 1326.56 1185.13"/><polygon class="cls-19" points="1364.54 1221.59 1387.12 1260.7 2428.73 768.98 2311.19 565.38 1364.54 1221.59"/><polygon class="cls-20" points="1370.84 1232.5 1380.82 1249.79 2392.74 706.63 2347.18 627.73 1370.84 1232.5"/></g></g><rect class="cls-21" x="539.52" y="192.48" width="1349.7" height="899.8"/><rect class="cls-1" x="539.52" y="192.48" width="1349.7" height="899.8"/><path class="cls-22" d="M639.2,348.89H597.34l-17.66,36.86-20.35-36.86h-42.7l39.11,86.58-38.43,80L508.8,348.89H468.58l-7,136.46-48,9.78-7.14-146.24H366L363.23,405l-55.86,11.32-1.17-25,57.09,11.86V348.89H263.71L257.88,466.3l-5.83-117.41H211.57l-3.33,65.29-10,2.06-3.39-67.35H154.41L145,538.51H567.53l15.8-42.09,19.11,42.09h61.82l-57.5-103.67Zm-436,167.86-2.9-57.84h5.8Zm108.12-21.62-1.75-36.22h50.95l-1.31,26.45Z" transform="translate(539.52 192.48)"/><path class="cls-22" d="M1108.61,348.89l-5.83,117.42L1097,348.89h-47.38L1018.93,456,988.3,348.89H939.42L933.59,466.3l-5.82-117.41H887.28L880,493l-2.2.44-7.14-144.53h-40.5L824.3,466.31l-5.83-117.42h-88.6v54.22l46.07-9.36-5.09,101.38-52-10.59v54H989.32l-1.94-39.93,13.34,39.93h36.42l11.6-34.69-1.69,34.69h111.46l-4-79.6h27.1l29-16.57,10.12-93.45Zm42.51,42.43,13.58,2.84,1.45,16.33-13.93,3.93Z" transform="translate(539.52 192.48)"/><text class="cls-23" transform="translate(690.52 722.81)">helix jump</text><path class="cls-24" d="M202.92,68.22a16.37,16.37,0,0,1-15.17-15.17L187,43.69h-1l-.71,9.36a16.37,16.37,0,0,1-15.17,15.17l-9.36.71v1l9.36.71A16.37,16.37,0,0,1,185.3,85.84L186,95.2h1l.71-9.36a16.37,16.37,0,0,1,15.17-15.17l9.36-.71v-1Z" transform="translate(539.52 192.48)"/><path class="cls-24" d="M52.9,442.4a16.38,16.38,0,0,1-15.18-15.17L37,417.88H36l-.71,9.35A16.37,16.37,0,0,1,20.1,442.4l-9.36.72v1l9.36.71A16.39,16.39,0,0,1,35.27,460l.71,9.35h1l.71-9.35A16.4,16.4,0,0,1,52.9,444.85l9.35-.71v-1Z" transform="translate(539.52 192.48)"/><path class="cls-24" d="M1278.54,289.42a16.37,16.37,0,0,1-15.17-15.17l-.72-9.36h-1l-.71,9.36a16.38,16.38,0,0,1-15.18,15.17l-9.35.71v1l9.35.71A16.38,16.38,0,0,1,1260.92,307l.71,9.36h1l.72-9.36a16.37,16.37,0,0,1,15.17-15.17l9.36-.71v-1Z" transform="translate(539.52 192.48)"/><path class="cls-24" d="M852.64,59.43a16.37,16.37,0,0,1-15.17-15.17l-.72-9.36h-1L835,44.26a16.38,16.38,0,0,1-15.18,15.17l-9.35.72v1l9.35.71A16.39,16.39,0,0,1,835,77.06l.71,9.35h1l.72-9.35a16.38,16.38,0,0,1,15.17-15.18l9.36-.71v-1Z" transform="translate(539.52 192.48)"/><path class="cls-24" d="M511.94,195.12a10.44,10.44,0,0,1-9.66-9.66l-.45-6h-.66l-.45,6a10.44,10.44,0,0,1-9.66,9.66l-6,.45v.66l6,.45a10.44,10.44,0,0,1,9.66,9.66l.45,6h.66l.45-6a10.44,10.44,0,0,1,9.66-9.66l6-.45v-.66Z" transform="translate(539.52 192.48)"/><path class="cls-24" d="M1257.88,42.63a10.41,10.41,0,0,1-9.66-9.66l-.46-5.95h-.65l-.45,5.95a10.42,10.42,0,0,1-9.66,9.66l-6,.46v.65l6,.45a10.44,10.44,0,0,1,9.66,9.67l.45,6h.65l.46-6a10.43,10.43,0,0,1,9.66-9.67l6-.45v-.65Z" transform="translate(539.52 192.48)"/><path class="cls-24" d="M283.1,616.86a10.41,10.41,0,0,1-9.66-9.66l-.46-6h-.65l-.45,6a10.42,10.42,0,0,1-9.67,9.66l-5.95.46V618l5.95.45a10.44,10.44,0,0,1,9.67,9.67l.45,5.95H273l.46-5.95a10.43,10.43,0,0,1,9.66-9.67l5.95-.45v-.65Z" transform="translate(539.52 192.48)"/><path class="cls-24" d="M1064.78,154.86a10.44,10.44,0,0,1-9.66-9.66l-.45-6H1054l-.45,6a10.44,10.44,0,0,1-9.66,9.66l-6,.45V156l6,.45a10.44,10.44,0,0,1,9.66,9.66l.45,6h.66l.45-6a10.44,10.44,0,0,1,9.66-9.66l6-.45v-.66Z" transform="translate(539.52 192.48)"/><path class="cls-24" d="M152.88,113.48a6.21,6.21,0,0,1-5.75-5.74l-.27-3.62h-.65l-.28,3.62a6.19,6.19,0,0,1-5.74,5.74l-3.62.28v.65l3.62.27a6.2,6.2,0,0,1,5.74,5.75l.28,3.61h.65l.27-3.61a6.22,6.22,0,0,1,5.75-5.75l3.61-.27v-.65Z" transform="translate(539.52 192.48)"/><path class="cls-24" d="M1245.81,547.51a6.22,6.22,0,0,1-5.75-5.75l-.27-3.61h-.65l-.28,3.61a6.21,6.21,0,0,1-5.74,5.75l-3.62.27v.65l3.62.28a6.19,6.19,0,0,1,5.74,5.74l.28,3.62h.65l.27-3.62a6.2,6.2,0,0,1,5.75-5.74l3.61-.28v-.65Z" transform="translate(539.52 192.48)"/><path class="cls-24" d="M338.89,228.19a6.19,6.19,0,0,1-5.74-5.74l-.28-3.62h-.65l-.27,3.62a6.2,6.2,0,0,1-5.75,5.74l-3.61.28v.65l3.61.28a6.2,6.2,0,0,1,5.75,5.74l.27,3.61h.65l.28-3.61a6.19,6.19,0,0,1,5.74-5.74l3.62-.28v-.65Z" transform="translate(539.52 192.48)"/><path class="cls-24" d="M588.65,244.16a4.86,4.86,0,0,1-4.5-4.5l-.21-2.83h-.51l-.22,2.83a4.85,4.85,0,0,1-4.5,4.5l-2.83.21v.51l2.83.22a4.85,4.85,0,0,1,4.5,4.5l.22,2.83h.51l.21-2.83a4.86,4.86,0,0,1,4.5-4.5l2.83-.22v-.51Z" transform="translate(539.52 192.48)"/><path class="cls-24" d="M1147.22,325.72a4.86,4.86,0,0,1-4.5-4.5l-.22-2.83H1142l-.21,2.83a4.86,4.86,0,0,1-4.5,4.5l-2.83.22v.51l2.83.21a4.86,4.86,0,0,1,4.5,4.5L1142,334h.51l.22-2.83a4.86,4.86,0,0,1,4.5-4.5l2.83-.21v-.51Z" transform="translate(539.52 192.48)"/><path class="cls-24" d="M455.28,471.85a3.09,3.09,0,0,1-2.86-2.87l-.14-1.8H452l-.14,1.8a3.09,3.09,0,0,1-2.87,2.87l-1.8.14v.32l1.8.14a3.09,3.09,0,0,1,2.87,2.87l.14,1.8h.32l.14-1.8a3.09,3.09,0,0,1,2.86-2.87l1.81-.14V472Z" transform="translate(539.52 192.48)"/><path class="cls-24" d="M895.94,332.81a3.09,3.09,0,0,1-2.87-2.86l-.14-1.8h-.32l-.14,1.8a3.08,3.08,0,0,1-2.86,2.86l-1.81.14v.33l1.81.13a3.1,3.1,0,0,1,2.86,2.87l.14,1.8h.32l.14-1.8a3.1,3.1,0,0,1,2.87-2.87l1.8-.13V333Z" transform="translate(539.52 192.48)"/><path class="cls-24" d="M1075.68,122.88a3.08,3.08,0,0,1-2.86-2.86l-.14-1.81h-.32l-.14,1.81a3.09,3.09,0,0,1-2.87,2.86l-1.8.14v.33l1.8.13a3.1,3.1,0,0,1,2.87,2.87l.14,1.8h.32l.14-1.8a3.09,3.09,0,0,1,2.86-2.87l1.81-.13V123Z" transform="translate(539.52 192.48)"/><path class="cls-24" d="M99.88,41A3.1,3.1,0,0,1,97,38.1l-.14-1.8h-.32l-.14,1.8A3.1,3.1,0,0,1,93.55,41l-1.8.13v.33l1.8.14a3.09,3.09,0,0,1,2.87,2.86l.14,1.81h.32L97,44.43a3.08,3.08,0,0,1,2.86-2.86l1.81-.14V41.1Z" transform="translate(539.52 192.48)"/><path class="cls-24" d="M741.94,145.54a3.09,3.09,0,0,1-2.87-2.87l-.14-1.8h-.32l-.14,1.8a3.09,3.09,0,0,1-2.86,2.87l-1.81.14V146l1.81.14a3.08,3.08,0,0,1,2.86,2.86l.14,1.81h.32l.14-1.81a3.09,3.09,0,0,1,2.87-2.86l1.8-.14v-.32Z" transform="translate(539.52 192.48)"/><path class="cls-24" d="M524.35,166.87a3.09,3.09,0,0,1-2.86-2.87l-.14-1.8H521l-.13,1.8a3.1,3.1,0,0,1-2.87,2.87l-1.8.14v.32l1.8.14a3.1,3.1,0,0,1,2.87,2.86l.13,1.81h.33l.14-1.81a3.08,3.08,0,0,1,2.86-2.86l1.8-.14V167Z" transform="translate(539.52 192.48)"/><path class="cls-24" d="M1043.43,444.47a10.44,10.44,0,0,1-9.66-9.66l-.45-6h-.65l-.46,6a10.43,10.43,0,0,1-9.66,9.66l-6,.45v.65l6,.46a10.42,10.42,0,0,1,9.66,9.66l.46,6h.65l.45-6a10.43,10.43,0,0,1,9.66-9.66l6-.46v-.65Z" transform="translate(539.52 192.48)"/><path class="cls-24" d="M1120.14,493.51a4.87,4.87,0,0,1-4.5-4.5l-.21-2.83h-.51l-.22,2.83a4.85,4.85,0,0,1-4.49,4.5l-2.83.21v.51l2.83.22a4.84,4.84,0,0,1,4.49,4.5l.22,2.83h.51l.21-2.83a4.86,4.86,0,0,1,4.5-4.5l2.83-.22v-.51Z" transform="translate(539.52 192.48)"/><path class="cls-24" d="M1055.84,416.22a3.1,3.1,0,0,1-2.86-2.87l-.14-1.8h-.32l-.14,1.8a3.1,3.1,0,0,1-2.87,2.87l-1.8.13v.33l1.8.14a3.09,3.09,0,0,1,2.87,2.86l.14,1.8h.32l.14-1.8a3.08,3.08,0,0,1,2.86-2.86l1.81-.14v-.33Z" transform="translate(539.52 192.48)"/><path class="cls-24" d="M1238.29,708.74a3.09,3.09,0,0,1-2.87-2.87l-.14-1.8H1235l-.14,1.8a3.09,3.09,0,0,1-2.86,2.87l-1.81.14v.32l1.81.14a3.09,3.09,0,0,1,2.86,2.87l.14,1.8h.32l.14-1.8a3.09,3.09,0,0,1,2.87-2.87l1.8-.14v-.32Z" transform="translate(539.52 192.48)"/><path class="cls-24" d="M641.18,54.37a4.84,4.84,0,0,1-4.49-4.5L636.47,47H636l-.21,2.83a4.86,4.86,0,0,1-4.5,4.5l-2.83.22v.51l2.83.21a4.87,4.87,0,0,1,4.5,4.5l.21,2.83h.51l.22-2.83a4.85,4.85,0,0,1,4.49-4.5L644,55.1v-.51Z" transform="translate(539.52 192.48)"/><path class="cls-24" d="M183.61,731.34a4.84,4.84,0,0,1-4.49-4.5L178.9,724h-.51l-.21,2.83a4.86,4.86,0,0,1-4.5,4.5l-2.83.22v.51l2.83.21a4.87,4.87,0,0,1,4.5,4.5l.21,2.83h.51l.22-2.83a4.85,4.85,0,0,1,4.49-4.5l2.83-.21v-.51Z" transform="translate(539.52 192.48)"/><path class="cls-24" d="M280.68,372.2a4.84,4.84,0,0,1-4.49-4.5l-.22-2.83h-.51l-.21,2.83a4.86,4.86,0,0,1-4.5,4.5l-2.83.22v.51l2.83.21a4.87,4.87,0,0,1,4.5,4.5l.21,2.83H276l.22-2.83a4.85,4.85,0,0,1,4.49-4.5l2.83-.21v-.51Z" transform="translate(539.52 192.48)"/><path class="cls-24" d="M69.4,485.25a4.85,4.85,0,0,1-4.49-4.5l-.22-2.83h-.51L64,480.75a4.85,4.85,0,0,1-4.49,4.5l-2.83.21V486l2.83.22a4.84,4.84,0,0,1,4.49,4.5l.22,2.83h.51l.22-2.83a4.84,4.84,0,0,1,4.49-4.5l2.83-.22v-.51Z" transform="translate(539.52 192.48)"/><path class="cls-24" d="M1318.3,111.26a4.87,4.87,0,0,1-4.5-4.5l-.21-2.83h-.51l-.22,2.83a4.86,4.86,0,0,1-4.5,4.5l-2.83.21V112l2.83.22a4.84,4.84,0,0,1,4.5,4.5l.22,2.83h.51l.21-2.83a4.86,4.86,0,0,1,4.5-4.5l2.83-.22v-.51Z" transform="translate(539.52 192.48)"/><path class="cls-24" d="M426.79,83.05a4.86,4.86,0,0,1-4.5-4.5l-.21-2.83h-.51l-.22,2.83a4.85,4.85,0,0,1-4.5,4.5l-2.83.22v.51l2.83.21a4.86,4.86,0,0,1,4.5,4.5l.22,2.83h.51l.21-2.83a4.87,4.87,0,0,1,4.5-4.5l2.83-.21v-.51Z" transform="translate(539.52 192.48)"/></g></g></svg>