<svg xmlns="http://www.w3.org/2000/svg" viewBox="0 0 136.65 136.65"><defs><style>.cls-1{fill:#fff;}</style></defs><g id="Layer_2" data-name="Layer 2"><g id="Layer_1-2" data-name="Layer 1"><path class="cls-1" d="M88.21,3v9A59.78,59.78,0,0,1,68.32,128.11c-1.29,0-2.58,0-3.86-.13V23.13l-4.54.29c-2.53.16-25.12,2.15-36.69,22.14C14,61.55,16,82.37,28.14,97.37L34.77,92A39.24,39.24,0,0,1,26.33,72.6H55.92v37.8h0v25.12A68.33,68.33,0,0,0,88.21,3ZM55.92,64.06H26.14a34.85,34.85,0,0,1,4.49-14.22C37.44,38.06,49.4,34,55.92,32.62Zm63.67,8.54L119.21,68A50.48,50.48,0,0,0,110.5,43.4c-9.61-13.83-23.6-18.77-30.83-20.46V.94A68.33,68.33,0,0,0,47.39,133.37v-9A59.79,59.79,0,0,1,68.32,8.54c1,0,1.88,0,2.81.07V110.34h8.54V72.6h3.14l24.42,24.76,6.08-6L94.81,72.6ZM79.67,64.06V31.75a43,43,0,0,1,23.81,16.52,41.26,41.26,0,0,1,6.59,15.79Z"/></g></g></svg>