<svg xmlns="http://www.w3.org/2000/svg" xmlns:xlink="http://www.w3.org/1999/xlink" viewBox="0 0 132.43 132.43"><defs><style>.cls-1{fill:url(#linear-gradient);}.cls-2{fill:url(#linear-gradient-2);}.cls-3{fill:url(#linear-gradient-3);}</style><linearGradient id="linear-gradient" y1="44.1" x2="115.47" y2="44.1" gradientUnits="userSpaceOnUse"><stop offset="0" stop-color="#69f"/><stop offset="1" stop-color="#c3f"/></linearGradient><linearGradient id="linear-gradient-2" x1="17.77" y1="87.58" x2="132.43" y2="87.58" xlink:href="#linear-gradient"/><linearGradient id="linear-gradient-3" x1="1.72" y1="66.67" x2="127.99" y2="66.67" xlink:href="#linear-gradient"/></defs><g id="Layer_2" data-name="Layer 2"><g id="Layer_1-2" data-name="Layer 1"><path class="cls-1" d="M7.69,81.13A60.36,60.36,0,0,1,107.3,22h8.17A66.2,66.2,0,0,0,3.75,88.19Z"/><path class="cls-2" d="M128.13,42.73l-3.92,6.64A60.36,60.36,0,0,1,26.09,111.3H17.77A66.2,66.2,0,0,0,128.13,42.73Z"/><polygon class="cls-3" points="49.35 72.51 76.83 72.51 91.2 98.11 76.05 98.11 67.54 81.63 62.36 84.31 72.5 103.94 101.15 103.94 83.52 72.51 103.31 72.51 127.99 28.75 70.98 28.75 70.98 34.57 118.01 34.57 99.9 66.69 45.89 66.69 28.34 98.78 12.09 98.78 13.78 95.99 13.79 95.99 49.61 34.57 55.77 34.57 68.72 58.05 73.82 55.24 59.21 28.75 46.26 28.75 8.96 92.69 1.72 104.61 31.8 104.61 49.35 72.51"/></g></g></svg>