<svg xmlns="http://www.w3.org/2000/svg" viewBox="0 0 132.43 132.43"><defs><style>.cls-1{fill:#fff;}</style></defs><g id="Layer_2" data-name="Layer 2"><g id="Layer_1-2" data-name="Layer 1"><path class="cls-1" d="M7.69,81.13A60.36,60.36,0,0,1,107.3,22h8.17A66.2,66.2,0,0,0,3.75,88.19Z"/><path class="cls-1" d="M128.13,42.73l-3.92,6.64A60.36,60.36,0,0,1,26.09,111.3H17.77A66.2,66.2,0,0,0,128.13,42.73Z"/><polygon class="cls-1" points="49.35 72.51 76.83 72.51 91.2 98.11 76.05 98.11 67.54 81.63 62.36 84.31 72.5 103.94 101.15 103.94 83.52 72.51 103.31 72.51 127.99 28.75 70.98 28.75 70.98 34.57 118.01 34.57 99.9 66.69 45.89 66.69 28.34 98.78 12.09 98.78 13.78 95.99 13.79 95.99 49.61 34.57 55.77 34.57 68.72 58.05 73.82 55.24 59.21 28.75 46.26 28.75 8.96 92.69 1.72 104.61 31.8 104.61 49.35 72.51"/></g></g></svg>