<svg xmlns="http://www.w3.org/2000/svg" xmlns:xlink="http://www.w3.org/1999/xlink" viewBox="0 0 125.2 85.83"><defs><style>.cls-1{fill:url(#linear-gradient);}.cls-2{fill:url(#linear-gradient-2);}</style><linearGradient id="linear-gradient" x1="66.94" y1="76.5" x2="95.56" y2="76.5" gradientUnits="userSpaceOnUse"><stop offset="0" stop-color="#69f"/><stop offset="1" stop-color="#c3f"/></linearGradient><linearGradient id="linear-gradient-2" x1="0" y1="42.92" x2="125.2" y2="42.92" xlink:href="#linear-gradient"/></defs><g id="Layer_2" data-name="Layer 2"><g id="Layer_1-2" data-name="Layer 1"><polygon class="cls-1" points="66.94 67.17 75.16 85.83 95.56 85.83 87.4 67.17 66.94 67.17"/><path class="cls-2" d="M111.94,55.31a31.48,31.48,0,0,0,10-34.47A30.84,30.84,0,0,0,112.87,7.5,31.41,31.41,0,0,0,92.38,0H64.18l8,19H92.73A12.57,12.57,0,0,1,100,21.21a11.92,11.92,0,0,1,5.14,8.63A12.38,12.38,0,0,1,93.9,42.92H39.3l8.48-19.24,6,13.74H74.4L58,0H37.51L0,85.83H20.4L31,61.7H93.5l11.2,24.13h20.5Z"/></g></g></svg>