<svg xmlns="http://www.w3.org/2000/svg" xmlns:xlink="http://www.w3.org/1999/xlink" viewBox="0 0 400 400"><defs><style>.cls-1{fill:#231f20;}.cls-2{fill:url(#linear-gradient);}.cls-3{fill:url(#linear-gradient-2);}</style><linearGradient id="linear-gradient" y1="101.56" x2="339.61" y2="101.56" gradientUnits="userSpaceOnUse"><stop offset="0" stop-color="#69f"/><stop offset="1" stop-color="#c3f"/></linearGradient><linearGradient id="linear-gradient-2" x1="355.43" y1="6.28" x2="400" y2="6.28" xlink:href="#linear-gradient"/></defs><g id="Layer_2" data-name="Layer 2"><g id="Layer_1-2" data-name="Layer 1"><path class="cls-1" d="M0,101.67A849.35,849.35,0,0,1,258.83,145l10.61-11.12L135.7,0H0Z"/><path class="cls-1" d="M206.69,0,339.61,133.1l-66.73,70-15.33-5.43A799,799,0,0,0,0,151.91V400H400V12.57Q377.79,5.91,355.43,0Z"/><path class="cls-2" d="M272.88,203.12l66.73-70L206.69,0h-71L269.44,133.92,258.83,145A849.35,849.35,0,0,0,0,101.67v50.24a799,799,0,0,1,257.55,45.78Z"/><path class="cls-3" d="M355.43,0Q377.79,5.91,400,12.57V0Z"/></g></g></svg>