<svg xmlns="http://www.w3.org/2000/svg" xmlns:xlink="http://www.w3.org/1999/xlink" viewBox="0 0 21.13 36.98"><defs><style>.cls-1{fill:url(#linear-gradient);}.cls-2{fill:url(#radial-gradient);}</style><linearGradient id="linear-gradient" x1="4.08" y1="34.7" x2="17.04" y2="2.29" gradientUnits="userSpaceOnUse"><stop offset="0" stop-color="#e8eff2"/><stop offset="1" stop-color="#fff"/></linearGradient><radialGradient id="radial-gradient" cx="12.35" cy="17.12" r="41.69" gradientUnits="userSpaceOnUse"><stop offset="0" stop-color="#f4f6f7"/><stop offset="1" stop-color="#e8eff2"/></radialGradient></defs><title>piece5</title><g id="Layer_2" data-name="Layer 2"><g id="Ñëîé_1" data-name="Ñëîé 1"><path class="cls-1" d="M10.57,37a2.82,2.82,0,0,1-3.11-2.85,3,3,0,0,1,.88-2.05L8.43,32A2.26,2.26,0,0,0,9,30.52a1.44,1.44,0,0,0-1.24-1.44H0V7.91H7.73A1.48,1.48,0,0,0,9,6.45a2.21,2.21,0,0,0-.58-1.39l-.11-.14a3.13,3.13,0,0,1-.91-2.07A3,3,0,0,1,10.55,0a2.82,2.82,0,0,1,3.11,2.85,3,3,0,0,1-.91,2.07L12.66,5A2.31,2.31,0,0,0,12,6.49a1.42,1.42,0,0,0,1.23,1.42h7.86v7.81h0a.51.51,0,0,1-.52.42,1.48,1.48,0,0,1-.89-.42l-.11-.09A3.88,3.88,0,0,0,17,14.52a3.75,3.75,0,0,0-3.74,4,3.83,3.83,0,0,0,3.73,4,4,4,0,0,0,2.63-1.11l.14-.12a1.53,1.53,0,0,1,.85-.4.56.56,0,0,1,.57.51h0l0,7.66H13.39a1.46,1.46,0,0,0-1.28,1.46,2.24,2.24,0,0,0,.57,1.39l.11.13a3.13,3.13,0,0,1,.91,2.07A3,3,0,0,1,10.57,37Z"/><path class="cls-2" d="M10.57,36.83a2.68,2.68,0,0,1-3-2.7,2.89,2.89,0,0,1,.84-2l.09-.11a2.38,2.38,0,0,0,.64-1.55,1.59,1.59,0,0,0-1.37-1.59H.15V8.06h7.6A1.61,1.61,0,0,0,9.16,6.45,2.37,2.37,0,0,0,8.55,5l-.11-.14a3,3,0,0,1-.87-2,2.81,2.81,0,0,1,3-2.7,2.69,2.69,0,0,1,3,2.7,2.93,2.93,0,0,1-.87,2l-.09.11a2.4,2.4,0,0,0-.67,1.56,1.57,1.57,0,0,0,1.36,1.57H21V15.7a.35.35,0,0,1-.37.3,1.31,1.31,0,0,1-.79-.39l-.11-.09A4.06,4.06,0,0,0,17,14.37a3.9,3.9,0,0,0-3.9,4.16,4,4,0,0,0,3.89,4.14,4.12,4.12,0,0,0,2.73-1.15l.14-.12a1.34,1.34,0,0,1,.75-.36.42.42,0,0,1,.42.38l0,7.5h-7.6A1.6,1.6,0,0,0,12,30.54a2.35,2.35,0,0,0,.6,1.48l.11.14a3,3,0,0,1,.88,2A2.82,2.82,0,0,1,10.57,36.83Z"/></g></g></svg>