<svg xmlns="http://www.w3.org/2000/svg" xmlns:xlink="http://www.w3.org/1999/xlink" viewBox="0 0 21.17 36.93"><defs><style>.cls-1{fill:url(#linear-gradient);}.cls-2{fill:url(#radial-gradient);}</style><linearGradient id="linear-gradient" x1="4.12" y1="34.63" x2="17.06" y2="2.29" gradientUnits="userSpaceOnUse"><stop offset="0" stop-color="#e8eff2"/><stop offset="1" stop-color="#fff"/></linearGradient><radialGradient id="radial-gradient" cx="11.55" cy="17.5" r="41.03" gradientUnits="userSpaceOnUse"><stop offset="0" stop-color="#f4f6f7"/><stop offset="1" stop-color="#e8eff2"/></radialGradient></defs><title>piece7</title><g id="Layer_2" data-name="Layer 2"><g id="Ñëîé_1" data-name="Ñëîé 1"><path class="cls-1" d="M10.56,36.93a3,3,0,0,1-3.13-2.86A3.08,3.08,0,0,1,8.34,32l.1-.13A2.16,2.16,0,0,0,9,30.48,1.4,1.4,0,0,0,7.71,29H0v-7.7H0a.56.56,0,0,1,.54-.49,1.59,1.59,0,0,1,.86.4l.12.11a4,4,0,0,0,2.65,1.11,3.77,3.77,0,0,0,3.74-4,3.69,3.69,0,0,0-3.75-4,3.9,3.9,0,0,0-2.64,1.12l-.11.09a1.51,1.51,0,0,1-.89.42A.51.51,0,0,1,0,15.75V7.91H7.77A1.44,1.44,0,0,0,9,6.45a2.2,2.2,0,0,0-.57-1.39l-.11-.14a3.13,3.13,0,0,1-.91-2.07A3,3,0,0,1,10.56,0a2.82,2.82,0,0,1,3.11,2.85,3.06,3.06,0,0,1-.9,2.07L12.68,5a2.25,2.25,0,0,0-.63,1.46A1.4,1.4,0,0,0,13.24,7.9h7.92v7.8a.51.51,0,0,1-.53.41,1.51,1.51,0,0,1-.89-.42l-.1-.09A3.93,3.93,0,0,0,17,14.48a3.76,3.76,0,0,0-3.76,4,3.86,3.86,0,0,0,3.76,4,4,4,0,0,0,2.65-1.11l.13-.11a1.38,1.38,0,0,1,.82-.37.55.55,0,0,1,.57.46V29H13.31A1.34,1.34,0,0,0,12,30.44a2.33,2.33,0,0,0,.63,1.46l.09.1a3,3,0,0,1,.91,2.07A2.83,2.83,0,0,1,10.56,36.93Z"/><path class="cls-2" d="M10.56,36.77a2.81,2.81,0,0,1-3-2.7,3,3,0,0,1,.87-2L8.56,32a2.36,2.36,0,0,0,.61-1.49,1.54,1.54,0,0,0-1.46-1.61H.15V21.34A.42.42,0,0,1,.56,21a1.45,1.45,0,0,1,.76.37l.13.11A4.1,4.1,0,0,0,4.19,22.6a3.93,3.93,0,0,0,3.9-4.12,3.85,3.85,0,0,0-3.91-4.12,4.06,4.06,0,0,0-2.74,1.15l-.11.09A1.34,1.34,0,0,1,.54,16a.36.36,0,0,1-.38-.28V8.06H7.79a1.59,1.59,0,0,0,1.38-1.6A2.36,2.36,0,0,0,8.57,5l-.11-.13a3,3,0,0,1-.88-2,2.82,2.82,0,0,1,3-2.7,2.68,2.68,0,0,1,3,2.7,2.91,2.91,0,0,1-.87,2l-.09.11a2.45,2.45,0,0,0-.67,1.56,1.55,1.55,0,0,0,1.32,1.56H21v7.61a.37.37,0,0,1-.39.3,1.37,1.37,0,0,1-.79-.39l-.1-.09A4.08,4.08,0,0,0,17,14.33a3.9,3.9,0,0,0-3.91,4.16A4,4,0,0,0,17,22.66a4.1,4.1,0,0,0,2.74-1.15l.13-.1a1.25,1.25,0,0,1,.73-.34.42.42,0,0,1,.43.34v7.46H13.31a1.48,1.48,0,0,0-1.42,1.57A2.45,2.45,0,0,0,12.56,32l.09.1a2.93,2.93,0,0,1,.87,2A2.68,2.68,0,0,1,10.56,36.77Z"/></g></g></svg>