<svg xmlns="http://www.w3.org/2000/svg" xmlns:xlink="http://www.w3.org/1999/xlink" viewBox="0 0 1619.74 1621.97"><defs><style>.cls-1{fill:none;}.cls-2{fill:#231f20;}.cls-3{fill:url(#linear-gradient);}.cls-4{fill:url(#linear-gradient-2);}.cls-5{fill:url(#linear-gradient-3);}.cls-6{fill:url(#linear-gradient-4);}.cls-7{fill:url(#linear-gradient-5);}.cls-8{fill:url(#linear-gradient-6);}.cls-9{fill:url(#linear-gradient-7);}.cls-10{fill:url(#linear-gradient-8);}.cls-11{fill:url(#linear-gradient-9);}.cls-12{fill:url(#linear-gradient-10);}.cls-13{fill:url(#linear-gradient-11);}.cls-14{fill:url(#linear-gradient-12);}.cls-15{fill:url(#linear-gradient-13);}.cls-16{fill:url(#linear-gradient-14);}.cls-17{fill:url(#linear-gradient-15);}.cls-18{fill:url(#linear-gradient-16);}.cls-19{fill:url(#linear-gradient-17);}.cls-20{fill:url(#linear-gradient-18);}.cls-21{fill:url(#linear-gradient-19);}.cls-22{fill:url(#linear-gradient-20);}</style><linearGradient id="linear-gradient" x1="273.17" y1="1241.79" x2="400" y2="1241.79" gradientUnits="userSpaceOnUse"><stop offset="0" stop-color="#69f"/><stop offset="1" stop-color="#c3f"/></linearGradient><linearGradient id="linear-gradient-2" x1="453.99" y1="1323.45" x2="806.06" y2="1323.45" xlink:href="#linear-gradient"/><linearGradient id="linear-gradient-3" x1="406.06" y1="1226.57" x2="439.25" y2="1226.57" xlink:href="#linear-gradient"/><linearGradient id="linear-gradient-4" x1="813.68" y1="1323.53" x2="1153.29" y2="1323.53" xlink:href="#linear-gradient"/><linearGradient id="linear-gradient-5" x1="1169.1" y1="1228.25" x2="1213.68" y2="1228.25" xlink:href="#linear-gradient"/><linearGradient id="linear-gradient-6" x1="1219.74" y1="1241.86" x2="1333.83" y2="1241.86" xlink:href="#linear-gradient"/><linearGradient id="linear-gradient-7" x1="42.81" y1="1014.65" y2="1014.65" xlink:href="#linear-gradient"/><linearGradient id="linear-gradient-8" x1="406.06" y1="930.73" x2="641.87" y2="930.73" xlink:href="#linear-gradient"/><linearGradient id="linear-gradient-9" x1="406.06" y1="1113.78" x2="806.06" y2="1113.78" xlink:href="#linear-gradient"/><linearGradient id="linear-gradient-10" x1="813.68" y1="1113.59" x2="1213.68" y2="1113.59" xlink:href="#linear-gradient"/><linearGradient id="linear-gradient-11" x1="42.81" y1="934.1" x2="1564.46" y2="934.1" xlink:href="#linear-gradient"/><linearGradient id="linear-gradient-12" x1="1219.74" y1="1014.65" x2="1564.46" y2="1014.65" xlink:href="#linear-gradient"/><linearGradient id="linear-gradient-13" x1="191.79" y1="704.57" y2="704.57" xlink:href="#linear-gradient"/><linearGradient id="linear-gradient-14" x1="577.72" y1="694.91" x2="806.06" y2="694.91" xlink:href="#linear-gradient"/><linearGradient id="linear-gradient-15" x1="406.06" y1="537.26" x2="670.01" y2="537.26" xlink:href="#linear-gradient"/><linearGradient id="linear-gradient-16" x1="813.68" y1="694.63" x2="1038.75" y2="694.63" xlink:href="#linear-gradient"/><linearGradient id="linear-gradient-17" x1="951.2" y1="538.74" x2="1213.68" y2="538.74" xlink:href="#linear-gradient"/><linearGradient id="linear-gradient-18" x1="1219.74" y1="706.68" x2="1421.27" y2="706.68" xlink:href="#linear-gradient"/><linearGradient id="linear-gradient-19" x1="604.46" y1="300.51" x2="806.06" y2="300.51" xlink:href="#linear-gradient"/><linearGradient id="linear-gradient-20" x1="813.68" y1="300.22" x2="1013.47" y2="300.22" xlink:href="#linear-gradient"/></defs><g id="Layer_2" data-name="Layer 2"><g id="Layer_1-2" data-name="Layer 1"><path class="cls-1" d="M468.18,1214.65q-14.49,3.51-28.93,7.32H591.1l7.44-7.32Z"/><path class="cls-1" d="M1020.36,1222H1169.1q-14.41-3.83-28.9-7.32H1013.05Z"/><path class="cls-1" d="M1213.68,807.32H1038.75l7.32,7.33h167.61V953.83l6.06,1.33V814.65H1358l-7.31-7.33H1219.74V676.24l-6.06-6.08Z"/><path class="cls-1" d="M1213.68,1182.18l6.06,1.76V1059.63l-6.06-6.07Z"/><path class="cls-1" d="M813.68,1214.65V1086.09l-6.43-6.44-1.19,1.16v133.84H670.13l-7.44,7.32H806.06v101.62c2.54,0,5.08,0,7.62.05V1222H949.37l-7.31-7.32Z"/><polygon class="cls-1" points="813.68 807.32 813.68 653.01 809.88 649.22 806.07 652.98 806.07 807.32 649.31 807.32 641.87 814.65 806.07 814.65 806.07 1012.92 810.19 1008.96 813.68 1012.53 813.68 814.65 975.09 814.65 967.77 807.32 813.68 807.32"/><path class="cls-1" d="M406.06,814.65H570.29l7.43-7.33H406.06V667.2l-6.06,6V807.32H263.75l-7.44,7.33H400V952.73l6.06-1.3Z"/><polygon class="cls-1" points="806.07 582.49 810.19 578.43 813.68 581.93 813.68 407.32 951.2 407.32 943.88 400 813.68 400 813.68 269.62 811.79 267.73 806.07 273.37 806.07 400 677.45 400 670.01 407.32 806.07 407.32 806.07 582.49"/><rect class="cls-2" width="400" height="400"/><rect class="cls-2" x="1219.74" width="400" height="400"/><path class="cls-2" d="M312.83,1261.62,273.17,1222H0v400H400V1233q-36.36,10.72-72.24,23.4Z"/><path class="cls-3" d="M273.17,1222l39.66,39.65,14.93-5.27q35.88-12.67,72.24-23.4v-11Z"/><path class="cls-2" d="M796.67,1373.85a800.38,800.38,0,0,0-259.78,45.81L522,1424.93l-68-68L591.1,1222H439.25q-16.63,4.4-33.19,9.21V1622h400V1373.82Q801.38,1373.8,796.67,1373.85Z"/><path class="cls-2" d="M662.69,1222,525.3,1357.24l9.89,9.91a849.56,849.56,0,0,1,261-43.52c3.29,0,6.57,0,9.85,0V1222Z"/><path class="cls-4" d="M796.21,1323.63a849.56,849.56,0,0,0-261,43.52l-9.89-9.91L662.69,1222H591.1L454,1357l68,68,14.93-5.27a800.38,800.38,0,0,1,259.78-45.81q4.71,0,9.39,0v-50.23C802.78,1323.59,799.5,1323.59,796.21,1323.63Z"/><path class="cls-5" d="M406.06,1222v9.21q16.56-4.82,33.19-9.21Z"/><path class="cls-2" d="M813.68,1323.64A849.1,849.1,0,0,1,1072.51,1367l10.61-11.13L949.37,1222H813.68Z"/><path class="cls-2" d="M1020.36,1222l132.93,133.1-66.73,70-15.33-5.42a799.35,799.35,0,0,0-257.55-45.79V1622h400V1234.53q-22.22-6.65-44.58-12.56Z"/><path class="cls-6" d="M1086.56,1425.08l66.73-70L1020.36,1222h-71l133.75,133.91L1072.51,1367a849.1,849.1,0,0,0-258.83-43.37v50.23a799.35,799.35,0,0,1,257.55,45.79Z"/><path class="cls-7" d="M1169.1,1222q22.37,5.91,44.58,12.56V1222Z"/><path class="cls-2" d="M1280.57,1256.35q-30.24-10.69-60.83-20V1622h400V1222H1333.83l-37.92,39.79Z"/><path class="cls-8" d="M1219.74,1236.36q30.57,9.3,60.83,20l15.34,5.41,37.92-39.79H1219.74Z"/><path class="cls-2" d="M256.31,814.65l-142.19,140,60.7,60.7A1935.7,1935.7,0,0,1,400,952.73V814.65Z"/><path class="cls-2" d="M286.63,1164.41,326,1203.77q36.75-12.55,74-23.12V1052.78Z"/><path class="cls-2" d="M371.15,1010.7a1887.13,1887.13,0,0,0-194.58,57.23l-14.93,5.28L42.81,954.37,184.37,814.65H0v400H265.85l-50.53-50.52Z"/><path class="cls-9" d="M400,1180.65q-37.23,10.57-74,23.12l-39.38-39.36L400,1052.78v-100a1935.7,1935.7,0,0,0-225.18,62.62l-60.7-60.7,142.19-140H184.37L42.81,954.37l118.83,118.84,14.93-5.28a1887.13,1887.13,0,0,1,194.58-57.23L215.32,1164.13l50.53,50.52H400Z"/><path class="cls-10" d="M437.89,945q-15.93,3.07-31.83,6.43v95.38l56.17-55.3,62.14-61.17,117.5-115.69H570.29Z"/><path class="cls-2" d="M570.29,814.65H406.06V951.43q15.9-3.34,31.83-6.43Z"/><polygon class="cls-2" points="707.5 1177.86 670.13 1214.65 806.07 1214.65 806.07 1080.81 761.2 1124.98 707.5 1177.86"/><path class="cls-2" d="M628.2,1185.44a1424.92,1424.92,0,0,0-160,29.21H598.54Z"/><path class="cls-2" d="M806.06,1012.92V814.65H641.87L524.37,930.34l-62.14,61.17-56.17,55.3v132.13a1474.48,1474.48,0,0,1,279.35-49.82Z"/><path class="cls-11" d="M598.54,1214.65h71.59l37.37-36.8L761.2,1125l44.86-44.17v-67.89l-120.65,116.2a1474.48,1474.48,0,0,0-279.35,49.82v35.71h62.12a1424.92,1424.92,0,0,1,160-29.21Z"/><path class="cls-2" d="M1091.71,931.43,1153,992.74l60.73,60.82V953.83q-18-3.92-36.1-7.48l-131.51-131.7h-71Z"/><path class="cls-2" d="M1013.05,1214.65H1140.2A1423.47,1423.47,0,0,0,984.4,1186Z"/><path class="cls-2" d="M1213.68,953.83V814.65H1046.07l131.51,131.7Q1195.67,949.91,1213.68,953.83Z"/><polygon class="cls-2" points="942.06 1214.65 905.64 1178.18 852.69 1125.15 813.68 1086.09 813.68 1214.65 942.06 1214.65"/><path class="cls-2" d="M1153,992.74l-61.24-61.31L975.08,814.65H813.68v197.88l114.38,117a1473.39,1473.39,0,0,1,285.62,52.64V1053.56Z"/><path class="cls-12" d="M813.68,1012.53v73.56l39,39.06,52.95,53,36.42,36.47h71L984.4,1186a1423.47,1423.47,0,0,1,155.8,28.7h73.48v-32.47a1473.39,1473.39,0,0,0-285.62-52.64Z"/><path class="cls-13" d="M1091.71,931.43,1153,992.74l60.73,60.82V953.83q-18-3.92-36.1-7.48l-131.51-131.7h-71Z"/><path class="cls-2" d="M1219.74,955.16a1939.91,1939.91,0,0,1,213.51,60.05l61-64.05L1358,814.65H1219.74Z"/><path class="cls-2" d="M1447.23,1073.35l-15.34-5.42a1886,1886,0,0,0-188.64-55.82L1391.94,1161l-51.13,53.66h278.93v-400H1428.6l135.86,135.69Z"/><path class="cls-2" d="M1281.9,1203.63l39.87-41.82-102-102.18v124.31Q1251,1193.09,1281.9,1203.63Z"/><path class="cls-14" d="M1494.29,951.16l-61,64.05a1939.91,1939.91,0,0,0-213.51-60.05v104.47l102,102.18-39.87,41.82q-30.92-10.55-62.16-19.69v30.71h121.07l51.13-53.66-148.69-148.88a1886,1886,0,0,1,188.64,55.82l15.34,5.42,117.23-123L1428.6,814.65H1358Z"/><polygon class="cls-2" points="400 407.32 0 407.32 0 807.32 191.79 807.32 400 601.81 400 407.32"/><polygon class="cls-2" points="400 673.17 263.75 807.32 400 807.32 400 673.17"/><polygon class="cls-15" points="400 673.17 400 601.81 191.79 807.32 263.75 807.32 400 673.17"/><polygon class="cls-2" points="577.72 807.32 806.07 582.49 806.07 407.32 670.01 407.32 406.06 667.2 406.06 807.32 577.72 807.32"/><polygon class="cls-2" points="806.07 807.32 806.07 652.98 649.31 807.32 806.07 807.32"/><polygon class="cls-2" points="406.06 407.32 406.06 595.83 597.04 407.32 406.06 407.32"/><polygon class="cls-16" points="806.07 652.98 806.07 582.49 577.72 807.32 649.31 807.32 806.07 652.98"/><polygon class="cls-17" points="670.01 407.32 597.04 407.32 406.06 595.83 406.06 667.2 670.01 407.32"/><polygon class="cls-2" points="1213.68 407.32 1020.81 407.32 1213.68 599.97 1213.68 407.32"/><polygon class="cls-2" points="813.68 581.93 1038.75 807.32 1213.68 807.32 1213.68 670.16 951.2 407.32 813.68 407.32 813.68 581.93"/><polygon class="cls-2" points="967.77 807.32 813.68 653.01 813.68 807.32 967.77 807.32"/><polygon class="cls-18" points="813.68 653.01 967.77 807.32 1038.75 807.32 813.68 581.93 813.68 653.01"/><polygon class="cls-19" points="1213.68 670.16 1213.68 599.97 1020.81 407.32 951.2 407.32 1213.68 670.16"/><polygon class="cls-2" points="1350.65 807.32 1219.74 676.24 1219.74 807.32 1350.65 807.32"/><polygon class="cls-2" points="1219.74 606.03 1421.27 807.32 1619.74 807.32 1619.74 407.32 1219.74 407.32 1219.74 606.03"/><polygon class="cls-20" points="1219.74 676.24 1350.65 807.32 1421.27 807.32 1219.74 606.03 1219.74 676.24"/><polygon class="cls-2" points="806.07 0 406.06 0 406.06 400 604.46 400 806.07 201.01 806.07 0"/><polygon class="cls-2" points="806.07 273.37 677.45 400 806.07 400 806.07 273.37"/><polygon class="cls-21" points="806.07 273.37 806.07 201.01 604.46 400 677.45 400 806.07 273.37"/><polygon class="cls-2" points="1213.68 400 1213.68 0 813.68 0 813.68 200.44 1013.48 400 1213.68 400"/><polygon class="cls-2" points="943.88 400 813.68 269.62 813.68 400 943.88 400"/><polygon class="cls-22" points="943.88 400 1013.48 400 813.68 200.44 813.68 269.62 943.88 400"/></g></g></svg>