<svg xmlns="http://www.w3.org/2000/svg" xmlns:xlink="http://www.w3.org/1999/xlink" viewBox="0 0 36.98 21.12"><defs><style>.cls-1{fill:url(#linear-gradient);}.cls-2{fill:url(#radial-gradient);}</style><linearGradient id="linear-gradient" x1="13.39" y1="23.31" x2="23.59" y2="-2.19" gradientUnits="userSpaceOnUse"><stop offset="0" stop-color="#e8eff2"/><stop offset="1" stop-color="#fff"/></linearGradient><radialGradient id="radial-gradient" cx="20.42" cy="8.63" r="43.27" gradientUnits="userSpaceOnUse"><stop offset="0" stop-color="#f4f6f7"/><stop offset="1" stop-color="#e8eff2"/></radialGradient></defs><title>piece3</title><g id="Layer_2" data-name="Layer 2"><g id="Ñëîé_1" data-name="Ñëîé 1"><path class="cls-1" d="M21.25,21.11a.52.52,0,0,1-.42-.53,1.45,1.45,0,0,1,.43-.88l.08-.11A3.88,3.88,0,0,0,22.46,17a3.75,3.75,0,0,0-4-3.74,3.85,3.85,0,0,0-4,3.74,4,4,0,0,0,1.12,2.64l.11.13a1.38,1.38,0,0,1,.36.82.55.55,0,0,1-.46.57H7.91V13.38a1.47,1.47,0,0,0-1.46-1.27,2.2,2.2,0,0,0-1.39.57l-.14.11a3.09,3.09,0,0,1-2.07.91A3,3,0,0,1,0,10.57,2.82,2.82,0,0,1,2.85,7.46a3,3,0,0,1,2.05.88L5,8.43A2.26,2.26,0,0,0,6.47,9,1.43,1.43,0,0,0,7.9,7.79V0H29.07V7.73A1.46,1.46,0,0,0,30.54,9a2.25,2.25,0,0,0,1.39-.58l.13-.11a3.13,3.13,0,0,1,2.07-.91A3,3,0,0,1,37,10.55a2.82,2.82,0,0,1-2.85,3.11,3,3,0,0,1-2.07-.91l-.1-.09A2.33,2.33,0,0,0,30.5,12a1.42,1.42,0,0,0-1.42,1.23v7.86H21.25Z"/><path class="cls-2" d="M21.28,21a.36.36,0,0,1-.3-.38,1.37,1.37,0,0,1,.39-.79l.09-.1A4.06,4.06,0,0,0,22.61,17a3.9,3.9,0,0,0-4.15-3.9A4,4,0,0,0,14.28,17a4.12,4.12,0,0,0,1.15,2.74l.11.13a1.21,1.21,0,0,1,.33.72.4.4,0,0,1-.34.42H8.06v-7.6A1.61,1.61,0,0,0,6.45,12a2.36,2.36,0,0,0-1.49.6l-.13.11a3,3,0,0,1-2,.88,2.82,2.82,0,0,1-2.7-3,2.68,2.68,0,0,1,2.7-3,2.87,2.87,0,0,1,1.95.84l.11.09a2.38,2.38,0,0,0,1.56.64A1.59,1.59,0,0,0,8.05,7.81V.15H28.92v7.6a1.6,1.6,0,0,0,1.61,1.41A2.37,2.37,0,0,0,32,8.55l.14-.11a3,3,0,0,1,2-.87,2.81,2.81,0,0,1,2.7,3,2.67,2.67,0,0,1-2.7,2.95,2.93,2.93,0,0,1-2-.86l-.1-.09a2.4,2.4,0,0,0-1.56-.67,1.57,1.57,0,0,0-1.57,1.36V21Z"/></g></g></svg>