<svg xmlns="http://www.w3.org/2000/svg" xmlns:xlink="http://www.w3.org/1999/xlink" viewBox="0 0 29.02 21.12"><defs><style>.cls-1{fill:url(#linear-gradient);}.cls-2{fill:url(#radial-gradient);}</style><linearGradient id="linear-gradient" x1="7.18" y1="23.99" x2="17.37" y2="-1.49" gradientUnits="userSpaceOnUse"><stop offset="0" stop-color="#e8eff2"/><stop offset="1" stop-color="#fff"/></linearGradient><radialGradient id="radial-gradient" cx="13.96" cy="9.6" r="36.86" gradientUnits="userSpaceOnUse"><stop offset="0" stop-color="#f4f6f7"/><stop offset="1" stop-color="#e8eff2"/></radialGradient></defs><title>piece9</title><g id="Layer_2" data-name="Layer 2"><g id="Ñëîé_1" data-name="Ñëîé 1"><path class="cls-1" d="M0,21.12V0H7.66a.56.56,0,0,1,.46.57,1.4,1.4,0,0,1-.37.83l-.11.13A4,4,0,0,0,6.53,4.17a3.85,3.85,0,0,0,4,3.74,3.75,3.75,0,0,0,4-3.74,3.93,3.93,0,0,0-1.12-2.65l-.09-.1a1.51,1.51,0,0,1-.42-.89A.52.52,0,0,1,13.35,0h7.76V7.86a1.42,1.42,0,0,0,1.42,1.23A2.33,2.33,0,0,0,24,8.46l.1-.09a3,3,0,0,1,2.07-.91A2.82,2.82,0,0,1,29,10.57a3,3,0,0,1-2.85,3.13,3.13,3.13,0,0,1-2.07-.9L24,12.69a2.23,2.23,0,0,0-1.39-.58,1.46,1.46,0,0,0-1.46,1.28v7.73Z"/><path class="cls-2" d="M.15,21V.16H7.63A.41.41,0,0,1,8,.57a1.25,1.25,0,0,1-.34.73l-.1.13A4.08,4.08,0,0,0,6.38,4.17a4,4,0,0,0,4.17,3.89,3.9,3.9,0,0,0,4.16-3.89,4.08,4.08,0,0,0-1.15-2.75l-.09-.1a1.34,1.34,0,0,1-.39-.79.36.36,0,0,1,.3-.38H21V7.88a1.57,1.57,0,0,0,1.57,1.36,2.45,2.45,0,0,0,1.56-.67l.1-.09a2.93,2.93,0,0,1,2-.87,2.68,2.68,0,0,1,2.7,3,2.81,2.81,0,0,1-2.7,3,3,3,0,0,1-2-.87l-.13-.11A2.41,2.41,0,0,0,22.58,12,1.61,1.61,0,0,0,21,13.37V21Z"/></g></g></svg>