<svg xmlns="http://www.w3.org/2000/svg" xmlns:xlink="http://www.w3.org/1999/xlink" viewBox="0 0 29.02 21.17"><defs><style>.cls-1{fill:url(#linear-gradient);}.cls-2{fill:url(#radial-gradient);}</style><linearGradient id="linear-gradient" x1="11.65" y1="22.66" x2="21.86" y2="-2.87" gradientUnits="userSpaceOnUse"><stop offset="0" stop-color="#e8eff2"/><stop offset="1" stop-color="#fff"/></linearGradient><radialGradient id="radial-gradient" cx="18.09" cy="8.66" r="41.65" gradientUnits="userSpaceOnUse"><stop offset="0" stop-color="#f4f6f7"/><stop offset="1" stop-color="#e8eff2"/></radialGradient></defs><title>piece8</title><g id="Layer_2" data-name="Layer 2"><g id="Ñëîé_1" data-name="Ñëîé 1"><path class="cls-1" d="M21.39,21.17h0a.56.56,0,0,1-.46-.57,1.43,1.43,0,0,1,.37-.83l.11-.13A4,4,0,0,0,22.5,17a3.85,3.85,0,0,0-4-3.76,3.75,3.75,0,0,0-4,3.76,3.93,3.93,0,0,0,1.12,2.65l.08.1a1.53,1.53,0,0,1,.43.89.52.52,0,0,1-.41.53H7.91V13.4a1.44,1.44,0,0,0-1.45-1.25,2.2,2.2,0,0,0-1.39.57l-.14.11a3.11,3.11,0,0,1-2.07.91A3,3,0,0,1,0,10.61,2.83,2.83,0,0,1,2.85,7.49a3.06,3.06,0,0,1,2.07.91L5,8.49a2.25,2.25,0,0,0,1.46.63A1.41,1.41,0,0,0,7.9,7.93V0h7.79a.53.53,0,0,1,.42.54,1.51,1.51,0,0,1-.42.89l-.09.1a3.93,3.93,0,0,0-1.12,2.65,3.75,3.75,0,0,0,4,3.75,3.85,3.85,0,0,0,4-3.75A4,4,0,0,0,21.4,1.53l-.11-.13a1.38,1.38,0,0,1-.37-.82A.56.56,0,0,1,21.38,0H29V21.17Z"/><path class="cls-2" d="M21.4,21a.4.4,0,0,1-.33-.42,1.23,1.23,0,0,1,.33-.73l.11-.13A4.1,4.1,0,0,0,22.66,17a4,4,0,0,0-4.18-3.91A3.9,3.9,0,0,0,14.33,17a4.08,4.08,0,0,0,1.15,2.75l.09.1a1.4,1.4,0,0,1,.38.79.35.35,0,0,1-.28.38H8.06V13.38A1.59,1.59,0,0,0,6.45,12,2.37,2.37,0,0,0,5,12.6l-.13.11a3,3,0,0,1-2,.87,2.81,2.81,0,0,1-2.7-3,2.68,2.68,0,0,1,2.7-3,2.89,2.89,0,0,1,2,.87l.11.09a2.45,2.45,0,0,0,1.56.67A1.56,1.56,0,0,0,8.05,8V.16h7.61a.37.37,0,0,1,.3.39,1.37,1.37,0,0,1-.39.79l-.09.1a4.08,4.08,0,0,0-1.15,2.75,3.91,3.91,0,0,0,4.16,3.91,4,4,0,0,0,4.17-3.91,4.1,4.1,0,0,0-1.15-2.74l-.1-.13a1.25,1.25,0,0,1-.34-.73.41.41,0,0,1,.34-.43h7.46V21Z"/></g></g></svg>