<svg xmlns="http://www.w3.org/2000/svg" xmlns:xlink="http://www.w3.org/1999/xlink" viewBox="0 0 400 400"><defs><style>.cls-1{fill:#231f20;}.cls-2{fill:url(#linear-gradient);}</style><linearGradient id="linear-gradient" x1="42.81" y1="200" x2="400" y2="200" gradientUnits="userSpaceOnUse"><stop offset="0" stop-color="#69f"/><stop offset="1" stop-color="#c3f"/></linearGradient></defs><g id="Layer_2" data-name="Layer 2"><g id="Layer_1-2" data-name="Layer 1"><path class="cls-1" d="M256.31,0,114.12,140l60.7,60.7A1937.67,1937.67,0,0,1,400,138.08V0Z"/><path class="cls-1" d="M286.63,349.76,326,389.13q36.75-12.56,74-23.13V238.14Z"/><path class="cls-1" d="M371.15,196.05a1884.7,1884.7,0,0,0-194.58,57.24l-14.93,5.27L42.81,139.72,184.37,0H0V400H265.85l-50.53-50.52Z"/><path class="cls-2" d="M400,366q-37.23,10.59-74,23.13l-39.38-39.37L400,238.14V138.08A1937.67,1937.67,0,0,0,174.82,200.7L114.12,140,256.31,0H184.37L42.81,139.72,161.64,258.56l14.93-5.27a1884.7,1884.7,0,0,1,194.58-57.24L215.32,349.48,265.85,400H400Z"/></g></g></svg>