<svg xmlns="http://www.w3.org/2000/svg" xmlns:xlink="http://www.w3.org/1999/xlink" viewBox="0 0 29.02 21.12"><defs><style>.cls-1{fill:url(#linear-gradient);}.cls-2{fill:url(#radial-gradient);}</style><linearGradient id="linear-gradient" x1="7.18" y1="23.99" x2="17.38" y2="-1.5" gradientUnits="userSpaceOnUse"><stop offset="0" stop-color="#e8eff2"/><stop offset="1" stop-color="#fff"/></linearGradient><radialGradient id="radial-gradient" cx="14.2" cy="8.6" r="43.28" gradientUnits="userSpaceOnUse"><stop offset="0" stop-color="#f4f6f7"/><stop offset="1" stop-color="#e8eff2"/></radialGradient></defs><title>piece1</title><g id="Layer_2" data-name="Layer 2"><g id="Ñëîé_1" data-name="Ñëîé 1"><path class="cls-1" d="M13.35,21.12a.53.53,0,0,1-.42-.53,1.48,1.48,0,0,1,.42-.89l.09-.11A3.88,3.88,0,0,0,14.56,17a3.75,3.75,0,0,0-4-3.74,3.85,3.85,0,0,0-4,3.74,4,4,0,0,0,1.12,2.64l.1.13a1.4,1.4,0,0,1,.37.83.55.55,0,0,1-.46.56H0V0H21.11V7.73A1.46,1.46,0,0,0,22.58,9,2.23,2.23,0,0,0,24,8.43l.13-.11a3.13,3.13,0,0,1,2.07-.91A3,3,0,0,1,29,10.54a2.83,2.83,0,0,1-2.85,3.12,3,3,0,0,1-2.07-.91l-.1-.09A2.33,2.33,0,0,0,22.54,12a1.42,1.42,0,0,0-1.42,1.23v7.86H13.35Z"/><path class="cls-2" d="M13.38,21a.37.37,0,0,1-.3-.38,1.34,1.34,0,0,1,.39-.79l.09-.11A4.06,4.06,0,0,0,14.71,17a3.9,3.9,0,0,0-4.16-3.89A4,4,0,0,0,6.38,17a4.1,4.1,0,0,0,1.15,2.74l.11.13a1.29,1.29,0,0,1,.33.73.4.4,0,0,1-.34.41H.16V.15H21v7.6a1.61,1.61,0,0,0,1.61,1.41,2.37,2.37,0,0,0,1.48-.61l.14-.11a3,3,0,0,1,2-.87,2.81,2.81,0,0,1,2.7,3,2.68,2.68,0,0,1-2.7,3,2.93,2.93,0,0,1-2-.86l-.1-.09a2.4,2.4,0,0,0-1.56-.67A1.57,1.57,0,0,0,21,13.24V21Z"/></g></g></svg>