<svg xmlns="http://www.w3.org/2000/svg" xmlns:xlink="http://www.w3.org/1999/xlink" viewBox="0 0 21.12 29.03"><defs><style>.cls-1{fill:url(#linear-gradient);}.cls-2{fill:url(#radial-gradient);}</style><linearGradient id="linear-gradient" x1="5.47" y1="31.21" x2="17.03" y2="2.3" gradientUnits="userSpaceOnUse"><stop offset="0" stop-color="#e8eff2"/><stop offset="1" stop-color="#fff"/></linearGradient><radialGradient id="radial-gradient" cx="13.17" cy="15.48" r="37.97" gradientUnits="userSpaceOnUse"><stop offset="0" stop-color="#f4f6f7"/><stop offset="1" stop-color="#e8eff2"/></radialGradient></defs><title>piece12</title><g id="Layer_2" data-name="Layer 2"><g id="Ñëîé_1" data-name="Ñëîé 1"><path class="cls-1" d="M0,29V21.38H0a.56.56,0,0,1,.57-.46,1.4,1.4,0,0,1,.83.37l.13.1A4,4,0,0,0,4.17,22.5a3.85,3.85,0,0,0,3.74-4,3.75,3.75,0,0,0-3.74-4,3.93,3.93,0,0,0-2.65,1.12l-.1.09a1.51,1.51,0,0,1-.89.42A.52.52,0,0,1,0,15.68H0V7.92H7.86A1.42,1.42,0,0,0,9.09,6.49,2.31,2.31,0,0,0,8.46,5l-.09-.11a3,3,0,0,1-.91-2.07A2.82,2.82,0,0,1,10.57,0,3,3,0,0,1,13.7,2.85a3.13,3.13,0,0,1-.9,2.07l-.11.13a2.26,2.26,0,0,0-.58,1.4,1.48,1.48,0,0,0,1.28,1.46h7.73V29Z"/><path class="cls-2" d="M.16,28.87V21.4a.42.42,0,0,1,.42-.34,1.19,1.19,0,0,1,.73.34l.13.1a4.08,4.08,0,0,0,2.74,1.15,4,4,0,0,0,3.89-4.17,3.9,3.9,0,0,0-3.89-4.16,4,4,0,0,0-2.74,1.15l-.11.09A1.34,1.34,0,0,1,.53,16a.37.37,0,0,1-.38-.3V8.07H7.88A1.57,1.57,0,0,0,9.24,6.49a2.45,2.45,0,0,0-.67-1.56l-.09-.11a2.93,2.93,0,0,1-.87-2,2.69,2.69,0,0,1,3-2.7,2.81,2.81,0,0,1,3,2.7,3,3,0,0,1-.87,2L12.57,5A2.32,2.32,0,0,0,12,6.45a1.61,1.61,0,0,0,1.41,1.61H21V28.88Z"/></g></g></svg>