<svg xmlns="http://www.w3.org/2000/svg" xmlns:xlink="http://www.w3.org/1999/xlink" viewBox="0 0 400 400"><defs><style>.cls-1{fill:url(#linear-gradient);}.cls-2{fill:#231f20;}.cls-3{fill:url(#linear-gradient-2);}</style><linearGradient id="linear-gradient" y1="116.08" x2="235.8" y2="116.08" gradientUnits="userSpaceOnUse"><stop offset="0" stop-color="#69f"/><stop offset="1" stop-color="#c3f"/></linearGradient><linearGradient id="linear-gradient-2" y1="299.14" x2="400" y2="299.14" xlink:href="#linear-gradient"/></defs><g id="Layer_2" data-name="Layer 2"><g id="Layer_1-2" data-name="Layer 1"><path class="cls-1" d="M31.83,130.36Q15.89,133.44,0,136.79v95.38l56.16-55.3,62.15-61.18L235.8,0H164.22Z"/><path class="cls-2" d="M164.22,0H0V136.79q15.89-3.34,31.83-6.43Z"/><polygon class="cls-2" points="301.43 363.21 264.06 400 400 400 400 266.17 355.14 310.33 301.43 363.21"/><path class="cls-2" d="M222.14,370.79A1425.51,1425.51,0,0,0,62.11,400H192.47Z"/><path class="cls-2" d="M400,198.28V0H235.8L118.31,115.69,56.16,176.87,0,232.17V364.29a1474.46,1474.46,0,0,1,279.35-49.81Z"/><path class="cls-3" d="M192.47,400h71.59l37.37-36.79,53.71-52.88L400,266.17V198.28L279.35,314.48A1474.46,1474.46,0,0,0,0,364.29V400H62.11a1425.51,1425.51,0,0,1,160-29.21Z"/></g></g></svg>