<svg xmlns="http://www.w3.org/2000/svg" xmlns:xlink="http://www.w3.org/1999/xlink" viewBox="0 0 400 400"><defs><style>.cls-1{fill:#231f20;}.cls-2{fill:url(#linear-gradient);}.cls-3{fill:url(#linear-gradient-2);}</style><linearGradient id="linear-gradient" y1="298.94" x2="400" y2="298.94" gradientUnits="userSpaceOnUse"><stop offset="0" stop-color="#69f"/><stop offset="1" stop-color="#c3f"/></linearGradient><linearGradient id="linear-gradient-2" x1="-770.87" y1="119.46" x2="750.78" y2="119.46" xlink:href="#linear-gradient"/></defs><g id="Layer_2" data-name="Layer 2"><g id="Layer_1-2" data-name="Layer 1"><path class="cls-1" d="M199.37,400H326.52a1423.44,1423.44,0,0,0-155.8-28.69Z"/><path class="cls-1" d="M400,139.18V0H232.39L363.91,131.7Q382,135.26,400,139.18Z"/><polygon class="cls-1" points="128.38 400 91.96 363.54 39.01 310.51 0 271.44 0 400 128.38 400"/><path class="cls-1" d="M339.27,178.1,278,116.78,161.41,0H0V197.88l114.38,117A1473.25,1473.25,0,0,1,400,367.53V238.91Z"/><path class="cls-2" d="M0,197.88v73.56l39,39.07,53,53L128.38,400h71l-28.65-28.69A1423.44,1423.44,0,0,1,326.52,400H400V367.53a1473.25,1473.25,0,0,0-285.62-52.64Z"/><path class="cls-3" d="M278,116.78l61.24,61.32L400,238.91V139.18q-18-3.9-36.09-7.48L232.39,0h-71Z"/></g></g></svg>