<svg xmlns="http://www.w3.org/2000/svg" xmlns:xlink="http://www.w3.org/1999/xlink" viewBox="0 0 36.93 21.17"><defs><style>.cls-1{fill:url(#linear-gradient);}.cls-2{fill:url(#radial-gradient);}</style><linearGradient id="linear-gradient" x1="13.36" y1="23.34" x2="23.56" y2="-2.18" gradientUnits="userSpaceOnUse"><stop offset="0" stop-color="#e8eff2"/><stop offset="1" stop-color="#fff"/></linearGradient><radialGradient id="radial-gradient" cx="19.84" cy="8.66" r="46.32" gradientUnits="userSpaceOnUse"><stop offset="0" stop-color="#f4f6f7"/><stop offset="1" stop-color="#e8eff2"/></radialGradient></defs><title>piece6</title><g id="Layer_2" data-name="Layer 2"><g id="Ñëîé_1" data-name="Ñëîé 1"><path class="cls-1" d="M21.32,21.16h0a.56.56,0,0,1-.49-.54,1.59,1.59,0,0,1,.4-.86l.11-.13A4,4,0,0,0,22.44,17a3.77,3.77,0,0,0-4-3.75,3.75,3.75,0,0,0-4,3.76,4,4,0,0,0,1.11,2.65l.09.1a1.53,1.53,0,0,1,.43.89.52.52,0,0,1-.4.53H7.91V13.4a1.44,1.44,0,0,0-1.45-1.25,2.2,2.2,0,0,0-1.39.57l-.14.11a3.11,3.11,0,0,1-2.07.91A3,3,0,0,1,0,10.61,2.83,2.83,0,0,1,2.85,7.49a3,3,0,0,1,2.07.91L5,8.49a2.25,2.25,0,0,0,1.46.63A1.41,1.41,0,0,0,7.9,7.93V0h7.79a.53.53,0,0,1,.42.53,1.51,1.51,0,0,1-.42.9l-.09.1a3.93,3.93,0,0,0-1.12,2.65,3.76,3.76,0,0,0,4,3.76,3.86,3.86,0,0,0,4-3.76A4,4,0,0,0,21.4,1.53l-.11-.13a1.38,1.38,0,0,1-.37-.82A.57.57,0,0,1,21.38,0H29V7.86a1.34,1.34,0,0,0,1.42,1.27,2.29,2.29,0,0,0,1.46-.64L32,8.4a3.06,3.06,0,0,1,2.07-.9,2.83,2.83,0,0,1,2.86,3.11,3,3,0,0,1-2.86,3.13A3.08,3.08,0,0,1,32,12.83l-.13-.11a2.2,2.2,0,0,0-1.39-.57A1.4,1.4,0,0,0,29,13.46v7.71Z"/><path class="cls-2" d="M21.34,21a.4.4,0,0,1-.37-.39,1.42,1.42,0,0,1,.37-.76l.11-.13A4.1,4.1,0,0,0,22.6,17a3.93,3.93,0,0,0-4.12-3.9A3.9,3.9,0,0,0,14.33,17a4.08,4.08,0,0,0,1.15,2.75l.09.1a1.4,1.4,0,0,1,.38.79.35.35,0,0,1-.28.38H8.06V13.38A1.59,1.59,0,0,0,6.45,12,2.37,2.37,0,0,0,5,12.6l-.13.11a3,3,0,0,1-2,.87,2.81,2.81,0,0,1-2.7-3,2.68,2.68,0,0,1,2.7-3,2.89,2.89,0,0,1,2,.87l.11.09a2.45,2.45,0,0,0,1.56.67A1.56,1.56,0,0,0,8.05,8V.16h7.61a.37.37,0,0,1,.3.38,1.36,1.36,0,0,1-.39.8l-.09.1a4.08,4.08,0,0,0-1.15,2.75,3.91,3.91,0,0,0,4.16,3.91,4,4,0,0,0,4.17-3.91,4.15,4.15,0,0,0-1.15-2.75l-.1-.12a1.28,1.28,0,0,1-.34-.73.42.42,0,0,1,.34-.43h7.46V7.86a1.48,1.48,0,0,0,1.57,1.42A2.45,2.45,0,0,0,32,8.61l.1-.09a2.89,2.89,0,0,1,2-.87,2.68,2.68,0,0,1,2.7,3,2.82,2.82,0,0,1-2.7,3,3,3,0,0,1-2-.88l-.13-.1A2.36,2.36,0,0,0,30.48,12a1.54,1.54,0,0,0-1.61,1.46V21Z"/></g></g></svg>