<svg xmlns="http://www.w3.org/2000/svg" xmlns:xlink="http://www.w3.org/1999/xlink" viewBox="0 0 21.17 29.02"><defs><style>.cls-1{fill:url(#linear-gradient);}.cls-2{fill:url(#radial-gradient);}</style><linearGradient id="linear-gradient" x1="5.49" y1="31.22" x2="17.05" y2="2.3" gradientUnits="userSpaceOnUse"><stop offset="0" stop-color="#e8eff2"/><stop offset="1" stop-color="#fff"/></linearGradient><radialGradient id="radial-gradient" cx="12.1" cy="14.92" r="41.62" gradientUnits="userSpaceOnUse"><stop offset="0" stop-color="#f4f6f7"/><stop offset="1" stop-color="#e8eff2"/></radialGradient></defs><title>piece10</title><g id="Layer_2" data-name="Layer 2"><g id="Ñëîé_1" data-name="Ñëîé 1"><path class="cls-1" d="M0,29V21.38a.57.57,0,0,1,.58-.46,1.43,1.43,0,0,1,.83.37l.12.11a4,4,0,0,0,2.65,1.11,3.86,3.86,0,0,0,3.76-4,3.75,3.75,0,0,0-3.76-4A3.91,3.91,0,0,0,1.53,15.6l-.1.09a1.51,1.51,0,0,1-.89.42A.53.53,0,0,1,0,15.7V7.9H7.93A1.41,1.41,0,0,0,9.12,6.49,2.25,2.25,0,0,0,8.49,5L8.4,4.92a3,3,0,0,1-.91-2.07A2.83,2.83,0,0,1,10.61,0a3,3,0,0,1,3.13,2.85,3.11,3.11,0,0,1-.91,2.07l-.11.13a2.24,2.24,0,0,0-.57,1.4A1.44,1.44,0,0,0,13.4,7.9h7.76v7.8a.52.52,0,0,1-.53.4,1.53,1.53,0,0,1-.89-.43l-.1-.09A4,4,0,0,0,17,14.48a3.75,3.75,0,0,0-3.76,4,3.77,3.77,0,0,0,3.75,4,4,4,0,0,0,2.65-1.11l.12-.11a1.59,1.59,0,0,1,.86-.4.56.56,0,0,1,.54.49h0V29Z"/><path class="cls-2" d="M.15,28.87V21.41a.42.42,0,0,1,.43-.34,1.25,1.25,0,0,1,.73.34l.13.1a4.1,4.1,0,0,0,2.74,1.15,4,4,0,0,0,3.91-4.17,3.91,3.91,0,0,0-3.91-4.16,4,4,0,0,0-2.75,1.16l-.1.08A1.37,1.37,0,0,1,.54,16a.37.37,0,0,1-.39-.3V8.05H8A1.56,1.56,0,0,0,9.28,6.49a2.45,2.45,0,0,0-.67-1.56l-.09-.11a2.86,2.86,0,0,1-.87-2,2.68,2.68,0,0,1,3-2.7,2.82,2.82,0,0,1,3,2.7,3,3,0,0,1-.88,2L12.6,5A2.37,2.37,0,0,0,12,6.45a1.59,1.59,0,0,0,1.39,1.6H21v7.61a.35.35,0,0,1-.38.28,1.4,1.4,0,0,1-.79-.38l-.1-.09A4.08,4.08,0,0,0,17,14.33a3.9,3.9,0,0,0-3.91,4.15A3.93,3.93,0,0,0,17,22.6a4.1,4.1,0,0,0,2.74-1.15l.13-.11a1.42,1.42,0,0,1,.76-.37.4.4,0,0,1,.39.37l0,7.53Z"/></g></g></svg>