<svg xmlns="http://www.w3.org/2000/svg" xmlns:xlink="http://www.w3.org/1999/xlink" viewBox="0 0 36.98 21.12"><defs><style>.cls-1{fill:url(#linear-gradient);}.cls-2{fill:url(#radial-gradient);}</style><linearGradient id="linear-gradient" x1="13.39" y1="23.31" x2="23.59" y2="-2.19" gradientUnits="userSpaceOnUse"><stop offset="0" stop-color="#e8eff2"/><stop offset="1" stop-color="#fff"/></linearGradient><radialGradient id="radial-gradient" cx="19.87" cy="9.6" r="43.5" gradientUnits="userSpaceOnUse"><stop offset="0" stop-color="#f4f6f7"/><stop offset="1" stop-color="#e8eff2"/></radialGradient></defs><title>piece11</title><g id="Layer_2" data-name="Layer 2"><g id="Ñëîé_1" data-name="Ñëîé 1"><path class="cls-1" d="M7.9,21.12V13.33a1.43,1.43,0,0,0-1.43-1.24,2.21,2.21,0,0,0-1.46.6l-.11.09a3,3,0,0,1-2.05.88A2.82,2.82,0,0,1,0,10.55,3,3,0,0,1,2.85,7.42a3.06,3.06,0,0,1,2.07.91l.14.1A2.16,2.16,0,0,0,6.45,9,1.47,1.47,0,0,0,7.91,7.73V0h7.65A.57.57,0,0,1,16,.57a1.36,1.36,0,0,1-.38.83l-.1.13a4,4,0,0,0-1.12,2.64,3.85,3.85,0,0,0,4,3.74,3.74,3.74,0,0,0,4-3.74,3.93,3.93,0,0,0-1.12-2.65l-.09-.1a1.51,1.51,0,0,1-.42-.89A.53.53,0,0,1,21.25,0h7.82V7.86A1.42,1.42,0,0,0,30.5,9.09,2.33,2.33,0,0,0,32,8.46l.1-.09a3,3,0,0,1,2.07-.91A2.82,2.82,0,0,1,37,10.57a3,3,0,0,1-2.85,3.13,3.13,3.13,0,0,1-2.07-.9l-.13-.11a2.18,2.18,0,0,0-1.39-.58,1.46,1.46,0,0,0-1.46,1.28v7.73Z"/><path class="cls-2" d="M8.06,21V13.31a1.59,1.59,0,0,0-1.58-1.38,2.38,2.38,0,0,0-1.56.64l-.11.09a2.83,2.83,0,0,1-1.95.85,2.69,2.69,0,0,1-2.7-3,2.81,2.81,0,0,1,2.7-3,3,3,0,0,1,2,.87L5,8.55a2.32,2.32,0,0,0,1.49.61A1.61,1.61,0,0,0,8.06,7.75V.16h7.47a.42.42,0,0,1,.34.42,1.23,1.23,0,0,1-.33.73l-.11.13a4.08,4.08,0,0,0-1.15,2.74,4,4,0,0,0,4.18,3.89,3.9,3.9,0,0,0,4.15-3.89,4.08,4.08,0,0,0-1.15-2.75l-.09-.1A1.34,1.34,0,0,1,21,.53a.37.37,0,0,1,.3-.38h7.64V7.88A1.57,1.57,0,0,0,30.5,9.24a2.41,2.41,0,0,0,1.55-.67l.11-.09a3,3,0,0,1,2-.87,2.68,2.68,0,0,1,2.7,3,2.81,2.81,0,0,1-2.7,3,3,3,0,0,1-2-.87L32,12.57A2.36,2.36,0,0,0,30.54,12a1.6,1.6,0,0,0-1.61,1.41V21Z"/></g></g></svg>