<svg xmlns="http://www.w3.org/2000/svg" xmlns:xlink="http://www.w3.org/1999/xlink" viewBox="0 0 21.12 29.03"><defs><style>.cls-1{fill:url(#linear-gradient);}.cls-2{fill:url(#radial-gradient);}</style><linearGradient id="linear-gradient" x1="4.09" y1="26.75" x2="15.66" y2="-2.18" gradientUnits="userSpaceOnUse"><stop offset="0" stop-color="#e8eff2"/><stop offset="1" stop-color="#fff"/></linearGradient><radialGradient id="radial-gradient" cx="12.76" cy="9.29" r="36.68" gradientUnits="userSpaceOnUse"><stop offset="0" stop-color="#f4f6f7"/><stop offset="1" stop-color="#e8eff2"/></radialGradient></defs><title>piece4</title><g id="Layer_2" data-name="Layer 2"><g id="Ñëîé_1" data-name="Ñëîé 1"><path class="cls-1" d="M10.57,29a2.82,2.82,0,0,1-3.11-2.85,3,3,0,0,1,.91-2.07L8.46,24a2.31,2.31,0,0,0,.63-1.46,1.42,1.42,0,0,0-1.23-1.42H0V13.36H0a.53.53,0,0,1,.53-.42,1.51,1.51,0,0,1,.89.42l.1.09a3.93,3.93,0,0,0,2.65,1.12,3.75,3.75,0,0,0,3.74-4,3.85,3.85,0,0,0-3.74-4A3.92,3.92,0,0,0,1.53,7.65l-.13.1a1.37,1.37,0,0,1-.83.37A.56.56,0,0,1,0,7.66V0H21.12V21.12H13.39a1.47,1.47,0,0,0-1.28,1.46A2.2,2.2,0,0,0,12.68,24l.11.14a3,3,0,0,1,.91,2.07A3,3,0,0,1,10.57,29Z"/><path class="cls-2" d="M10.57,28.88a2.69,2.69,0,0,1-3-2.7,2.93,2.93,0,0,1,.87-2l.09-.11a2.45,2.45,0,0,0,.67-1.56A1.57,1.57,0,0,0,7.88,21H.16V13.38a.38.38,0,0,1,.38-.3,1.34,1.34,0,0,1,.79.39l.11.09a4,4,0,0,0,2.74,1.15,3.9,3.9,0,0,0,3.89-4.16A4,4,0,0,0,4.17,6.38,4.08,4.08,0,0,0,1.43,7.53l-.13.11A1.29,1.29,0,0,1,.57,8a.41.41,0,0,1-.42-.34V.16H21V21h-7.6A1.61,1.61,0,0,0,12,22.58a2.32,2.32,0,0,0,.61,1.49l.11.13a3,3,0,0,1,.87,2A2.81,2.81,0,0,1,10.57,28.88Z"/></g></g></svg>