<svg xmlns="http://www.w3.org/2000/svg" xmlns:xlink="http://www.w3.org/1999/xlink" viewBox="0 0 400 400"><defs><style>.cls-1{fill:#231f20;}.cls-2{fill:url(#linear-gradient);}</style><linearGradient id="linear-gradient" y1="200" x2="344.71" y2="200" gradientUnits="userSpaceOnUse"><stop offset="0" stop-color="#69f"/><stop offset="1" stop-color="#c3f"/></linearGradient></defs><g id="Layer_2" data-name="Layer 2"><g id="Layer_1-2" data-name="Layer 1"><path class="cls-1" d="M0,140.51a1940.53,1940.53,0,0,1,213.51,60.05l61-64.05L138.22,0H0Z"/><path class="cls-1" d="M227.48,258.7l-15.33-5.41A1889.51,1889.51,0,0,0,23.51,197.46L172.2,346.35,121.06,400H400V0H208.86L344.71,135.69Z"/><path class="cls-1" d="M62.16,389,102,347.16,0,245V369.3Q31.23,378.45,62.16,389Z"/><path class="cls-2" d="M274.55,136.51l-61,64.05A1940.53,1940.53,0,0,0,0,140.51V245L102,347.16,62.16,389Q31.24,378.44,0,369.3V400H121.06l51.14-53.65L23.51,197.46a1889.51,1889.51,0,0,1,188.64,55.83l15.33,5.41,117.23-123L208.86,0H138.22Z"/></g></g></svg>