<svg xmlns="http://www.w3.org/2000/svg" xmlns:xlink="http://www.w3.org/1999/xlink" viewBox="0 0 21.17 29.02"><defs><style>.cls-1{fill:url(#linear-gradient);}.cls-2{fill:url(#radial-gradient);}</style><linearGradient id="linear-gradient" x1="4.11" y1="26.74" x2="15.68" y2="-2.19" gradientUnits="userSpaceOnUse"><stop offset="0" stop-color="#e8eff2"/><stop offset="1" stop-color="#fff"/></linearGradient><radialGradient id="radial-gradient" cx="11.62" cy="9.66" r="34.86" gradientUnits="userSpaceOnUse"><stop offset="0" stop-color="#f4f6f7"/><stop offset="1" stop-color="#e8eff2"/></radialGradient></defs><title>piece2</title><g id="Layer_2" data-name="Layer 2"><g id="Ñëîé_1" data-name="Ñëîé 1"><path class="cls-1" d="M10.61,29a2.83,2.83,0,0,1-3.12-2.85A3.06,3.06,0,0,1,8.4,24.1l.09-.1a2.28,2.28,0,0,0,.63-1.46,1.41,1.41,0,0,0-1.19-1.42H0V13.34H0a.53.53,0,0,1,.54-.42,1.51,1.51,0,0,1,.89.42l.1.09a3.93,3.93,0,0,0,2.65,1.12,3.76,3.76,0,0,0,3.76-4,3.86,3.86,0,0,0-3.76-4A4,4,0,0,0,1.53,7.63l-.13.1a1.32,1.32,0,0,1-.82.37A.57.57,0,0,1,0,7.64H0V0H21.17V7.7h0a.56.56,0,0,1-.54.49,1.52,1.52,0,0,1-.86-.4l-.13-.11A4,4,0,0,0,17,6.58a3.77,3.77,0,0,0-3.75,4,3.75,3.75,0,0,0,3.76,4,4,4,0,0,0,2.65-1.11l.1-.09a1.51,1.51,0,0,1,.89-.42.51.51,0,0,1,.53.4v7.79H13.4a1.44,1.44,0,0,0-1.25,1.46A2.24,2.24,0,0,0,12.72,24l.11.13a3.13,3.13,0,0,1,.91,2.07A3,3,0,0,1,10.61,29Z"/><path class="cls-2" d="M10.61,28.87a2.68,2.68,0,0,1-3-2.7,2.91,2.91,0,0,1,.87-2l.09-.11a2.41,2.41,0,0,0,.67-1.55A1.57,1.57,0,0,0,8,21H.16V13.36a.37.37,0,0,1,.39-.3,1.37,1.37,0,0,1,.79.39l.1.09a4.08,4.08,0,0,0,2.75,1.15,3.91,3.91,0,0,0,3.91-4.16A4,4,0,0,0,4.18,6.36,4.1,4.1,0,0,0,1.44,7.51l-.13.11A1.25,1.25,0,0,1,.58,8a.42.42,0,0,1-.43-.34V.15H21l0,7.53a.4.4,0,0,1-.39.37,1.42,1.42,0,0,1-.76-.37l-.13-.1A4.1,4.1,0,0,0,17,6.43a3.92,3.92,0,0,0-3.9,4.11A3.91,3.91,0,0,0,17,14.7a4,4,0,0,0,2.75-1.16l.1-.08a1.37,1.37,0,0,1,.79-.39.36.36,0,0,1,.38.28V21H13.38A1.59,1.59,0,0,0,12,22.58a2.37,2.37,0,0,0,.61,1.48l.11.14a3,3,0,0,1,.88,2A2.82,2.82,0,0,1,10.61,28.87Z"/></g></g></svg>