<svg xmlns="http://www.w3.org/2000/svg" xmlns:xlink="http://www.w3.org/1999/xlink" viewBox="0 0 87.17 65.2"><defs><style>.cls-1{fill:url(#linear-gradient);}.cls-2{fill:url(#radial-gradient);}.cls-3{fill:url(#linear-gradient-2);}.cls-4{fill:url(#radial-gradient-2);}.cls-5{fill:url(#linear-gradient-3);}.cls-6{fill:url(#radial-gradient-3);}.cls-7{fill:url(#linear-gradient-4);}.cls-8{fill:url(#radial-gradient-4);}.cls-9{fill:url(#linear-gradient-5);}.cls-10{fill:url(#radial-gradient-5);}.cls-11{fill:url(#linear-gradient-6);}.cls-12{fill:url(#radial-gradient-6);}.cls-13{fill:url(#linear-gradient-7);}.cls-14{fill:url(#radial-gradient-7);}.cls-15{fill:url(#linear-gradient-8);}.cls-16{fill:url(#radial-gradient-8);}.cls-17{fill:url(#linear-gradient-9);}.cls-18{fill:url(#radial-gradient-9);}.cls-19{fill:url(#linear-gradient-10);}.cls-20{fill:url(#radial-gradient-10);}.cls-21{fill:url(#linear-gradient-11);}.cls-22{fill:url(#radial-gradient-11);}.cls-23{fill:url(#linear-gradient-12);}.cls-24{fill:url(#radial-gradient-12);}.cls-25{fill:url(#linear-gradient-13);}.cls-26{fill:url(#radial-gradient-13);}</style><linearGradient id="linear-gradient" x1="69.79" y1="44.68" x2="80" y2="19.16" gradientUnits="userSpaceOnUse"><stop offset="0" stop-color="#e8eff2"/><stop offset="1" stop-color="#fff"/></linearGradient><radialGradient id="radial-gradient" cx="76.23" cy="30.68" r="41.65" gradientUnits="userSpaceOnUse"><stop offset="0" stop-color="#f4f6f7"/><stop offset="1" stop-color="#e8eff2"/></radialGradient><linearGradient id="linear-gradient-2" x1="49.5" y1="23.32" x2="59.7" y2="-2.18" xlink:href="#linear-gradient"/><radialGradient id="radial-gradient-2" cx="56.52" cy="8.64" r="43.27" xlink:href="#radial-gradient"/><linearGradient id="linear-gradient-3" x1="57.57" y1="21.61" x2="57.6" y2="21.54" xlink:href="#linear-gradient"/><radialGradient id="radial-gradient-3" cx="57.58" cy="21.57" r="0.07" xlink:href="#radial-gradient"/><linearGradient id="linear-gradient-4" x1="26.06" y1="26.74" x2="37.64" y2="-2.19" xlink:href="#linear-gradient"/><radialGradient id="radial-gradient-4" cx="33.57" cy="9.67" r="34.86" xlink:href="#radial-gradient"/><linearGradient id="linear-gradient-5" x1="27.48" y1="45.36" x2="37.68" y2="19.84" xlink:href="#linear-gradient"/><radialGradient id="radial-gradient-5" cx="33.96" cy="30.68" r="46.32" xlink:href="#radial-gradient"/><linearGradient id="linear-gradient-6" x1="48.12" y1="48.74" x2="61.05" y2="16.4" xlink:href="#linear-gradient"/><radialGradient id="radial-gradient-6" cx="55.54" cy="31.61" r="41.03" xlink:href="#radial-gradient"/><linearGradient id="linear-gradient-7" x1="7.18" y1="23.99" x2="17.38" y2="-1.5" xlink:href="#linear-gradient"/><radialGradient id="radial-gradient-7" cx="14.2" cy="8.6" r="43.28" xlink:href="#radial-gradient"/><linearGradient id="linear-gradient-8" x1="70.13" y1="26.75" x2="81.7" y2="-2.18" xlink:href="#linear-gradient"/><radialGradient id="radial-gradient-8" cx="78.8" cy="9.29" r="36.68" xlink:href="#radial-gradient"/><linearGradient id="linear-gradient-9" x1="49.51" y1="67.33" x2="59.71" y2="41.83" xlink:href="#linear-gradient"/><radialGradient id="radial-gradient-9" cx="55.99" cy="53.62" r="43.5" xlink:href="#radial-gradient"/><linearGradient id="linear-gradient-10" x1="27.45" y1="67.38" x2="39.02" y2="38.46" xlink:href="#linear-gradient"/><radialGradient id="radial-gradient-10" cx="34.06" cy="51.09" r="41.62" xlink:href="#radial-gradient"/><linearGradient id="linear-gradient-11" x1="7.19" y1="68.07" x2="17.38" y2="42.59" xlink:href="#linear-gradient"/><radialGradient id="radial-gradient-11" cx="13.98" cy="53.68" r="36.86" xlink:href="#radial-gradient"/><linearGradient id="linear-gradient-12" x1="71.52" y1="67.38" x2="83.08" y2="38.47" xlink:href="#linear-gradient"/><radialGradient id="radial-gradient-12" cx="79.23" cy="51.65" r="37.97" xlink:href="#radial-gradient"/><linearGradient id="linear-gradient-13" x1="4.09" y1="48.8" x2="17.05" y2="16.39" xlink:href="#linear-gradient"/><radialGradient id="radial-gradient-13" cx="12.37" cy="31.22" r="41.69" xlink:href="#radial-gradient"/></defs><title>puzzle</title><g id="Layer_2" data-name="Layer 2"><g id="Ñëîé_1" data-name="Ñëîé 1"><path class="cls-1" d="M79.52,43.19h0a.57.57,0,0,1-.46-.57,1.38,1.38,0,0,1,.37-.83l.11-.13A4,4,0,0,0,80.64,39a3.85,3.85,0,0,0-4-3.75,3.74,3.74,0,0,0-4,3.75,4,4,0,0,0,1.11,2.65l.09.1a1.53,1.53,0,0,1,.43.9.52.52,0,0,1-.41.52H66.05V35.42a1.44,1.44,0,0,0-1.45-1.25,2.2,2.2,0,0,0-1.39.57l-.14.11a3.11,3.11,0,0,1-2.07.91,3,3,0,0,1-2.85-3.13A2.82,2.82,0,0,1,61,29.52a3.06,3.06,0,0,1,2.07.9l.11.09a2.23,2.23,0,0,0,1.46.63A1.4,1.4,0,0,0,66,30V22h7.79a.51.51,0,0,1,.42.53,1.51,1.51,0,0,1-.42.89l-.09.1a4,4,0,0,0-1.12,2.65,3.76,3.76,0,0,0,4,3.76,3.86,3.86,0,0,0,4-3.76,4,4,0,0,0-1.11-2.64l-.11-.14a1.38,1.38,0,0,1-.37-.82.55.55,0,0,1,.46-.57h7.64V43.19Z"/><path class="cls-2" d="M79.54,43a.43.43,0,0,1-.34-.42,1.28,1.28,0,0,1,.34-.74l.11-.13A4.1,4.1,0,0,0,80.8,39a4,4,0,0,0-4.18-3.91A3.9,3.9,0,0,0,72.47,39a4.06,4.06,0,0,0,1.15,2.75l.08.1a1.36,1.36,0,0,1,.39.8.35.35,0,0,1-.28.37H66.2V35.4A1.59,1.59,0,0,0,64.59,34a2.36,2.36,0,0,0-1.49.6l-.13.11a3,3,0,0,1-2,.88,2.82,2.82,0,0,1-2.7-3,2.68,2.68,0,0,1,2.7-3,2.89,2.89,0,0,1,2,.87l.11.09a2.45,2.45,0,0,0,1.56.67A1.55,1.55,0,0,0,66.19,30v-7.8H73.8a.37.37,0,0,1,.3.39,1.37,1.37,0,0,1-.39.79l-.09.11a4,4,0,0,0-1.15,2.74,3.9,3.9,0,0,0,4.16,3.91A4,4,0,0,0,80.8,26.2a4.1,4.1,0,0,0-1.15-2.74l-.11-.13a1.29,1.29,0,0,1-.33-.73.4.4,0,0,1,.34-.42H87V43Z"/><path class="cls-3" d="M57.36,21.12a.51.51,0,0,1-.42-.53,1.49,1.49,0,0,1,.42-.88l.09-.11A3.88,3.88,0,0,0,58.57,17a3.75,3.75,0,0,0-4-3.74,3.85,3.85,0,0,0-4,3.74,4,4,0,0,0,1.12,2.64l.1.13a1.34,1.34,0,0,1,.37.82.55.55,0,0,1-.46.57H44V13.39a1.46,1.46,0,0,0-1.46-1.27,2.24,2.24,0,0,0-1.39.57L41,12.8a3.13,3.13,0,0,1-2.07.91,3,3,0,0,1-2.85-3.13A2.82,2.82,0,0,1,39,7.47a3,3,0,0,1,2,.88l.1.09a2.3,2.3,0,0,0,1.46.6A1.44,1.44,0,0,0,44,7.8V0H65.18V7.74A1.46,1.46,0,0,0,66.64,9,2.21,2.21,0,0,0,68,8.44l.14-.11a3.13,3.13,0,0,1,2.07-.91,3,3,0,0,1,2.85,3.14,2.82,2.82,0,0,1-2.85,3.11,3,3,0,0,1-2.07-.91l-.1-.09A2.33,2.33,0,0,0,66.6,12a1.42,1.42,0,0,0-1.42,1.23v7.86H57.36Z"/><path class="cls-4" d="M57.39,21a.35.35,0,0,1-.3-.38,1.37,1.37,0,0,1,.39-.79l.09-.1A4.06,4.06,0,0,0,58.72,17a3.9,3.9,0,0,0-4.16-3.9A4,4,0,0,0,50.39,17a4.12,4.12,0,0,0,1.15,2.74l.11.13a1.27,1.27,0,0,1,.33.72.4.4,0,0,1-.34.42H44.17v-7.6A1.6,1.6,0,0,0,42.55,12a2.35,2.35,0,0,0-1.48.6l-.14.11a3,3,0,0,1-2,.88,2.82,2.82,0,0,1-2.7-3,2.68,2.68,0,0,1,2.7-3,2.89,2.89,0,0,1,1.95.84l.11.09a2.38,2.38,0,0,0,1.55.64,1.59,1.59,0,0,0,1.59-1.37V.16H65v7.6a1.62,1.62,0,0,0,1.61,1.41,2.37,2.37,0,0,0,1.49-.61l.13-.11a3,3,0,0,1,2-.87,2.81,2.81,0,0,1,2.7,3,2.68,2.68,0,0,1-2.7,2.95,2.93,2.93,0,0,1-2-.86l-.11-.09a2.4,2.4,0,0,0-1.56-.67A1.57,1.57,0,0,0,65,13.25V21Z"/><polygon class="cls-5" points="57.48 21.57 57.48 21.57 57.69 21.57 57.48 21.57"/><polygon class="cls-6" points="57.48 21.57 57.48 21.57 57.69 21.57 57.48 21.57"/><path class="cls-7" d="M32.56,29a2.82,2.82,0,0,1-3.11-2.85,3.06,3.06,0,0,1,.9-2.07l.09-.11a2.25,2.25,0,0,0,.64-1.46,1.41,1.41,0,0,0-1.19-1.41H22v-7.8a.51.51,0,0,1,.53-.41,1.51,1.51,0,0,1,.89.42l.11.09a3.91,3.91,0,0,0,2.65,1.12,3.76,3.76,0,0,0,3.75-4,3.85,3.85,0,0,0-3.75-4,4,4,0,0,0-2.65,1.11l-.13.11a1.43,1.43,0,0,1-.83.37A.56.56,0,0,1,22,7.65V0H43.12v7.7h0a.56.56,0,0,1-.55.49,1.57,1.57,0,0,1-.85-.4l-.13-.11a4,4,0,0,0-2.65-1.11,3.77,3.77,0,0,0-3.74,4,3.75,3.75,0,0,0,3.75,4,4,4,0,0,0,2.65-1.11l.11-.09a1.51,1.51,0,0,1,.89-.43.52.52,0,0,1,.52.41h0v7.78H35.36a1.45,1.45,0,0,0-1.26,1.45A2.2,2.2,0,0,0,34.67,24l.11.14a3.06,3.06,0,0,1,.91,2.07A3,3,0,0,1,32.56,29Z"/><path class="cls-8" d="M32.56,28.88a2.69,2.69,0,0,1-3-2.7,2.89,2.89,0,0,1,.87-2l.09-.11a2.45,2.45,0,0,0,.67-1.56A1.55,1.55,0,0,0,29.91,21h-7.8V13.37a.36.36,0,0,1,.38-.3,1.34,1.34,0,0,1,.79.39l.11.09a4.06,4.06,0,0,0,2.75,1.15A3.9,3.9,0,0,0,30,10.54a4,4,0,0,0-3.9-4.17,4.13,4.13,0,0,0-2.75,1.15l-.13.1a1.25,1.25,0,0,1-.73.34.4.4,0,0,1-.42-.34V.16H43V7.69a.42.42,0,0,1-.4.37,1.45,1.45,0,0,1-.76-.37l-.12-.11a4.13,4.13,0,0,0-2.75-1.15A3.92,3.92,0,0,0,35,10.55a3.89,3.89,0,0,0,3.9,4.15,4.06,4.06,0,0,0,2.75-1.15l.11-.09a1.35,1.35,0,0,1,.79-.38.37.37,0,0,1,.38.28V21H35.33A1.59,1.59,0,0,0,34,22.58a2.36,2.36,0,0,0,.6,1.49l.12.13a3,3,0,0,1,.87,2A2.81,2.81,0,0,1,32.56,28.88Z"/><path class="cls-9" d="M35.44,43.18h0a.56.56,0,0,1-.49-.54,1.59,1.59,0,0,1,.4-.86l.11-.13A4,4,0,0,0,36.56,39a3.77,3.77,0,0,0-4-3.75,3.75,3.75,0,0,0-4,3.76,4,4,0,0,0,1.11,2.65l.09.1a1.53,1.53,0,0,1,.43.89.52.52,0,0,1-.4.53H22V35.42a1.44,1.44,0,0,0-1.45-1.25,2.2,2.2,0,0,0-1.39.57l-.14.11a3.11,3.11,0,0,1-2.07.91,3,3,0,0,1-2.85-3.13A2.83,2.83,0,0,1,17,29.51a3,3,0,0,1,2.07.91l.11.09a2.25,2.25,0,0,0,1.46.63A1.41,1.41,0,0,0,22,30V22h7.79a.53.53,0,0,1,.42.53,1.51,1.51,0,0,1-.42.9l-.09.1A3.93,3.93,0,0,0,28.6,26.2a3.76,3.76,0,0,0,4,3.76,3.86,3.86,0,0,0,4-3.76,4,4,0,0,0-1.11-2.65l-.11-.13A1.38,1.38,0,0,1,35,22.6.57.57,0,0,1,35.5,22h7.64v7.86a1.34,1.34,0,0,0,1.42,1.27A2.29,2.29,0,0,0,46,30.51l.1-.09a3.06,3.06,0,0,1,2.07-.9,2.83,2.83,0,0,1,2.86,3.11,3,3,0,0,1-2.86,3.13,3.08,3.08,0,0,1-2.07-.91L46,34.74a2.2,2.2,0,0,0-1.39-.57,1.4,1.4,0,0,0-1.46,1.31v7.71Z"/><path class="cls-10" d="M35.46,43a.4.4,0,0,1-.37-.39,1.42,1.42,0,0,1,.37-.76l.11-.13A4.1,4.1,0,0,0,36.72,39a3.93,3.93,0,0,0-4.12-3.9A3.9,3.9,0,0,0,28.45,39a4.08,4.08,0,0,0,1.15,2.75l.09.1a1.4,1.4,0,0,1,.38.79.35.35,0,0,1-.28.38H22.18V35.4A1.59,1.59,0,0,0,20.57,34a2.37,2.37,0,0,0-1.49.61l-.13.11a3,3,0,0,1-2,.88,2.82,2.82,0,0,1-2.7-3,2.68,2.68,0,0,1,2.7-3,2.89,2.89,0,0,1,2,.87l.11.09a2.45,2.45,0,0,0,1.56.67A1.56,1.56,0,0,0,22.17,30v-7.8h7.61a.37.37,0,0,1,.3.38,1.36,1.36,0,0,1-.39.8l-.09.1a4.08,4.08,0,0,0-1.15,2.75,3.91,3.91,0,0,0,4.16,3.91,4,4,0,0,0,4.17-3.91,4.1,4.1,0,0,0-1.15-2.74l-.1-.13a1.28,1.28,0,0,1-.34-.73.42.42,0,0,1,.34-.43H43v7.71a1.48,1.48,0,0,0,1.57,1.42,2.45,2.45,0,0,0,1.56-.67l.1-.09a2.89,2.89,0,0,1,2-.87,2.68,2.68,0,0,1,2.7,3,2.82,2.82,0,0,1-2.7,3,3,3,0,0,1-2-.87l-.13-.11A2.36,2.36,0,0,0,44.6,34,1.54,1.54,0,0,0,43,35.48V43Z"/><path class="cls-11" d="M54.55,51a3,3,0,0,1-3.13-2.86,3.13,3.13,0,0,1,.91-2.07l.11-.13A2.2,2.2,0,0,0,53,44.59a1.39,1.39,0,0,0-1.31-1.46H44v-7.7h0a.56.56,0,0,1,.54-.49,1.56,1.56,0,0,1,.86.4l.13.11a4,4,0,0,0,2.65,1.11,3.77,3.77,0,0,0,3.74-4,3.7,3.7,0,0,0-3.75-4,3.88,3.88,0,0,0-2.64,1.12l-.11.09a1.51,1.51,0,0,1-.9.42.52.52,0,0,1-.53-.39V22h7.76A1.45,1.45,0,0,0,53,20.56a2.2,2.2,0,0,0-.57-1.39L52.34,19A3,3,0,0,1,51.43,17a3,3,0,0,1,3.13-2.85A2.82,2.82,0,0,1,57.67,17,3,3,0,0,1,56.76,19l-.09.11A2.31,2.31,0,0,0,56,20.6,1.41,1.41,0,0,0,57.23,22h7.93v7.8a.51.51,0,0,1-.53.41,1.46,1.46,0,0,1-.89-.42l-.11-.09A3.91,3.91,0,0,0,61,28.59a3.76,3.76,0,0,0-3.75,4,3.85,3.85,0,0,0,3.75,4,4,4,0,0,0,2.65-1.11l.13-.11a1.4,1.4,0,0,1,.83-.37.56.56,0,0,1,.57.46v7.64H57.3A1.33,1.33,0,0,0,56,44.55,2.28,2.28,0,0,0,56.67,46l.09.11a3,3,0,0,1,.91,2.06A2.84,2.84,0,0,1,54.55,51Z"/><path class="cls-12" d="M54.55,50.88a2.81,2.81,0,0,1-3-2.7,3,3,0,0,1,.87-2l.11-.13a2.41,2.41,0,0,0,.61-1.49A1.55,1.55,0,0,0,51.7,43H44.15V35.45a.42.42,0,0,1,.39-.37,1.39,1.39,0,0,1,.76.37l.13.11a4.13,4.13,0,0,0,2.75,1.15,3.92,3.92,0,0,0,3.89-4.12,3.84,3.84,0,0,0-3.9-4.12,4.06,4.06,0,0,0-2.74,1.15l-.11.09a1.36,1.36,0,0,1-.8.39.37.37,0,0,1-.38-.28V22.17h7.63a1.59,1.59,0,0,0,1.39-1.6,2.32,2.32,0,0,0-.61-1.49l-.11-.13a3,3,0,0,1-.87-2,2.81,2.81,0,0,1,3-2.7,2.69,2.69,0,0,1,3,2.7,2.93,2.93,0,0,1-.87,2l-.09.11a2.45,2.45,0,0,0-.67,1.56,1.55,1.55,0,0,0,1.32,1.56H65v7.61a.36.36,0,0,1-.38.3,1.36,1.36,0,0,1-.8-.39l-.1-.09A4.06,4.06,0,0,0,61,28.44a3.9,3.9,0,0,0-3.9,4.16A4,4,0,0,0,61,36.77a4.13,4.13,0,0,0,2.75-1.15l.13-.1a1.25,1.25,0,0,1,.73-.34.4.4,0,0,1,.42.34V43H57.3a1.48,1.48,0,0,0-1.41,1.57,2.43,2.43,0,0,0,.66,1.56l.09.1a2.93,2.93,0,0,1,.87,2A2.68,2.68,0,0,1,54.55,50.88Z"/><path class="cls-13" d="M13.35,21.12a.53.53,0,0,1-.42-.53,1.48,1.48,0,0,1,.42-.89l.09-.11A3.88,3.88,0,0,0,14.56,17a3.75,3.75,0,0,0-4-3.74,3.85,3.85,0,0,0-4,3.74,4,4,0,0,0,1.12,2.64l.1.13a1.4,1.4,0,0,1,.37.83.55.55,0,0,1-.46.56H0V0H21.11V7.73A1.46,1.46,0,0,0,22.58,9,2.23,2.23,0,0,0,24,8.43l.13-.11a3.13,3.13,0,0,1,2.07-.91A3,3,0,0,1,29,10.54a2.83,2.83,0,0,1-2.85,3.12,3,3,0,0,1-2.07-.91l-.1-.09A2.33,2.33,0,0,0,22.54,12a1.42,1.42,0,0,0-1.42,1.23v7.86H13.35Z"/><path class="cls-14" d="M13.38,21a.37.37,0,0,1-.3-.38,1.34,1.34,0,0,1,.39-.79l.09-.11A4.06,4.06,0,0,0,14.71,17a3.9,3.9,0,0,0-4.16-3.89A4,4,0,0,0,6.38,17a4.1,4.1,0,0,0,1.15,2.74l.11.13a1.29,1.29,0,0,1,.33.73.4.4,0,0,1-.34.41H.16V.15H21v7.6a1.61,1.61,0,0,0,1.61,1.41,2.37,2.37,0,0,0,1.48-.61l.14-.11a3,3,0,0,1,2-.87,2.81,2.81,0,0,1,2.7,3,2.68,2.68,0,0,1-2.7,3,2.93,2.93,0,0,1-2-.86l-.1-.09a2.4,2.4,0,0,0-1.56-.67A1.57,1.57,0,0,0,21,13.24V21Z"/><path class="cls-15" d="M76.62,29a2.83,2.83,0,0,1-3.12-2.85,3.06,3.06,0,0,1,.91-2.07L74.5,24a2.31,2.31,0,0,0,.63-1.46,1.42,1.42,0,0,0-1.23-1.42H66.05V13.36h0a.51.51,0,0,1,.52-.42,1.46,1.46,0,0,1,.89.42l.11.09a3.88,3.88,0,0,0,2.64,1.12,3.75,3.75,0,0,0,3.74-4,3.85,3.85,0,0,0-3.74-4,4,4,0,0,0-2.64,1.12l-.13.1a1.34,1.34,0,0,1-.82.37.55.55,0,0,1-.57-.46h0V0H87.16V21.12H79.43a1.46,1.46,0,0,0-1.27,1.46A2.2,2.2,0,0,0,78.73,24l.11.14a3.11,3.11,0,0,1,.91,2.07A3,3,0,0,1,76.62,29Z"/><path class="cls-16" d="M76.62,28.88a2.68,2.68,0,0,1-3-2.7,2.89,2.89,0,0,1,.87-2l.09-.11a2.43,2.43,0,0,0,.66-1.56A1.57,1.57,0,0,0,73.92,21H66.2V13.38a.36.36,0,0,1,.37-.3,1.31,1.31,0,0,1,.79.39l.11.09a4.06,4.06,0,0,0,2.74,1.15,3.9,3.9,0,0,0,3.9-4.16,4,4,0,0,0-3.9-4.17,4.12,4.12,0,0,0-2.74,1.15l-.13.11a1.3,1.3,0,0,1-.72.33.4.4,0,0,1-.42-.34V.16H87V21h-7.6A1.62,1.62,0,0,0,78,22.58a2.37,2.37,0,0,0,.61,1.49l.11.13a3,3,0,0,1,.87,2A2.81,2.81,0,0,1,76.62,28.88Z"/><path class="cls-17" d="M44,65.14V57.35a1.43,1.43,0,0,0-1.43-1.24,2.26,2.26,0,0,0-1.46.6L41,56.8a3,3,0,0,1-2.05.88,2.82,2.82,0,0,1-2.85-3.11A3,3,0,0,1,39,51.44a3.06,3.06,0,0,1,2.07.91l.13.11a2.24,2.24,0,0,0,1.4.57A1.47,1.47,0,0,0,44,51.75V44h7.65a.56.56,0,0,1,.47.56,1.36,1.36,0,0,1-.38.83l-.1.13a4,4,0,0,0-1.12,2.64,3.85,3.85,0,0,0,4,3.74,3.75,3.75,0,0,0,4-3.74,3.88,3.88,0,0,0-1.12-2.64l-.09-.11a1.48,1.48,0,0,1-.42-.89.52.52,0,0,1,.42-.52h7.82v7.86a1.42,1.42,0,0,0,1.42,1.23,2.33,2.33,0,0,0,1.46-.63l.1-.09a3.06,3.06,0,0,1,2.07-.91,2.82,2.82,0,0,1,2.85,3.11,3,3,0,0,1-2.85,3.14,3.13,3.13,0,0,1-2.07-.91l-.13-.11a2.25,2.25,0,0,0-1.39-.58,1.46,1.46,0,0,0-1.46,1.28v7.73Z"/><path class="cls-18" d="M44.18,65V57.33A1.58,1.58,0,0,0,42.59,56a2.42,2.42,0,0,0-1.56.63l-.11.1a2.87,2.87,0,0,1-2,.84,2.68,2.68,0,0,1-2.7-3,2.82,2.82,0,0,1,2.7-3,3,3,0,0,1,2,.87l.14.12a2.36,2.36,0,0,0,1.49.6,1.61,1.61,0,0,0,1.61-1.4v-7.6h7.47a.4.4,0,0,1,.34.41,1.23,1.23,0,0,1-.33.73l-.11.13a4.1,4.1,0,0,0-1.15,2.74,4,4,0,0,0,4.18,3.9,3.9,3.9,0,0,0,4.15-3.9,4.06,4.06,0,0,0-1.15-2.74l-.09-.11a1.31,1.31,0,0,1-.39-.79.38.38,0,0,1,.3-.38H65V51.9a1.57,1.57,0,0,0,1.57,1.36,2.41,2.41,0,0,0,1.55-.67l.11-.08a2.91,2.91,0,0,1,2-.88,2.68,2.68,0,0,1,2.7,3,2.81,2.81,0,0,1-2.7,3,3,3,0,0,1-2-.87l-.13-.11A2.41,2.41,0,0,0,66.66,56a1.6,1.6,0,0,0-1.61,1.41V65Z"/><path class="cls-19" d="M22,65.19V57.55a.56.56,0,0,1,.57-.46,1.4,1.4,0,0,1,.83.37l.13.11a4,4,0,0,0,2.65,1.11,3.85,3.85,0,0,0,3.75-4,3.76,3.76,0,0,0-3.75-4,3.91,3.91,0,0,0-2.65,1.12l-.11.09a1.46,1.46,0,0,1-.89.42.51.51,0,0,1-.53-.42h0V44.07H29.9a1.41,1.41,0,0,0,1.19-1.41,2.31,2.31,0,0,0-.63-1.46l-.09-.11A3,3,0,0,1,29.46,39a2.82,2.82,0,0,1,3.11-2.85A3,3,0,0,1,35.71,39a3.13,3.13,0,0,1-.91,2.07l-.11.13a2.26,2.26,0,0,0-.58,1.4,1.45,1.45,0,0,0,1.26,1.45h7.76v7.8a.52.52,0,0,1-.53.4,1.53,1.53,0,0,1-.89-.43l-.11-.09A4,4,0,0,0,39,50.65a4,4,0,0,0,0,8,4,4,0,0,0,2.65-1.11l.13-.11a1.52,1.52,0,0,1,.86-.4.56.56,0,0,1,.54.49h0l0,7.7Z"/><path class="cls-20" d="M22.12,65V57.58a.41.41,0,0,1,.42-.34,1.28,1.28,0,0,1,.74.34l.12.1a4.13,4.13,0,0,0,2.75,1.15,4,4,0,0,0,3.91-4.17,3.91,3.91,0,0,0-3.91-4.16,4.06,4.06,0,0,0-2.75,1.15l-.11.09a1.31,1.31,0,0,1-.79.39.36.36,0,0,1-.38-.3V44.22h7.8a1.55,1.55,0,0,0,1.32-1.56,2.45,2.45,0,0,0-.67-1.56L30.48,41a2.93,2.93,0,0,1-.87-2,2.69,2.69,0,0,1,3-2.7,2.81,2.81,0,0,1,3,2.7,3,3,0,0,1-.87,2l-.11.14A2.37,2.37,0,0,0,34,42.62a1.59,1.59,0,0,0,1.39,1.6H43v7.61a.36.36,0,0,1-.38.28,1.34,1.34,0,0,1-.79-.39l-.11-.08A4.06,4.06,0,0,0,39,50.5a4.14,4.14,0,0,0,0,8.27,4.13,4.13,0,0,0,2.75-1.16l.13-.1a1.42,1.42,0,0,1,.76-.37.42.42,0,0,1,.39.37V65Z"/><path class="cls-21" d="M0,65.2V44.08H7.67a.56.56,0,0,1,.46.57,1.34,1.34,0,0,1-.37.83l-.1.13a4,4,0,0,0-1.12,2.64,3.85,3.85,0,0,0,4,3.74,3.75,3.75,0,0,0,4-3.74,3.93,3.93,0,0,0-1.12-2.65l-.09-.1a1.48,1.48,0,0,1-.42-.89.53.53,0,0,1,.42-.53h7.76v7.86a1.42,1.42,0,0,0,1.42,1.23A2.33,2.33,0,0,0,24,52.54l.11-.09a3,3,0,0,1,2.07-.91A2.83,2.83,0,0,1,29,54.65a3,3,0,0,1-2.85,3.14,3.14,3.14,0,0,1-2.08-.91L24,56.77a2.21,2.21,0,0,0-1.39-.58,1.47,1.47,0,0,0-1.46,1.28V65.2Z"/><path class="cls-22" d="M.17,65.05V44.24H7.64a.42.42,0,0,1,.34.42,1.23,1.23,0,0,1-.33.73l-.11.13a4.1,4.1,0,0,0-1.15,2.74,4,4,0,0,0,4.18,3.89,3.9,3.9,0,0,0,4.15-3.89,4,4,0,0,0-1.15-2.74l-.09-.11a1.34,1.34,0,0,1-.39-.79.38.38,0,0,1,.3-.38H21V52a1.57,1.57,0,0,0,1.57,1.36,2.49,2.49,0,0,0,1.56-.66l.1-.09a2.9,2.9,0,0,1,2-.88,2.69,2.69,0,0,1,2.7,3,2.81,2.81,0,0,1-2.7,3,3,3,0,0,1-2-.87l-.13-.11A2.41,2.41,0,0,0,22.59,56,1.61,1.61,0,0,0,21,57.45v7.6Z"/><path class="cls-23" d="M66.06,65.19V57.55h0a.56.56,0,0,1,.57-.46,1.38,1.38,0,0,1,.82.37l.13.1a4,4,0,0,0,2.64,1.12,3.85,3.85,0,0,0,3.75-4,3.76,3.76,0,0,0-3.75-4,3.9,3.9,0,0,0-2.64,1.12l-.11.09a1.46,1.46,0,0,1-.88.42.51.51,0,0,1-.53-.42h0V44.08h7.86a1.42,1.42,0,0,0,1.22-1.42,2.25,2.25,0,0,0-.63-1.46l-.09-.11a3.06,3.06,0,0,1-.9-2.07,2.82,2.82,0,0,1,3.11-2.85A3,3,0,0,1,79.76,39a3.13,3.13,0,0,1-.91,2.07l-.11.13a2.24,2.24,0,0,0-.57,1.4,1.47,1.47,0,0,0,1.27,1.46h7.73V65.2Z"/><path class="cls-24" d="M66.21,65V57.57a.4.4,0,0,1,.42-.34,1.19,1.19,0,0,1,.73.34l.13.1a4.07,4.07,0,0,0,2.73,1.15,4,4,0,0,0,3.9-4.17,3.9,3.9,0,0,0-3.9-4.16,4.06,4.06,0,0,0-2.74,1.15l-.1.09a1.37,1.37,0,0,1-.79.39.37.37,0,0,1-.38-.3V44.24h7.73a1.57,1.57,0,0,0,1.36-1.57,2.45,2.45,0,0,0-.67-1.56L74.54,41a2.91,2.91,0,0,1-.87-2,2.68,2.68,0,0,1,3-2.7,2.82,2.82,0,0,1,3,2.7,3,3,0,0,1-.88,2l-.11.14a2.36,2.36,0,0,0-.6,1.49,1.61,1.61,0,0,0,1.4,1.61H87V65.05Z"/><path class="cls-25" d="M10.58,51.08a2.82,2.82,0,0,1-3.11-2.85,3,3,0,0,1,.88-2l.09-.1a2.27,2.27,0,0,0,.61-1.46A1.45,1.45,0,0,0,7.8,43.18H0V22H7.74A1.47,1.47,0,0,0,9,20.55a2.2,2.2,0,0,0-.57-1.39L8.34,19A3,3,0,0,1,7.43,17a3,3,0,0,1,3.13-2.85A2.82,2.82,0,0,1,13.67,17a3,3,0,0,1-.9,2.07l-.09.11A2.29,2.29,0,0,0,12,20.59,1.42,1.42,0,0,0,13.27,22h7.86v7.82a.51.51,0,0,1-.53.41,1.43,1.43,0,0,1-.89-.42l-.1-.09A3.9,3.9,0,0,0,17,28.63a3.74,3.74,0,0,0-3.75,4,3.84,3.84,0,0,0,3.74,4,4,4,0,0,0,2.62-1.11l.15-.12a1.57,1.57,0,0,1,.84-.4.57.57,0,0,1,.58.51h0l0,7.66H13.4a1.46,1.46,0,0,0-1.28,1.46A2.23,2.23,0,0,0,12.7,46l.11.13a3.13,3.13,0,0,1,.91,2.07A3,3,0,0,1,10.58,51.08Z"/><path class="cls-26" d="M10.58,50.93a2.68,2.68,0,0,1-3-2.7,2.85,2.85,0,0,1,.85-1.95l.09-.1a2.42,2.42,0,0,0,.64-1.56A1.6,1.6,0,0,0,7.82,43H.17V22.17h7.6a1.61,1.61,0,0,0,1.4-1.61,2.36,2.36,0,0,0-.6-1.49l-.12-.13a3,3,0,0,1-.87-2,2.82,2.82,0,0,1,3-2.7,2.68,2.68,0,0,1,3,2.7,2.84,2.84,0,0,1-.87,2l-.09.11a2.45,2.45,0,0,0-.67,1.56,1.57,1.57,0,0,0,1.36,1.57H21V29.8a.36.36,0,0,1-.38.3,1.34,1.34,0,0,1-.79-.39l-.1-.08A4.06,4.06,0,0,0,17,28.47a3.9,3.9,0,0,0-3.9,4.16A4,4,0,0,0,17,36.77a4.11,4.11,0,0,0,2.72-1.14l.15-.12a1.44,1.44,0,0,1,.75-.37.43.43,0,0,1,.42.39L21,43h-7.6A1.61,1.61,0,0,0,12,44.64a2.37,2.37,0,0,0,.61,1.48l.11.14a3,3,0,0,1,.87,2A2.81,2.81,0,0,1,10.58,50.93Z"/></g></g></svg>