<svg xmlns="http://www.w3.org/2000/svg" xmlns:xlink="http://www.w3.org/1999/xlink" viewBox="0 0 86.58 86.6"><defs><style>.cls-1{fill:#030017;}.cls-2{fill:#0d0017;}.cls-3{fill:url(#Fading_Sky);}</style><linearGradient id="Fading_Sky" x1="5.3" y1="43.92" x2="79.24" y2="43.92" gradientUnits="userSpaceOnUse"><stop offset="0" stop-color="#2484c6"/><stop offset="1" stop-color="#2484c6" stop-opacity="0"/></linearGradient></defs><title>puzzletwo</title><g id="Layer_2" data-name="Layer 2"><g id="Ñëîé_1" data-name="Ñëîé 1"><path class="cls-1" d="M57,42.83h0a.52.52,0,0,1-.42-.52,1.49,1.49,0,0,1,.43-.88l.08-.1a3.87,3.87,0,0,0,1.11-2.63,3.72,3.72,0,0,0-4-3.72,3.82,3.82,0,0,0-4,3.72,3.93,3.93,0,0,0,1.1,2.62l.11.13a1.4,1.4,0,0,1,.37.82.56.56,0,0,1-.46.56h-7.6V35.17a1.45,1.45,0,0,0-1.45-1.27,2.19,2.19,0,0,0-1.38.57l-.13.11a3.12,3.12,0,0,1-2.06.9,3,3,0,0,1-2.83-3.11,2.8,2.8,0,0,1,2.83-3.08,2.94,2.94,0,0,1,2,.9l.11.08a2.23,2.23,0,0,0,1.45.63,1.41,1.41,0,0,0,1.41-1.22V21.86h7.68a1.46,1.46,0,0,0,1.28-1.45A2.25,2.25,0,0,0,52.09,19L52,18.89a3.1,3.1,0,0,1-.91-2.06A3,3,0,0,1,54.18,14a2.81,2.81,0,0,1,3.09,2.83,3,3,0,0,1-.9,2.05l-.09.11a2.28,2.28,0,0,0-.63,1.45,1.41,1.41,0,0,0,1.23,1.41h7.84v7.73h0a.53.53,0,0,1-.52.42,1.43,1.43,0,0,1-.88-.43l-.11-.08a3.87,3.87,0,0,0-2.63-1.11,3.73,3.73,0,0,0-3.72,4,3.84,3.84,0,0,0,3.72,4,4,4,0,0,0,2.63-1.11l.13-.11a1.36,1.36,0,0,1,.81-.37.56.56,0,0,1,.57.46h0v7.58Z"/><path class="cls-1" d="M57,42.68a.36.36,0,0,1-.29-.37,1.35,1.35,0,0,1,.38-.78l.09-.11a4,4,0,0,0,1.15-2.72,3.88,3.88,0,0,0-4.14-3.88A4,4,0,0,0,50,38.7a4.07,4.07,0,0,0,1.15,2.72l.1.13a1.18,1.18,0,0,1,.33.72.4.4,0,0,1-.33.41H43.86V35.15a1.6,1.6,0,0,0-1.6-1.4,2.35,2.35,0,0,0-1.48.6l-.13.11a3,3,0,0,1-2,.87,2.8,2.8,0,0,1-2.68-3,2.66,2.66,0,0,1,2.68-2.93,2.85,2.85,0,0,1,2,.86l.11.09a2.43,2.43,0,0,0,1.55.67,1.56,1.56,0,0,0,1.56-1.36V22h7.55a1.6,1.6,0,0,0,1.4-1.6,2.37,2.37,0,0,0-.61-1.48l-.11-.13a3,3,0,0,1-.86-2,2.79,2.79,0,0,1,3-2.68,2.67,2.67,0,0,1,2.94,2.68,2.81,2.81,0,0,1-.87,2l-.09.11a2.44,2.44,0,0,0-.66,1.55A1.56,1.56,0,0,0,56.85,22h7.72v7.56a.36.36,0,0,1-.37.29,1.38,1.38,0,0,1-.79-.38l-.1-.09a4,4,0,0,0-2.73-1.15,3.88,3.88,0,0,0-3.87,4.14,4,4,0,0,0,3.87,4.15,4.07,4.07,0,0,0,2.73-1.15l.13-.1a1.18,1.18,0,0,1,.71-.33.41.41,0,0,1,.42.33v7.4Z"/><path class="cls-1" d="M32.35,50.7a2.94,2.94,0,0,1-3.1-2.83,3.09,3.09,0,0,1,.89-2l.12-.13a2.27,2.27,0,0,0,.57-1.39,1.46,1.46,0,0,0-1.27-1.45H21.87V35.07a1.42,1.42,0,0,0-1.42-1.22,2.25,2.25,0,0,0-1.45.63l-.1.09a3,3,0,0,1-2.06.9A2.81,2.81,0,0,1,14,32.38a2.87,2.87,0,0,1,2.84-3.07,3.05,3.05,0,0,1,2,.87l.13.11a2.31,2.31,0,0,0,1.42.64,1.39,1.39,0,0,0,1.44-1.22V21.87h7.64a.56.56,0,0,1,.46.56,1.39,1.39,0,0,1-.41.82l-.11.13A4,4,0,0,0,28.36,26a3.83,3.83,0,0,0,4,3.73,3.73,3.73,0,0,0,4-3.73,3.87,3.87,0,0,0-1.11-2.62l-.08-.11a1.46,1.46,0,0,1-.42-.88.52.52,0,0,1,.41-.52h7.76l0,7.62h0a.6.6,0,0,1-.58.49,1.36,1.36,0,0,1-.81-.37l-.18-.15a3.87,3.87,0,0,0-2.56-1.09,3.83,3.83,0,0,0-3.73,4,3.73,3.73,0,0,0,3.73,4,3.91,3.91,0,0,0,2.62-1.1l.11-.09a1.46,1.46,0,0,1,.88-.42.52.52,0,0,1,.52.41v0l0,7.68H35.05a1.41,1.41,0,0,0-1.23,1.41,2.28,2.28,0,0,0,.63,1.45l.09.11a3,3,0,0,1,.9,2A2.8,2.8,0,0,1,32.35,50.7Z"/><path class="cls-1" d="M32.35,50.55a2.79,2.79,0,0,1-3-2.68,2.94,2.94,0,0,1,.86-1.95l.11-.14A2.31,2.31,0,0,0,31,44.3a1.6,1.6,0,0,0-1.4-1.6H22V35.05a1.57,1.57,0,0,0-1.57-1.35,2.41,2.41,0,0,0-1.55.66l-.1.09a2.9,2.9,0,0,1-2,.86,2.65,2.65,0,0,1-2.67-2.93,2.71,2.71,0,0,1,2.68-2.92,2.85,2.85,0,0,1,1.93.84l.13.11a2.49,2.49,0,0,0,1.52.67A1.53,1.53,0,0,0,22,29.74V22h7.46a.4.4,0,0,1,.34.41,1.29,1.29,0,0,1-.38.73l-.1.12A4.07,4.07,0,0,0,28.2,26a4,4,0,0,0,4.15,3.88A3.88,3.88,0,0,0,36.49,26a4,4,0,0,0-1.15-2.72l-.09-.11a1.33,1.33,0,0,1-.38-.78.36.36,0,0,1,.29-.37h7.57v7.45a.45.45,0,0,1-.43.36,1.23,1.23,0,0,1-.72-.33l-.18-.15a3.83,3.83,0,0,0-6.53,3,3.88,3.88,0,0,0,3.88,4.13,4,4,0,0,0,2.72-1.15l.11-.09a1.33,1.33,0,0,1,.78-.38.36.36,0,0,1,.37.29l0,7.51H35a1.57,1.57,0,0,0-1.35,1.56,2.44,2.44,0,0,0,.66,1.55l.09.11a2.83,2.83,0,0,1,.87,1.95A2.67,2.67,0,0,1,32.35,50.55Z"/><path class="cls-1" d="M32.38,72.6a2.86,2.86,0,0,1-3.06-2.84,2.93,2.93,0,0,1,.87-2l.11-.14a2.35,2.35,0,0,0,.64-1.42,1.37,1.37,0,0,0-1.22-1.43H21.88V57.1h0a.54.54,0,0,1,.56-.46,1.41,1.41,0,0,1,.82.41l.13.11A4,4,0,0,0,26,58.26a3.82,3.82,0,0,0,3.72-4,3.73,3.73,0,0,0-3.72-4,3.87,3.87,0,0,0-2.62,1.11l-.11.09a1.52,1.52,0,0,1-.88.42.52.52,0,0,1-.52-.42h0V43.73h7.64a.58.58,0,0,1,.48.57,1.34,1.34,0,0,1-.37.82l-.14.17a3.88,3.88,0,0,0-1.1,2.57,3.83,3.83,0,0,0,4,3.72,3.73,3.73,0,0,0,4-3.72,3.87,3.87,0,0,0-1.11-2.63l-.09-.1a1.55,1.55,0,0,1-.42-.88.51.51,0,0,1,.42-.52h0l7.68,0v7.85a1.34,1.34,0,0,0,1.41,1.16,2.31,2.31,0,0,0,1.45-.63l.11-.09a3,3,0,0,1,2.05-.9,2.87,2.87,0,0,1,2.83,3.15,3,3,0,0,1-2.83,3.11,3,3,0,0,1-2.05-.9l-.14-.11a2.19,2.19,0,0,0-1.38-.57,1.45,1.45,0,0,0-1.45,1.27v7.68H35.08a1.41,1.41,0,0,0-1.23,1.41,2.28,2.28,0,0,0,.63,1.45l.09.11a3,3,0,0,1,.9,2A2.8,2.8,0,0,1,32.38,72.6Z"/><path class="cls-1" d="M32.38,72.45a2.72,2.72,0,0,1-2.91-2.69,2.83,2.83,0,0,1,.84-1.93l.11-.13a2.49,2.49,0,0,0,.67-1.52,1.53,1.53,0,0,0-1.35-1.59H22V57.12a.4.4,0,0,1,.41-.33,1.23,1.23,0,0,1,.72.37l.13.11A4.11,4.11,0,0,0,26,58.41a4,4,0,0,0,3.88-4.15A3.87,3.87,0,0,0,26,50.13a4,4,0,0,0-2.73,1.14l-.1.09a1.35,1.35,0,0,1-.78.38.36.36,0,0,1-.37-.29V43.88l7.45,0a.43.43,0,0,1,.36.42,1.3,1.3,0,0,1-.33.72l-.15.18a3.83,3.83,0,0,0,3,6.53,3.87,3.87,0,0,0,4.13-3.87,4,4,0,0,0-1.14-2.73l-.09-.1a1.38,1.38,0,0,1-.38-.78.36.36,0,0,1,.29-.38l7.51,0v7.72a1.49,1.49,0,0,0,1.56,1.29,2.46,2.46,0,0,0,1.55-.66l.1-.09a2.86,2.86,0,0,1,2-.87,2.72,2.72,0,0,1,2.68,3,2.79,2.79,0,0,1-2.68,3,3,3,0,0,1-2-.86l-.13-.11a2.37,2.37,0,0,0-1.48-.61A1.6,1.6,0,0,0,42.71,57v7.54H35.06a1.57,1.57,0,0,0-1.36,1.57,2.43,2.43,0,0,0,.67,1.55l.09.1a2.9,2.9,0,0,1,.86,2A2.67,2.67,0,0,1,32.38,72.45Z"/><path class="cls-1" d="M43.75,57.1h0a.6.6,0,0,1,.58-.49,1.36,1.36,0,0,1,.81.37l.18.15a3.87,3.87,0,0,0,2.56,1.09,3.82,3.82,0,0,0,3.72-4,3.73,3.73,0,0,0-3.72-4,3.89,3.89,0,0,0-2.62,1.11l-.11.09a1.46,1.46,0,0,1-.88.42.52.52,0,0,1-.52-.41v0l0-7.68h7.71a1.42,1.42,0,0,0,1.22-1.43,2.19,2.19,0,0,0-.58-1.44l-.09-.1a3,3,0,0,1-.9-2.05,2.87,2.87,0,0,1,3.18-2.83,2.94,2.94,0,0,1,3.1,2.83,3.09,3.09,0,0,1-.9,2.05l-.11.13a2.25,2.25,0,0,0-.57,1.39,1.46,1.46,0,0,0,1.27,1.45h7.69v7.78a1.42,1.42,0,0,0,1.42,1.22,2.25,2.25,0,0,0,1.45-.63l.1-.09a3,3,0,0,1,2.06-.9,2.8,2.8,0,0,1,2.82,3.09,2.93,2.93,0,0,1-2.84,3.15,3,3,0,0,1-2-.87l-.13-.11a2.37,2.37,0,0,0-1.42-.64,1.35,1.35,0,0,0-1.43,1.18v7.8H57.1a.56.56,0,0,1-.46-.56,1.39,1.39,0,0,1,.41-.82l.11-.13a4,4,0,0,0,1.1-2.63,3.83,3.83,0,0,0-4-3.72,3.72,3.72,0,0,0-4,3.72,3.87,3.87,0,0,0,1.11,2.63l.08.11a1.39,1.39,0,0,1,.42.87.52.52,0,0,1-.41.53H43.73Z"/><path class="cls-1" d="M43.9,57.12a.45.45,0,0,1,.43-.36,1.23,1.23,0,0,1,.72.33l.17.15a4,4,0,0,0,2.66,1.12,4,4,0,0,0,3.88-4.15,3.88,3.88,0,0,0-3.88-4.13,4,4,0,0,0-2.72,1.15l-.11.09a1.33,1.33,0,0,1-.78.38.36.36,0,0,1-.37-.29l0-7.52h7.58a1.58,1.58,0,0,0,1.36-1.58,2.28,2.28,0,0,0-.63-1.53l-.09-.11a2.87,2.87,0,0,1-.86-2,2.74,2.74,0,0,1,3-2.68,2.79,2.79,0,0,1,2.95,2.68,2.94,2.94,0,0,1-.86,2l-.11.13a2.34,2.34,0,0,0-.61,1.49,1.61,1.61,0,0,0,1.4,1.6h7.55v7.65a1.57,1.57,0,0,0,1.57,1.35,2.39,2.39,0,0,0,1.54-.66l.11-.09a2.85,2.85,0,0,1,2-.86,2.65,2.65,0,0,1,2.67,2.93,2.69,2.69,0,0,1-4.62,2.16l-.13-.11a2.55,2.55,0,0,0-1.52-.67A1.49,1.49,0,0,0,64.6,56.9v7.66H57.13a.4.4,0,0,1-.34-.41,1.29,1.29,0,0,1,.38-.73l.1-.12a4.1,4.1,0,0,0,1.15-2.73,4,4,0,0,0-4.16-3.87,3.87,3.87,0,0,0-4.13,3.87,4,4,0,0,0,1.15,2.73l.09.1a1.38,1.38,0,0,1,.38.78.36.36,0,0,1-.29.38H43.89Z"/><path class="cls-1" d="M21.88,79h0a.55.55,0,0,1,.56-.45,1.38,1.38,0,0,1,.82.36l.13.11A3.93,3.93,0,0,0,26,80.14a3.82,3.82,0,0,0,3.72-4,3.73,3.73,0,0,0-3.72-4,3.87,3.87,0,0,0-2.63,1.11l-.1.09a1.46,1.46,0,0,1-.88.42.53.53,0,0,1-.52-.4V65.64h7.69a.55.55,0,0,1,.46.56,1.52,1.52,0,0,1-.43.82l-.11.13a3.93,3.93,0,0,0-1.11,2.62,3.74,3.74,0,0,0,4,3.72,3.72,3.72,0,0,0,4-3.72,3.87,3.87,0,0,0-1.11-2.63l-.08-.1a1.28,1.28,0,0,1-.36-.87.52.52,0,0,1,.41-.53h7.61v7.73a.51.51,0,0,1-.52.41,1.43,1.43,0,0,1-.88-.42l-.1-.09a3.92,3.92,0,0,0-2.63-1.1,3.72,3.72,0,0,0-3.72,4,3.82,3.82,0,0,0,3.72,4A3.89,3.89,0,0,0,41.31,79l.13-.1a1.4,1.4,0,0,1,.82-.37.56.56,0,0,1,.56.46h0V86.6H21.88Z"/><path class="cls-1" d="M22,79a.39.39,0,0,1,.41-.33,1.21,1.21,0,0,1,.72.33l.13.11A4.11,4.11,0,0,0,26,80.29a4,4,0,0,0,3.87-4.15A3.87,3.87,0,0,0,26,72a4,4,0,0,0-2.73,1.14l-.1.09a1.35,1.35,0,0,1-.78.38.35.35,0,0,1-.37-.28V65.79h7.51a.4.4,0,0,1,.34.41c0,.11-.07.32-.4.72l-.1.13a4.07,4.07,0,0,0-1.15,2.72,3.89,3.89,0,0,0,4.15,3.87,3.88,3.88,0,0,0,4.14-3.87A4,4,0,0,0,35.37,67l-.09-.1a1.15,1.15,0,0,1-.32-.77.36.36,0,0,1,.29-.38h7.43v7.55a.36.36,0,0,1-.37.29,1.35,1.35,0,0,1-.78-.38l-.11-.09A4,4,0,0,0,38.69,72a3.87,3.87,0,0,0-3.87,4.13,4,4,0,0,0,3.87,4.15,4.07,4.07,0,0,0,2.72-1.14l.13-.11a1.24,1.24,0,0,1,.72-.33.4.4,0,0,1,.41.34v7.4H22Z"/><path class="cls-1" d="M79,42.89h0a.54.54,0,0,1-.45-.56,1.4,1.4,0,0,1,.37-.82l.11-.13a4,4,0,0,0,1.1-2.63,3.83,3.83,0,0,0-4-3.73,3.73,3.73,0,0,0-4,3.73,3.92,3.92,0,0,0,1.11,2.64l.08.1a1.46,1.46,0,0,1,.42.88.51.51,0,0,1-.39.52H65.6v-7.7a1.44,1.44,0,0,0-1.45-1.25,2.19,2.19,0,0,0-1.38.57l-.13.11a3.1,3.1,0,0,1-2.06.9,3,3,0,0,1-2.83-3.11,2.8,2.8,0,0,1,2.83-3.08,3,3,0,0,1,2,.89l.11.09a2.25,2.25,0,0,0,1.45.63,1.4,1.4,0,0,0,1.41-1.18V21.88h7.74a.51.51,0,0,1,.41.52,1.49,1.49,0,0,1-.42.88l-.09.11A3.87,3.87,0,0,0,72.12,26a3.73,3.73,0,0,0,4,3.73,3.83,3.83,0,0,0,4-3.73A3.94,3.94,0,0,0,79,23.39l-.11-.13a1.45,1.45,0,0,1-.36-.82.54.54,0,0,1,.46-.56h7.58v21Z"/><path class="cls-1" d="M79,42.74a.41.41,0,0,1-.33-.42A1.23,1.23,0,0,1,79,41.6l.1-.13a4.07,4.07,0,0,0,1.15-2.73,4,4,0,0,0-4.16-3.88A3.88,3.88,0,0,0,72,38.74a4,4,0,0,0,1.15,2.73l.09.11a1.35,1.35,0,0,1,.38.78.36.36,0,0,1-.28.37H65.75V35.16a1.58,1.58,0,0,0-1.6-1.38,2.35,2.35,0,0,0-1.48.6l-.13.11a3,3,0,0,1-2,.87,2.79,2.79,0,0,1-2.67-3,2.66,2.66,0,0,1,2.67-2.93,2.9,2.9,0,0,1,2,.86l.1.09a2.41,2.41,0,0,0,1.55.66,1.55,1.55,0,0,0,1.56-1.31V22h7.55a.36.36,0,0,1,.3.38,1.34,1.34,0,0,1-.39.79l-.09.1A4.1,4.1,0,0,0,72,26a3.88,3.88,0,0,0,4.13,3.89A4,4,0,0,0,80.25,26a4.07,4.07,0,0,0-1.14-2.73L79,23.16a1.24,1.24,0,0,1-.33-.72A.4.4,0,0,1,79,22h7.4V42.74Z"/><path class="cls-1" d="M57,21a.51.51,0,0,1-.41-.52,1.49,1.49,0,0,1,.42-.88l.09-.1a3.92,3.92,0,0,0,1.11-2.63,3.73,3.73,0,0,0-4-3.72,3.83,3.83,0,0,0-4,3.72,3.94,3.94,0,0,0,1.11,2.63l.1.12a1.4,1.4,0,0,1,.37.82.54.54,0,0,1-.46.56H43.72V13.3A1.45,1.45,0,0,0,42.26,12a2.19,2.19,0,0,0-1.38.57l-.13.11a3.1,3.1,0,0,1-2.06.9,3,3,0,0,1-2.83-3.11,2.8,2.8,0,0,1,2.83-3.08,2.94,2.94,0,0,1,2,.87l.11.09a2.26,2.26,0,0,0,1.45.6,1.43,1.43,0,0,0,1.43-1.24V0h21V7.68A1.45,1.45,0,0,0,66.19,9a2.23,2.23,0,0,0,1.38-.56l.13-.11a3.06,3.06,0,0,1,2.06-.91,3,3,0,0,1,2.83,3.11,2.81,2.81,0,0,1-2.83,3.09,3,3,0,0,1-2.06-.9l-.1-.09A2.31,2.31,0,0,0,66.15,12a1.42,1.42,0,0,0-1.42,1.23V21H57Z"/><path class="cls-1" d="M57,20.82a.34.34,0,0,1-.29-.37,1.34,1.34,0,0,1,.39-.78l.08-.1a4,4,0,0,0,1.15-2.73A3.87,3.87,0,0,0,54.19,13,4,4,0,0,0,50,16.84a4.09,4.09,0,0,0,1.14,2.73l.11.12a1.3,1.3,0,0,1,.33.72.4.4,0,0,1-.34.41H43.87V13.28a1.6,1.6,0,0,0-1.6-1.4,2.35,2.35,0,0,0-1.48.6l-.13.11a3,3,0,0,1-2,.87,2.8,2.8,0,0,1-2.68-3,2.66,2.66,0,0,1,2.68-2.93,2.82,2.82,0,0,1,1.94.84l.1.09a2.42,2.42,0,0,0,1.55.63,1.59,1.59,0,0,0,1.58-1.37V.16H64.58V7.7a1.61,1.61,0,0,0,1.61,1.41,2.39,2.39,0,0,0,1.48-.61l.13-.11a3,3,0,0,1,2-.86,2.78,2.78,0,0,1,2.67,3,2.66,2.66,0,0,1-2.67,2.94,2.86,2.86,0,0,1-2-.87l-.1-.09a2.43,2.43,0,0,0-1.55-.66,1.57,1.57,0,0,0-1.57,1.35v7.67Z"/><path class="cls-1" d="M43.73,86.59V78.92a1.45,1.45,0,0,0-1.45-1.27,2.19,2.19,0,0,0-1.38.57l-.13.11a3.12,3.12,0,0,1-2.06.9,2.94,2.94,0,0,1-2.83-3.1A2.8,2.8,0,0,1,38.7,73a3,3,0,0,1,2,.9l.11.08a2.25,2.25,0,0,0,1.45.64,1.41,1.41,0,0,0,1.41-1.23v-7.8h7.72a1.43,1.43,0,0,0,1.21-1.43,2.2,2.2,0,0,0-.59-1.44l-.09-.1a3,3,0,0,1-.9-2,2.88,2.88,0,0,1,3.18-2.83,2.94,2.94,0,0,1,3.11,2.83,3.09,3.09,0,0,1-.9,2l-.11.13a2.22,2.22,0,0,0-.57,1.39,1.45,1.45,0,0,0,1.26,1.45h7.69V73.3a1.47,1.47,0,0,0,1.46,1.28A2.25,2.25,0,0,0,67.58,74l.13-.11A3.1,3.1,0,0,1,69.77,73,3,3,0,0,1,72.6,76.1a2.81,2.81,0,0,1-2.83,3.09,3,3,0,0,1-2-.87l-.1-.09a2.21,2.21,0,0,0-1.45-.6,1.43,1.43,0,0,0-1.43,1.23v7.73Z"/><path class="cls-1" d="M43.88,86.44V78.9a1.6,1.6,0,0,0-1.6-1.4,2.35,2.35,0,0,0-1.48.6l-.13.11a3,3,0,0,1-2,.87,2.8,2.8,0,0,1-2.68-3,2.67,2.67,0,0,1,2.68-2.94,2.85,2.85,0,0,1,1.95.86l.11.09a2.43,2.43,0,0,0,1.55.67,1.58,1.58,0,0,0,1.57-1.36V65.78h7.58a1.58,1.58,0,0,0,1.34-1.58,2.32,2.32,0,0,0-.62-1.53l-.09-.11a2.83,2.83,0,0,1-.86-2,2.73,2.73,0,0,1,3-2.68,2.79,2.79,0,0,1,3,2.68,2.9,2.9,0,0,1-.87,2l-.11.13a2.4,2.4,0,0,0-.6,1.49A1.6,1.6,0,0,0,57,65.78h7.56v7.54a1.61,1.61,0,0,0,1.61,1.4,2.35,2.35,0,0,0,1.48-.6l.13-.12a3,3,0,0,1,2-.86,2.78,2.78,0,0,1,2.67,2.95A2.66,2.66,0,0,1,69.77,79a2.86,2.86,0,0,1-1.94-.84l-.1-.09a2.4,2.4,0,0,0-1.55-.64,1.58,1.58,0,0,0-1.58,1.37v7.6Z"/><rect class="cls-1" x="57.08" y="21.27" width="0.21" height="0.3"/><polygon class="cls-1" points="57.08 21.42 57.08 21.42 57.29 21.42 57.08 21.42"/><path class="cls-1" d="M32.34,28.83A2.8,2.8,0,0,1,29.25,26a3,3,0,0,1,.9-2.05l.09-.11a2.31,2.31,0,0,0,.63-1.45A1.41,1.41,0,0,0,29.68,21H21.81V13.24a.51.51,0,0,1,.52-.41,1.48,1.48,0,0,1,.89.42l.1.09A3.92,3.92,0,0,0,26,14.45a3.73,3.73,0,0,0,3.73-4,3.84,3.84,0,0,0-3.73-4,4,4,0,0,0-2.64,1.11l-.13.1a1.36,1.36,0,0,1-.82.37.56.56,0,0,1-.56-.46h0V0h21V7.65h0a.56.56,0,0,1-.54.49,1.54,1.54,0,0,1-.85-.4l-.13-.11a3.94,3.94,0,0,0-2.63-1.1,3.75,3.75,0,0,0-3.72,3.93,3.73,3.73,0,0,0,3.73,4,3.9,3.9,0,0,0,2.64-1.11l.1-.08a1.45,1.45,0,0,1,.88-.43.52.52,0,0,1,.52.4V21H35.11a1.44,1.44,0,0,0-1.25,1.45,2.19,2.19,0,0,0,.57,1.38l.11.13a3.1,3.1,0,0,1,.9,2.06A2.94,2.94,0,0,1,32.34,28.83Z"/><path class="cls-1" d="M32.34,28.67A2.66,2.66,0,0,1,29.4,26a2.9,2.9,0,0,1,.86-2l.09-.1A2.43,2.43,0,0,0,31,22.39a1.55,1.55,0,0,0-1.31-1.56H22V13.27a.36.36,0,0,1,.37-.29,1.34,1.34,0,0,1,.79.39l.1.08A4.06,4.06,0,0,0,26,14.6a3.88,3.88,0,0,0,3.88-4.13A4,4,0,0,0,26,6.32a4.12,4.12,0,0,0-2.74,1.14l-.12.11a1.29,1.29,0,0,1-.73.33A.4.4,0,0,1,22,7.56V.16H42.67V7.63a.42.42,0,0,1-.39.37,1.4,1.4,0,0,1-.75-.37l-.13-.1a4.07,4.07,0,0,0-2.73-1.15,3.9,3.9,0,0,0-3.87,4.09,3.88,3.88,0,0,0,3.88,4.14,4.06,4.06,0,0,0,2.74-1.15l.1-.09a1.38,1.38,0,0,1,.78-.38.37.37,0,0,1,.38.28v7.55H35.09a1.59,1.59,0,0,0-1.38,1.6,2.35,2.35,0,0,0,.6,1.48l.11.13a3,3,0,0,1,.87,2A2.79,2.79,0,0,1,32.34,28.67Z"/><path class="cls-1" d="M13.25,21a.5.5,0,0,1-.41-.52,1.49,1.49,0,0,1,.42-.88l.09-.1a3.92,3.92,0,0,0,1.11-2.63,3.73,3.73,0,0,0-4-3.72,3.83,3.83,0,0,0-4,3.72,3.94,3.94,0,0,0,1.11,2.63l.1.13a1.36,1.36,0,0,1,.37.81A.54.54,0,0,1,7.6,21H0V0H21V7.67A1.46,1.46,0,0,0,22.42,9a2.23,2.23,0,0,0,1.38-.57l.14-.11a3.05,3.05,0,0,1,2-.91,3,3,0,0,1,2.83,3.11A2.81,2.81,0,0,1,26,13.56a3,3,0,0,1-2-.9l-.11-.09a2.28,2.28,0,0,0-1.45-.63A1.41,1.41,0,0,0,21,13.16V21H13.25Z"/><path class="cls-1" d="M13.28,20.82a.36.36,0,0,1-.29-.38,1.34,1.34,0,0,1,.39-.78l.08-.1a4,4,0,0,0,1.15-2.73A3.87,3.87,0,0,0,10.48,13a4,4,0,0,0-4.15,3.87,4.09,4.09,0,0,0,1.14,2.73l.11.12a1.3,1.3,0,0,1,.33.72.41.41,0,0,1-.34.42H.16V.15H20.81V7.7a1.6,1.6,0,0,0,1.6,1.4,2.37,2.37,0,0,0,1.48-.61L24,8.38a3,3,0,0,1,2-.86,2.79,2.79,0,0,1,2.68,3A2.67,2.67,0,0,1,26,13.41,2.83,2.83,0,0,1,24,12.54l-.11-.09a2.44,2.44,0,0,0-1.55-.66,1.56,1.56,0,0,0-1.56,1.35v7.67Z"/><path class="cls-1" d="M.08,86.6v-21h7.6a.54.54,0,0,1,.45.56,1.38,1.38,0,0,1-.36.82l-.11.12a4,4,0,0,0-1.11,2.63,3.83,3.83,0,0,0,4,3.72,3.73,3.73,0,0,0,4-3.72,3.87,3.87,0,0,0-1.11-2.63l-.09-.1a1.55,1.55,0,0,1-.42-.88.51.51,0,0,1,.42-.52H21v7.8a1.42,1.42,0,0,0,1.42,1.22A2.31,2.31,0,0,0,23.91,74l.1-.09a3,3,0,0,1,2.06-.9,2.8,2.8,0,0,1,2.82,3.09,2.94,2.94,0,0,1-2.82,3.11,3.1,3.1,0,0,1-2.06-.9l-.13-.11a2.19,2.19,0,0,0-1.38-.57A1.45,1.45,0,0,0,21,78.93V86.6Z"/><path class="cls-1" d="M.23,86.45V65.79H7.65A.4.4,0,0,1,8,66.2a1.23,1.23,0,0,1-.33.72l-.11.13A4.09,4.09,0,0,0,6.4,69.77a4,4,0,0,0,4.15,3.87,3.87,3.87,0,0,0,4.13-3.87A4,4,0,0,0,13.54,67l-.09-.1a1.38,1.38,0,0,1-.38-.78.34.34,0,0,1,.29-.37h7.52v7.67a1.57,1.57,0,0,0,1.57,1.35A2.44,2.44,0,0,0,24,74.15l.11-.09a2.85,2.85,0,0,1,2-.86,2.65,2.65,0,0,1,2.67,2.93,2.78,2.78,0,0,1-2.67,3,3,3,0,0,1-2-.86L24,78.11a2.39,2.39,0,0,0-1.48-.61,1.61,1.61,0,0,0-1.61,1.41v7.54Z"/><path class="cls-1" d="M76.09,28.83A2.81,2.81,0,0,1,73,26a3,3,0,0,1,.9-2.06l.09-.1a2.31,2.31,0,0,0,.63-1.45A1.42,1.42,0,0,0,73.4,21H65.6V13.25a.5.5,0,0,1,.52-.41,1.49,1.49,0,0,1,.88.42l.1.09a3.92,3.92,0,0,0,2.63,1.11,3.73,3.73,0,0,0,3.72-4,3.83,3.83,0,0,0-3.72-4A3.94,3.94,0,0,0,67.1,7.59L67,7.7a1.34,1.34,0,0,1-.81.36.54.54,0,0,1-.56-.45V0h21V21H78.89a1.45,1.45,0,0,0-1.27,1.46,2.23,2.23,0,0,0,.56,1.38l.11.13A3.06,3.06,0,0,1,79.2,26,3,3,0,0,1,76.09,28.83Z"/><path class="cls-1" d="M76.09,28.67A2.66,2.66,0,0,1,73.15,26,2.86,2.86,0,0,1,74,24l.09-.1a2.46,2.46,0,0,0,.66-1.55,1.57,1.57,0,0,0-1.35-1.57H65.75V13.29a.36.36,0,0,1,.38-.3,1.34,1.34,0,0,1,.78.39l.1.09a4.07,4.07,0,0,0,2.73,1.14,3.87,3.87,0,0,0,3.87-4.13,4,4,0,0,0-3.87-4.15A4.09,4.09,0,0,0,67,7.47l-.12.11a1.3,1.3,0,0,1-.72.33.4.4,0,0,1-.41-.33V.16H86.41V20.82H78.87a1.61,1.61,0,0,0-1.41,1.61,2.32,2.32,0,0,0,.61,1.47l.11.14A3,3,0,0,1,79,26,2.78,2.78,0,0,1,76.09,28.67Z"/><path class="cls-1" d="M10.51,50.73A2.81,2.81,0,0,1,7.42,47.9a3,3,0,0,1,.87-2l.09-.11A2.21,2.21,0,0,0,9,44.31a1.43,1.43,0,0,0-1.23-1.43H0v-21H7.69A1.45,1.45,0,0,0,9,20.41,2.22,2.22,0,0,0,8.39,19l-.11-.13a3.1,3.1,0,0,1-.9-2.06A2.94,2.94,0,0,1,10.49,14a2.8,2.8,0,0,1,3.08,2.82,3,3,0,0,1-.9,2.06l-.08.1A2.28,2.28,0,0,0,12,20.45a1.41,1.41,0,0,0,1.22,1.41H21v7.76a.52.52,0,0,1-.52.41,1.46,1.46,0,0,1-.88-.42l-.11-.09a3.89,3.89,0,0,0-2.62-1.11,3.73,3.73,0,0,0-3.72,4,3.81,3.81,0,0,0,3.71,4,3.93,3.93,0,0,0,2.61-1.1l.14-.12a1.45,1.45,0,0,1,.84-.4.58.58,0,0,1,.57.5v0l0,7.6H13.3A1.46,1.46,0,0,0,12,44.33a2.23,2.23,0,0,0,.57,1.38l.11.14a3.05,3.05,0,0,1,.91,2A3,3,0,0,1,10.51,50.73Z"/><path class="cls-1" d="M10.51,50.58A2.67,2.67,0,0,1,7.57,47.9,2.81,2.81,0,0,1,8.41,46l.09-.11a2.38,2.38,0,0,0,.64-1.55,1.59,1.59,0,0,0-1.37-1.58H.17V22H7.71a1.61,1.61,0,0,0,1.4-1.6,2.33,2.33,0,0,0-.6-1.48l-.11-.14a3,3,0,0,1-.87-2,2.79,2.79,0,0,1,3-2.67,2.66,2.66,0,0,1,2.93,2.67,2.9,2.9,0,0,1-.86,2l-.09.1a2.45,2.45,0,0,0-.67,1.56A1.57,1.57,0,0,0,13.16,22h7.67V29.6a.36.36,0,0,1-.37.29,1.34,1.34,0,0,1-.79-.39l-.1-.08a4,4,0,0,0-2.72-1.15A3.88,3.88,0,0,0,13,32.4a4,4,0,0,0,3.87,4.12,4.06,4.06,0,0,0,2.71-1.14l.14-.12a1.44,1.44,0,0,1,.74-.36.43.43,0,0,1,.42.38l0,7.44H13.28a1.6,1.6,0,0,0-1.4,1.6,2.31,2.31,0,0,0,.61,1.48l.11.13a3,3,0,0,1,.86,2A2.79,2.79,0,0,1,10.51,50.58Z"/><path class="cls-1" d="M76.09,72.65A2.81,2.81,0,0,1,73,69.82a3,3,0,0,1,.9-2l.09-.1a2.28,2.28,0,0,0,.63-1.46A1.41,1.41,0,0,0,73.4,64.8H65.6V57h0a.51.51,0,0,1,.52-.41A1.46,1.46,0,0,1,67,57l.1.08a3.87,3.87,0,0,0,2.63,1.11,3.72,3.72,0,0,0,3.72-4,3.85,3.85,0,0,0-3.73-4,4,4,0,0,0-2.61,1.11l-.14.12a1.38,1.38,0,0,1-.84.39.59.59,0,0,1-.56-.53v0l0-7.51h7.67a1.45,1.45,0,0,0,1.27-1.45A2.22,2.22,0,0,0,74,40.94l-.11-.13a3.07,3.07,0,0,1-.9-2.05,3,3,0,0,1,3.11-2.83,2.81,2.81,0,0,1,3.09,2.83,3,3,0,0,1-.88,2l-.09.1a2.28,2.28,0,0,0-.6,1.46,1.42,1.42,0,0,0,1.24,1.42h7.73v21H78.89a1.45,1.45,0,0,0-1.27,1.45,2.17,2.17,0,0,0,.57,1.38l.11.14a3.07,3.07,0,0,1,.9,2A3,3,0,0,1,76.09,72.65Z"/><path class="cls-1" d="M76.09,72.5a2.66,2.66,0,0,1-2.93-2.68A2.83,2.83,0,0,1,74,67.87l.09-.11a2.39,2.39,0,0,0,.66-1.55,1.57,1.57,0,0,0-1.35-1.56H65.75V57.06a.36.36,0,0,1,.37-.29,1.35,1.35,0,0,1,.78.38l.1.09a4,4,0,0,0,2.73,1.15,3.87,3.87,0,0,0,3.87-4.14,4,4,0,0,0-3.88-4.18A4.08,4.08,0,0,0,67,51.21l-.15.12a1.23,1.23,0,0,1-.74.36c-.3,0-.39-.3-.41-.41l0-7.34h7.54a1.61,1.61,0,0,0,1.4-1.6,2.33,2.33,0,0,0-.6-1.48L74,40.71a2.9,2.9,0,0,1-.87-2,2.79,2.79,0,0,1,3-2.68A2.65,2.65,0,0,1,79,38.76a2.85,2.85,0,0,1-.83,1.93l-.09.11a2.36,2.36,0,0,0-.64,1.55,1.58,1.58,0,0,0,1.37,1.57h7.6V64.64H78.87a1.6,1.6,0,0,0-1.41,1.6,2.37,2.37,0,0,0,.61,1.48l.11.13a3,3,0,0,1,.86,2A2.79,2.79,0,0,1,76.09,72.5Z"/><path class="cls-1" d="M10.53,72.6a2.8,2.8,0,0,1-3.08-2.83,3,3,0,0,1,.9-2l.09-.11a2.31,2.31,0,0,0,.63-1.45,1.41,1.41,0,0,0-1.23-1.41H0v-21H7.67a.53.53,0,0,1,.42.53,1.4,1.4,0,0,1-.39.88l-.09.1A3.86,3.86,0,0,0,6.53,47.9a3.73,3.73,0,0,0,4,3.72,3.82,3.82,0,0,0,4-3.72,3.93,3.93,0,0,0-1.11-2.62l-.11-.13a1.38,1.38,0,0,1-.36-.82.55.55,0,0,1,.44-.56H21v7.67a1.45,1.45,0,0,0,1.45,1.27,2.19,2.19,0,0,0,1.38-.57L24,52A3,3,0,0,1,26,51.13a2.94,2.94,0,0,1,2.82,3.11A2.8,2.8,0,0,1,26,57.33a3,3,0,0,1-2.05-.9l-.1-.09a2.31,2.31,0,0,0-1.45-.63A1.41,1.41,0,0,0,21,56.93v7.82H13.32a1.46,1.46,0,0,0-1.27,1.45,2.19,2.19,0,0,0,.57,1.38l.11.13a3.1,3.1,0,0,1,.9,2.06A2.94,2.94,0,0,1,10.53,72.6Z"/><path class="cls-1" d="M10.53,72.45a2.65,2.65,0,0,1-2.92-2.68,2.85,2.85,0,0,1,.86-2l.09-.1a2.46,2.46,0,0,0,.66-1.55,1.57,1.57,0,0,0-1.35-1.57H.17V43.92H7.63a.39.39,0,0,1,.31.39,1.24,1.24,0,0,1-.36.78l-.08.1A4,4,0,0,0,6.38,47.9a3.87,3.87,0,0,0,4.13,3.87,4,4,0,0,0,4.15-3.87,4.11,4.11,0,0,0-1.14-2.72l-.11-.13a1.18,1.18,0,0,1-.33-.72.39.39,0,0,1,.33-.41h7.42v7.54a1.6,1.6,0,0,0,1.6,1.41,2.34,2.34,0,0,0,1.47-.61l.14-.11A2.94,2.94,0,0,1,26,51.29a2.78,2.78,0,0,1,2.67,3A2.65,2.65,0,0,1,26,57.17a2.83,2.83,0,0,1-1.95-.86l-.1-.09a2.43,2.43,0,0,0-1.55-.66,1.56,1.56,0,0,0-1.56,1.35V64.6H13.3a1.61,1.61,0,0,0-1.4,1.61,2.35,2.35,0,0,0,.6,1.48l.11.13a3,3,0,0,1,.87,2A2.8,2.8,0,0,1,10.53,72.45Z"/><path class="cls-1" d="M65.61,79v0a.56.56,0,0,1,.56-.45,1.38,1.38,0,0,1,.82.37l.13.11a3.93,3.93,0,0,0,2.62,1.1,3.82,3.82,0,0,0,3.72-4,3.72,3.72,0,0,0-3.72-4,3.87,3.87,0,0,0-2.62,1.11l-.11.08a1.46,1.46,0,0,1-.88.42.5.5,0,0,1-.51-.39V65.64H73.3a.54.54,0,0,1,.46.56,1.56,1.56,0,0,1-.43.82l-.11.12a4,4,0,0,0-1.1,2.63,4,4,0,0,0,8,0A3.92,3.92,0,0,0,79,67.14L78.9,67a1.3,1.3,0,0,1-.36-.88.52.52,0,0,1,.41-.52h7.63l0,21h-21Z"/><path class="cls-1" d="M65.76,79a.4.4,0,0,1,.41-.33,1.18,1.18,0,0,1,.72.33l.13.1a4.07,4.07,0,0,0,2.72,1.15,4,4,0,0,0,3.88-4.15A3.88,3.88,0,0,0,69.74,72,4,4,0,0,0,67,73.15l-.11.09a1.33,1.33,0,0,1-.78.38.36.36,0,0,1-.37-.28V65.79h7.5a.4.4,0,0,1,.34.41c0,.11-.07.32-.4.72l-.1.13A4,4,0,0,0,72,69.77a4.15,4.15,0,0,0,8.28,0A4,4,0,0,0,79.1,67l-.08-.1a1.16,1.16,0,0,1-.33-.78.36.36,0,0,1,.29-.37h7.44V86.45H65.76Z"/><path class="cls-2" d="M64.78,38.66l-12-.06h0c-3.58-.06-7.36,0-8.37.84a7.78,7.78,0,0,0-1.08.68,6.93,6.93,0,0,0-.78-1c-.63-.9-13.71-.27-14.86-.44l-3.54,9.71c-.5-4.18-1.19-9-2.58-9.71-.29.06-5.45-.19-5.47.22C15.25,39.05,4.78,53,3.91,54v.09a.87.87,0,0,0-.06.21H16.32A13.59,13.59,0,0,0,19.12,51l.62,3.33h7.89l1.95-5.37.32-.23L36,54.28h6.31L36.5,48.35a8.82,8.82,0,0,0,3.18-.44,5.85,5.85,0,0,0,3,4.91c3.08,1.87,7.59,1.39,11.09,1.46l3.68-9.73H50.4a18.21,18.21,0,0,0-3.1,3.83h3.33L50,50.3c-5.25,1-6.58-6.38-1.74-7.66H58.58a4.36,4.36,0,0,0,.75,4.26c1.31,2.41,6.56,1.26,8.71,1.51.41,0,.41.62.41.92s.08,1-.59,1h-10a21.21,21.21,0,0,0-3.07,4h15c2.9-.27,4.77-3.93,4-6.6-.56-4.22-6.09-2.93-9-3.1a2,2,0,0,1-.89-.62c0-.37.31-1.31.8-1.29h9.73a24.17,24.17,0,0,0,3.47-4ZM13.14,50.33V50l4.95-6.63,1,6.93Zm24.37-5.75H32.79L30.2,47.21l1.68-4.6H37.8c.44,0,.52.2.53.56S38.22,44.6,37.51,44.58Z"/><path class="cls-3" d="M66.13,36.15l-12,0h0c-3.57-.06-7.35,0-8.35.83a7.61,7.61,0,0,0-1.08.69,7.69,7.69,0,0,0-.78-1c-.63-.9-13.69-.27-14.84-.45l-3.53,9.7c-.5-4.17-1.19-9-2.58-9.7-.28.07-5.44-.18-5.46.22-.81.17-11.27,14.14-12.14,15.09v.09s0,0-.06.2H17.75a13.54,13.54,0,0,0,2.8-3.32l.61,3.32h7.89L31,46.4l.32-.24,6.06,5.59h6.3L37.9,45.84a9.25,9.25,0,0,0,3.17-.44,5.82,5.82,0,0,0,3,4.89c3.07,1.87,7.58,1.4,11.06,1.46L58.83,42H51.77a18.23,18.23,0,0,0-3.09,3.83H52l-.68,1.91c-5.25,1-6.57-6.37-1.74-7.65H59.94a4.34,4.34,0,0,0,.75,4.25c1.31,2.41,6.55,1.26,8.69,1.51.42,0,.42.62.42.92s.07,1-.59,1h-10a21.09,21.09,0,0,0-3.06,3.94h15c2.9-.26,4.77-3.92,4-6.59-.57-4.21-6.08-2.92-9-3.09a2,2,0,0,1-.89-.62c0-.37.31-1.31.8-1.29h9.71a24.17,24.17,0,0,0,3.47-4ZM14.57,47.81v-.3l4.95-6.62,1,6.92ZM38.9,42.07H34.2l-2.59,2.62,1.67-4.59H39.2c.44,0,.52.2.53.56S39.61,42.09,38.9,42.07Z"/></g></g></svg>